<svg   fill="none" xmlns="http://www.w3.org/2000/svg">
<path d="M92.7009 106.399C91.8542 105.019 91.325 104.147 91.325 104.147C87.6208 96.8116 83.7048 89.4045 79.683 82.0689C81.3764 81.851 83.599 81.6331 85.9274 81.6331C87.0916 81.6331 88.3616 81.7058 89.5258 81.851C90.69 81.9963 91.9601 82.2868 93.1243 82.5773C97.7811 83.8846 101.591 86.6446 102.226 91.9465C102.438 93.2538 102.438 95.7948 101.274 98.5547C100.639 99.9347 99.7919 101.387 98.4161 102.695C97.7811 103.348 96.9344 104.002 95.9818 104.656C95.0293 105.237 93.9709 105.818 92.7009 106.399ZM89.7375 107.561C87.3033 108.36 84.5515 108.941 81.0589 109.376C78.7305 109.74 75.5554 109.885 72.0628 109.74C70.2636 109.667 68.4644 109.522 66.5593 109.231C64.6543 109.013 62.6434 108.65 60.7383 108.214C53.0123 106.399 45.9212 102.549 43.8045 95.2864C42.852 91.9465 43.5928 87.8066 46.0271 83.3036C47.1913 81.0521 48.8847 78.728 50.8956 76.4038C52.9064 74.0797 55.4465 71.6829 58.4099 69.4314C60.2092 67.9789 62.7492 66.1631 65.501 64.1295C66.4535 65.7274 68.9936 70.0851 71.957 75.1691C63.0667 78.2196 56.0815 85.9909 57.7749 92.237C58.7274 95.8675 61.2675 98.5547 64.5484 100.443C67.9352 102.331 72.2745 103.276 77.143 103.421C77.143 103.421 76.8255 103.276 76.1904 102.912C75.5554 102.549 74.8146 102.114 73.862 101.46C72.0628 100.225 69.8403 98.4821 68.2527 96.5211C65.1835 92.5275 64.7601 87.3708 76.4021 83.0131C81.0589 91.2202 85.504 99.4263 89.7375 107.633V107.561ZM56.8224 35.9504C56.5049 31.8832 58.3041 28.4696 61.2675 26.0728C64.1251 23.6761 67.8294 22.2961 70.5811 22.1509C72.592 22.0782 74.1795 22.514 75.4496 23.1677C76.7196 23.894 77.5663 24.9108 78.2013 26.0002C79.4714 28.1791 79.683 30.6485 79.8947 31.8832C80.2122 34.4978 79.4714 36.6041 78.3072 38.565C77.0371 40.526 75.2379 42.1239 73.227 43.6491C69.2052 46.6269 64.2309 48.7331 61.6909 50.9846C59.1508 45.9732 57.2457 40.5987 56.8224 35.8778V35.9504ZM109.741 90.7844C109.529 87.6614 108.788 84.9741 107.412 82.65C106.142 80.3258 104.131 78.3648 101.591 76.9849C96.4052 74.1523 88.2558 72.9176 76.8255 74.1523C76.2963 74.225 75.7671 74.2976 75.2379 74.3702C72.9095 70.303 70.4753 66.1631 68.041 62.0959C72.8037 58.6097 77.9897 54.3982 81.9056 49.3868C85.9274 44.5206 88.6791 38.7829 87.8324 32.1737C87.4091 28.1791 84.6573 22.8045 80.6356 18.5204C78.6247 16.3415 76.2963 14.5258 73.7562 13.2185C71.322 11.9111 68.6761 11.2575 66.136 11.4754L64.5484 11.8385C64.5484 11.8385 59.7858 13.9448 55.5523 17.7215C51.6364 21.5698 48.3555 27.1623 50.0489 34.1347C52.0598 42.2691 55.8699 51.0573 57.8807 53.5267C55.6582 55.2698 52.5889 57.375 49.5197 59.8444C46.5563 62.3138 43.3812 65.219 40.7353 68.5599C35.4434 75.1692 32.0567 83.5941 34.9143 94.0527C36.1843 98.7 39.9944 102.404 44.4395 105.091C48.7788 107.779 53.7531 109.594 57.5632 110.466C59.4683 110.902 61.3733 111.265 63.3842 111.628C65.3951 111.919 67.406 112.209 69.3111 112.427C73.227 112.863 77.3546 112.863 81.7998 112.209C84.234 111.919 87.4091 111.047 90.9017 109.667C93.7593 114.678 96.2993 119.327 96.2993 119.327C97.0402 120.997 98.8394 125.573 98.4161 130.003C98.2044 132.182 97.4635 134.36 95.876 136.103C95.0293 136.975 94.0768 137.773 92.7009 138.355C92.0659 138.645 91.325 138.936 90.5842 139.153C89.7375 139.371 88.6791 139.662 87.6208 139.807C82.2231 140.679 76.9313 142.059 75.7671 137.773C79.048 137.556 85.8215 134.069 84.7632 129.495C83.8107 125.5 81.1647 122.886 72.4862 124.193C71.1103 124.411 69.6286 124.919 68.3586 125.718C67.0885 126.444 66.0301 127.461 65.0776 128.478C63.2784 130.584 62.4317 132.981 62.9609 134.796C63.4901 136.757 65.6068 139.299 69.5228 141.042C71.4278 141.913 73.862 142.567 76.7196 142.858C79.3655 143.221 82.3289 143.221 85.8215 142.64C86.7741 142.494 87.8324 142.276 88.8908 141.986C89.42 141.841 89.9492 141.695 90.4783 141.478C91.0075 141.332 91.4309 141.187 91.8542 140.969C93.7593 140.243 95.5585 139.226 97.0402 137.846C98.5219 136.466 99.8978 134.796 100.639 132.763C101.379 130.729 101.591 128.333 101.168 125.5C100.109 121.07 96.1935 113.153 93.4418 108.432C97.4635 106.544 101.485 104.292 104.555 101.242C105.295 100.516 106.036 99.7168 106.671 98.9179C107.306 98.119 107.836 97.32 108.259 96.4485C109.106 94.7064 109.529 92.8907 109.423 90.857L109.741 90.7844Z" fill="#25B8C9"/>
<path d="M401.528 68.1969L389.886 63.9844C387.981 63.2581 386.076 62.5319 384.065 61.8782L377.927 59.9172L365.544 56.0689L362.475 55.1247L359.3 54.2531L352.844 52.5827C335.91 48.2249 318.977 44.8113 302.044 42.0514C268.07 36.5316 234.414 33.5538 201.605 31.6655C193.456 31.1571 185.306 30.7939 177.157 30.4308C169.007 30.0676 161.175 29.7771 152.816 29.5592L140.433 29.1961L137.364 29.1234H134.083L127.627 29.0508C123.288 29.0508 119.054 28.9782 114.503 29.0508L100.85 29.414C96.2993 29.4866 91.6425 29.7771 86.9857 30.0676C82.3289 30.3581 77.6721 30.576 73.227 31.0118L59.6799 32.2465L47.0854 33.6264L40.841 34.3527L34.9142 35.079L23.0605 36.5316L0.305728 39.2915L0.0940552 38.6379L22.8489 35.878L34.7025 34.498L40.6294 33.7717L46.8737 33.0454L59.5741 31.6655L73.1211 30.4308C77.5663 29.995 82.3289 29.7771 86.9857 29.4866C91.6425 29.1961 96.2993 28.9056 100.85 28.8329L114.503 28.4698C118.948 28.3972 123.288 28.4698 127.627 28.4698L134.189 28.5424H137.47L140.539 28.615L152.922 28.9782C161.281 29.1961 169.219 29.4866 177.263 29.8497C185.306 30.2129 193.456 30.576 201.711 31.0844C234.52 32.9728 268.282 35.9506 302.255 41.543C319.295 44.3029 336.227 47.7891 353.161 52.1469L359.617 53.8174L362.792 54.6889L365.861 55.6331L378.244 59.4814L384.383 61.4424C386.394 62.0961 388.299 62.8224 390.204 63.5487L401.846 67.7612L401.528 68.1969Z" fill="#25B8C9"/>
<path d="M392.109 81.4156L380.996 77.5662C379.091 76.9126 377.292 76.2589 375.387 75.6779L369.566 73.9348L357.924 70.4486L354.96 69.577L351.997 68.8507L345.964 67.3255C329.984 63.4762 313.897 60.4258 297.704 58.029C265.318 53.2365 232.827 50.8397 200.864 49.4598C192.821 49.0966 184.883 48.8787 176.945 48.6608C169.007 48.443 161.175 48.2251 153.133 48.1524L141.068 48.0072L138.105 47.9345H135.035L128.791 48.0072C124.663 48.0798 120.536 48.0798 116.408 48.1524L103.708 48.6608C99.4743 48.7335 95.135 49.0966 90.9016 49.4598C86.6681 49.7503 82.223 50.0408 78.0954 50.4766L65.5009 51.7839L53.4355 53.3091L47.4029 54.0354L41.5819 54.8343L29.9399 56.4322L7.2909 59.5542L7.07922 58.9005L29.7282 55.7785L41.3702 54.1807L47.1912 53.3817L53.2239 52.6554L65.2892 51.1302L77.8837 49.8229C82.0113 49.3145 86.4565 49.0966 90.6899 48.8061C95.0292 48.5156 99.2627 48.1524 103.496 48.0798L116.302 47.5714C120.536 47.4988 124.558 47.4988 128.791 47.4261L135.035 47.3535H138.105L141.174 47.4261L153.239 47.5714C161.387 47.644 169.113 47.8619 177.051 48.0798C184.989 48.2977 192.926 48.5882 200.97 48.8787C232.932 50.2587 265.53 52.6554 297.916 57.5206C314.109 59.9173 330.3 62.9678 346.282 66.8897L352.314 68.415L355.278 69.1413L358.241 70.0128L369.883 73.499L375.704 75.2421C377.609 75.8231 379.408 76.5494 381.314 77.1305L392.426 80.9798L392.109 81.4156Z" fill="#25B8C9"/>
<path d="M382.69 94.6339L372 91.1477C370.201 90.5667 368.507 89.9857 366.708 89.4046L361.205 87.8794L350.198 84.829L347.446 84.0301L344.588 83.3764L338.979 82.0691C323.952 78.7281 308.606 76.0409 293.259 74.0072C262.355 69.8674 231.133 68.0517 199.912 67.2527C184.354 66.8896 168.796 66.6717 153.239 66.7443C145.407 66.7443 137.681 66.7443 129.744 66.9622C125.828 67.1075 121.912 67.1075 117.996 67.2527L106.142 67.9064C90.3725 68.9232 74.6029 70.5937 59.3625 72.9178C44.0162 75.0967 28.9874 77.5661 13.9587 79.8902L13.747 79.2366C28.7758 76.9124 43.8045 74.5157 59.1508 72.3368C74.3912 70.0126 90.2667 68.3422 106.036 67.3254L117.89 66.7443C121.806 66.5991 125.722 66.5264 129.744 66.4538C137.576 66.2359 145.407 66.2359 153.239 66.2359C168.902 66.1633 184.354 66.3812 199.912 66.817C231.028 67.6159 262.461 69.5042 293.365 73.6441C308.817 75.6777 324.164 78.365 339.191 81.7786L344.8 83.0859L347.658 83.7396L350.409 84.5385L361.416 87.5889L366.92 89.1141C368.719 89.6225 370.518 90.2762 372.318 90.8572L383.007 94.3434L382.69 94.7792V94.6339Z" fill="#25B8C9"/>
<path d="M373.27 107.851L363.11 104.728C361.416 104.22 359.723 103.639 358.03 103.203L352.844 101.896L342.578 99.2085L340.037 98.5548L337.392 97.9738L332.207 96.8843C318.131 93.9802 303.631 91.7287 289.026 90.0582C259.709 86.6446 229.546 85.4099 199.277 85.1194C191.656 85.0468 184.036 85.0468 176.416 85.1194C168.796 85.1921 161.071 85.192 153.557 85.4099L142.232 85.6278L139.375 85.7005L136.623 85.8457L131.014 86.0636C127.309 86.2089 123.605 86.3541 119.901 86.572L109 87.3709C105.295 87.5888 101.803 88.0246 98.2044 88.3877C94.6059 88.7509 91.0075 89.0414 87.4091 89.6224L76.6138 91.075L65.7126 92.8181L60.2091 93.6897L54.5998 94.6338L43.487 96.5212L20.9439 100.443L20.7322 99.7895L43.2753 95.8675L54.3881 93.9802L59.9975 93.036L65.5009 92.1644L76.5079 90.4213L87.3032 88.9688C90.9017 88.4604 94.5001 88.1698 98.0985 87.7341C101.697 87.3709 105.295 86.9352 109 86.7173L119.901 85.991C123.605 85.7731 127.309 85.7004 131.014 85.4826L136.623 85.2647L139.375 85.1194L142.232 85.0468L153.557 84.8289C161.071 84.6836 168.796 84.611 176.416 84.5384C184.036 84.4658 191.656 84.5384 199.277 84.611C229.652 84.9015 259.709 86.2089 289.132 89.6224C303.843 91.2929 318.342 93.5444 332.419 96.4486L337.709 97.538L340.355 98.119L342.895 98.7727L353.161 101.46L358.347 102.767C360.04 103.203 361.734 103.784 363.427 104.293L373.588 107.416L373.27 107.851Z" fill="#25B8C9"/>
<path d="M363.851 121.07L354.114 118.31C352.526 117.874 350.938 117.366 349.245 116.93L344.377 115.768L334.745 113.517L332.311 112.936L329.878 112.5L325.01 111.556C311.886 109.159 298.233 107.27 284.369 105.963C256.534 103.276 227.641 102.622 198.218 102.84C190.81 102.913 183.401 103.058 175.887 103.203C168.478 103.348 160.753 103.566 153.557 103.857L142.55 104.293L139.798 104.365L137.152 104.511L131.86 104.801C128.368 105.019 124.769 105.164 121.382 105.455L111.328 106.399C107.941 106.617 104.766 107.125 101.485 107.488C98.2042 107.924 95.0291 108.215 91.7482 108.796L81.9054 110.321L71.5335 112.209L66.3475 113.153L60.844 114.17L49.9429 116.204L27.5056 120.489L27.2939 119.835L49.7312 115.55L60.6323 113.517L66.1358 112.5L71.3218 111.556L81.6938 109.74L91.6424 108.215C95.0291 107.634 98.2042 107.343 101.485 106.907C104.766 106.544 107.941 106.036 111.328 105.818L121.382 104.946C124.769 104.656 128.368 104.511 131.86 104.293L137.152 104.002L139.798 103.857L142.55 103.784L153.557 103.348C160.859 103.058 168.478 102.84 175.887 102.695C183.401 102.55 190.81 102.404 198.218 102.332C227.746 102.114 256.64 102.767 284.475 105.527C298.339 106.835 312.098 108.723 325.222 111.12L330.09 112.064L332.524 112.5L334.957 113.081L344.588 115.405L349.457 116.567C351.044 117.003 352.632 117.511 354.325 117.947L364.062 120.707L363.745 121.143L363.851 121.07Z" fill="#25B8C9"/>
<path d="M-0.0133057 38.5654L4.74933 37.9844L32.4784 119.763L27.8216 120.634L-0.0133057 38.5654Z" fill="#25B8C9"/>
<path d="M708.557 205.681C701.889 204.156 695.433 202.413 689.188 200.525L684.638 199.072C683.156 198.564 681.568 198.128 679.981 197.547L670.561 194.206C657.862 189.558 645.48 184.401 633.097 178.881C608.331 167.842 584.095 155.568 559.223 142.858C546.734 136.539 534.14 130.149 521.016 123.758L511.279 119.037L502.177 114.534L483.657 105.31L464.501 95.868C461.326 94.2711 457.939 92.6733 454.658 91.1481L444.604 86.3545C441.217 84.7567 437.619 83.2315 434.232 81.6336C430.739 80.1084 427.352 78.5106 423.648 76.9854L412.641 72.4824C408.937 70.9572 405.338 69.4319 401.423 68.052L401.74 67.6162C405.656 68.9962 409.254 70.5214 412.959 72.0466L423.966 76.5496C427.564 78.0748 430.951 79.6727 434.549 81.1979C438.042 82.7957 441.534 84.3209 444.921 85.9188L454.976 90.7123C458.257 92.3101 461.643 93.908 464.818 95.5048L483.975 104.947L502.495 114.17L511.597 118.674L521.334 123.394C534.351 129.713 547.052 136.176 559.435 142.495C584.306 155.132 608.543 167.479 633.308 178.518C645.691 184.038 658.074 189.194 670.773 193.843L680.192 197.184C681.78 197.765 683.262 198.2 684.849 198.709L689.4 200.161C695.644 202.05 702.1 203.793 708.768 205.318L708.662 205.609L708.557 205.681Z" fill="#25B8C9"/>
<path d="M705.276 213.887C698.29 212.435 691.411 210.692 684.743 208.877L679.769 207.424C678.076 206.916 676.488 206.48 674.795 205.899L664.848 202.631C651.618 198.128 638.6 192.971 625.794 187.596C600.076 176.847 575.204 164.792 549.909 152.59C537.209 146.489 524.509 140.316 511.385 134.288L501.649 129.786L492.23 125.355L473.285 116.422C447.779 104.365 421.531 91.8742 392.109 81.343L392.426 80.9072C421.849 91.4385 448.202 104.002 473.603 116.059L492.548 124.992L501.967 129.422L511.703 133.925C524.72 139.953 537.527 146.126 550.227 152.227C575.522 164.429 600.499 176.484 626.112 187.306C638.918 192.68 651.936 197.765 665.165 202.34L675.112 205.608C676.806 206.19 678.393 206.625 680.087 207.134L685.061 208.586C691.729 210.401 698.608 212.071 705.593 213.597L705.487 213.887H705.276Z" fill="#25B8C9"/>
<path d="M701.995 222.095C694.692 220.642 687.389 219.044 680.298 217.229L675.006 215.776C673.207 215.268 671.515 214.832 669.716 214.323C666.223 213.234 662.731 212.217 659.238 211.128C645.374 206.698 631.827 201.687 618.597 196.385C592.032 185.854 566.314 174.088 540.596 162.323C527.684 156.44 514.877 150.557 501.755 144.819L491.912 140.534L482.175 136.249C475.719 133.416 469.263 130.512 462.807 127.607C436.983 115.986 410.842 104.221 382.583 94.6345L382.901 94.1987C411.159 103.785 437.301 115.623 463.125 127.171C469.581 130.077 476.037 132.982 482.493 135.813L492.23 140.098L502.073 144.383C515.195 150.121 528.001 156.077 540.913 161.96C566.631 173.725 592.244 185.491 618.809 196.094C632.144 201.396 645.585 206.408 659.45 210.837C662.942 211.927 666.435 213.016 669.928 214.033C671.621 214.614 673.42 215.05 675.219 215.485L680.51 216.938C687.601 218.754 694.904 220.352 702.206 221.804L702.1 222.095H701.995Z" fill="#25B8C9"/>
<path d="M698.714 230.301C690.988 228.921 683.367 227.396 675.853 225.581L670.245 224.201C668.34 223.765 666.435 223.256 664.636 222.748C661.037 221.659 657.333 220.642 653.629 219.552C639.129 215.195 625.159 210.328 611.4 205.173C583.883 194.859 557.53 183.384 531.388 172.054C518.264 166.39 505.352 160.725 492.23 155.278L482.387 151.21L472.439 146.998C465.771 144.238 459.209 141.405 452.647 138.573C426.4 127.389 400.47 116.349 373.482 107.779L373.799 107.343C400.893 115.914 426.823 127.026 453.071 138.21C459.632 141.042 466.194 143.802 472.862 146.635L482.811 150.847L492.653 154.914C505.776 160.362 518.793 166.027 531.811 171.691C557.953 183.021 584.2 194.496 611.718 204.81C625.476 209.965 639.447 214.904 653.946 219.262C657.545 220.351 661.249 221.368 664.848 222.457C666.647 223.038 668.552 223.474 670.455 223.91L676.065 225.29C683.579 227.106 691.199 228.631 698.925 230.011L698.82 230.301H698.714Z" fill="#25B8C9"/>
<path d="M695.433 238.581C687.389 237.274 679.346 235.749 671.409 234.006L665.377 232.626C663.366 232.19 661.355 231.681 659.45 231.173C655.64 230.156 651.83 229.139 648.02 228.05C632.991 223.765 618.385 218.971 604.097 213.96C575.627 203.865 548.639 192.681 522.074 181.786C508.845 176.339 495.723 170.964 482.599 165.809L472.65 161.959L462.384 157.892L442.169 149.758C415.499 139.009 389.78 128.696 363.956 121.143L364.274 120.707C390.204 128.333 415.922 138.645 442.593 149.395L462.807 157.529L473.074 161.596L483.022 165.446C496.146 170.602 509.268 175.976 522.498 181.423C549.063 192.317 576.051 203.502 604.521 213.597C618.703 218.608 633.308 223.474 648.337 227.687C652.147 228.776 655.957 229.793 659.767 230.81C661.672 231.318 663.683 231.827 665.694 232.262L671.727 233.642C679.769 235.385 687.707 236.911 695.75 238.218L695.644 238.509L695.433 238.581Z" fill="#25B8C9"/>
<path d="M401.846 67.834L402.481 68.0519L364.38 121.215L363.85 121.07L401.846 67.834Z" fill="#25B8C9"/>
<path d="M1033.89 167.915C1014.63 183.674 991.244 196.675 965.314 205.826C939.384 214.977 910.914 220.424 882.55 222.022C879.057 222.24 875.459 222.312 871.966 222.385C870.273 222.385 868.474 222.385 866.78 222.385C865.934 222.385 865.087 222.385 864.24 222.312C863.499 222.312 862.547 222.239 862.018 222.239L850.481 221.731L839.051 221.223C823.918 220.496 808.783 219.552 793.966 218.245C764.332 215.703 735.227 211.926 708.556 205.681L708.662 205.391C735.333 211.636 764.332 215.412 794.072 218.027C808.889 219.334 824.024 220.279 839.157 221.005L850.587 221.513L862.123 222.022C862.653 222.094 863.605 222.094 864.346 222.094C865.193 222.094 866.039 222.094 866.78 222.167C868.474 222.167 870.167 222.167 871.966 222.167C875.459 222.094 878.951 222.022 882.444 221.804C910.808 220.206 939.278 214.831 965.208 205.681C991.138 196.602 1014.53 183.602 1033.79 167.842L1033.89 167.915Z" fill="#25B8C9"/>
<path d="M1036.65 169.295C1017.81 185.635 994.419 199.29 968.172 209.094C942.03 218.971 912.925 225.145 883.608 227.323C879.904 227.614 876.306 227.832 872.601 227.904C869.003 228.05 865.299 228.05 862.018 227.977L850.482 227.687L838.947 227.323C823.601 226.815 808.466 226.161 793.331 225.145C763.168 223.111 733.322 219.77 705.276 213.814L705.381 213.524C733.428 219.479 763.168 222.82 793.331 224.854C808.466 225.871 823.706 226.597 838.947 227.105L850.482 227.469L862.018 227.759C865.299 227.832 869.003 227.759 872.601 227.687C876.2 227.541 879.904 227.396 883.503 227.105C912.819 224.927 941.818 218.826 968.066 208.949C994.313 199.144 1017.6 185.49 1036.54 169.149L1036.65 169.222V169.295Z" fill="#25B8C9"/>
<path d="M1039.4 170.675C1020.88 187.524 997.7 201.904 971.135 212.435C944.676 223.038 915.042 229.866 884.773 232.698C877.258 233.424 869.532 233.86 862.018 233.86C854.292 233.788 846.567 233.715 838.841 233.642C823.389 233.424 808.043 232.989 792.696 232.19C762.004 230.664 731.417 227.832 701.995 222.167L702.1 221.876C731.523 227.541 762.004 230.374 792.696 231.972C808.043 232.771 823.389 233.207 838.841 233.424C846.567 233.57 854.292 233.57 862.018 233.642C869.532 233.642 877.152 233.207 884.667 232.553C914.936 229.72 944.464 222.966 970.923 212.362C997.488 201.832 1020.66 187.451 1039.19 170.675L1039.29 170.747L1039.4 170.675Z" fill="#25B8C9"/>
<path d="M1042.04 172.054C1023.95 189.412 1000.77 204.519 973.887 215.775C947.11 227.106 916.947 234.659 885.725 238.073C881.809 238.508 877.893 238.872 873.977 239.089C869.955 239.38 866.039 239.525 861.912 239.598C854.186 239.67 846.46 239.743 838.629 239.743C823.071 239.743 807.513 239.598 791.955 239.089C760.84 238 729.406 235.676 698.608 230.301L698.714 230.011C729.512 235.385 760.84 237.782 791.955 238.872C807.513 239.38 823.071 239.598 838.629 239.598C846.354 239.598 854.186 239.525 861.912 239.453C866.039 239.38 869.955 239.235 873.977 238.944C877.893 238.654 881.809 238.363 885.725 237.927C916.947 234.514 947.004 226.96 973.781 215.703C1000.56 204.446 1023.73 189.412 1041.94 172.054L1042.04 172.126V172.054Z" fill="#25B8C9"/>
<path d="M1044.8 173.433C1027.02 191.373 1003.94 207.133 976.85 219.116C949.756 231.173 919.169 239.38 886.995 243.447C882.973 243.955 878.846 244.391 874.824 244.754C872.813 244.9 870.696 245.045 868.58 245.19C866.463 245.335 864.452 245.408 862.018 245.481L850.376 245.771L838.629 245.989C822.966 246.28 807.196 246.352 791.426 246.062C759.781 245.481 727.713 243.665 695.539 238.508L695.645 238.218C727.819 243.302 759.887 245.19 791.532 245.771C807.408 246.062 823.071 245.989 838.735 245.699L850.482 245.481L862.124 245.19C864.452 245.117 866.569 245.045 868.685 244.9C870.802 244.754 872.813 244.609 874.93 244.464C879.057 244.101 883.079 243.665 887.101 243.229C919.275 239.162 949.862 230.955 976.956 218.971C1004.05 206.988 1027.12 191.3 1044.9 173.361L1045.01 173.433H1044.8Z" fill="#25B8C9"/>
<path d="M708.662 205.463L709.297 205.608L696.068 238.653L695.433 238.581L708.662 205.463Z" fill="#25B8C9"/>
<path d="M1030.72 170.312L1033.89 167.842L1044.8 173.434L1041.94 176.194L1030.72 170.312Z" fill="#25B8C9"/>
<path d="M980.554 195.295C976.744 195.513 974.522 195.585 973.781 195.658L971.77 194.714L971.347 195.15L990.397 203.647C988.916 203.865 987.54 204.882 987.222 206.335C986.905 208.005 988.069 209.529 989.974 209.674C991.879 209.892 993.678 208.659 993.996 206.988C994.313 205.681 993.572 204.519 992.408 203.938L977.697 197.401C983.835 195.44 987.857 197.038 987.857 197.038C991.985 198.854 993.149 201.686 993.149 201.686C992.726 198.999 988.704 196.675 988.704 196.675C986.587 195.731 984.894 194.932 980.343 195.15L980.554 195.295Z" fill="#25B8C9"/>
<path d="M807.831 255.503C812.594 258.626 815.345 260.441 816.298 261.095L816.933 264L818.203 263.855L812.382 237.056C814.499 238.218 817.991 238.145 821.061 236.838C824.659 235.24 826.035 232.407 824.236 230.519C822.436 228.631 818.097 228.34 814.499 229.938C811.747 231.173 810.265 233.134 810.583 234.804L815.028 255.357C804.233 252.089 802.751 246.715 802.751 246.715C801.481 240.978 805.503 236.62 805.503 236.62C800.952 240.106 801.057 246.28 801.057 246.28C801.692 249.184 802.116 251.726 807.831 255.43V255.503Z" fill="#25B8C9"/>
<path d="M550.015 157.456C544.512 153.316 541.337 150.92 540.278 150.048L539.855 146.417L538.267 146.489L542.289 180.043C539.749 178.518 535.41 178.372 531.494 179.825C526.837 181.568 524.72 185.054 526.731 187.451C528.742 189.92 534.14 190.429 538.691 188.686C542.289 187.306 544.3 184.982 544.194 182.875L541.125 157.093C554.143 161.741 555.307 168.496 555.307 168.496C556.154 175.685 550.65 180.842 550.65 180.842C556.789 176.774 557.212 169.077 557.212 169.077C556.789 165.373 556.471 162.25 549.91 157.311L550.015 157.456Z" fill="#25B8C9"/>
<path d="M338.027 81.1244C344.588 83.0128 348.399 84.1022 349.669 84.4654L351.891 87.2253L353.161 86.7169L332.1 61.3693C334.851 61.9503 338.45 60.9335 340.672 58.8273C343.318 56.2863 343.213 53.0179 340.355 51.638C337.497 50.1854 332.946 51.1296 330.301 53.6716C328.291 55.6326 327.868 58.0283 329.138 59.6262L345.329 79.0908C332.629 78.7277 328.079 73.7162 328.079 73.7162C323.528 68.2691 325.116 62.8219 325.116 62.8219C322.47 67.5428 326.174 73.7162 326.174 73.7162C328.503 76.4762 330.408 78.8729 338.132 81.1244H338.027Z" fill="#25B8C9"/>
<path d="M197.054 24.0392C190.386 14.5258 186.47 9.00602 185.094 7.11766L187.105 0.435775L184.142 0L165.515 62.1686C162.234 58.4645 154.403 56.5771 146.254 57.8834C136.517 59.4086 130.061 64.8558 131.754 70.0125C133.448 75.1692 142.761 78.147 152.498 76.6218C160.013 75.4597 165.515 71.9735 166.891 68.0515L181.284 20.3352C201.182 33.481 198.112 46.1185 198.112 46.1185C194.091 59.4086 180.12 66.8168 180.12 66.8168C194.302 61.7328 201.182 47.9342 201.182 47.9342C203.192 41.1071 205.098 35.3694 197.16 24.0392H197.054Z" fill="#25B8C9"/>
<path d="M771.106 217.809L743.8 201.904L742.953 201.396L739.99 203.792L723.691 216.937C723.585 215.339 721.469 213.741 718.505 213.16C714.907 212.434 711.414 213.451 710.673 215.339C709.932 217.228 712.155 219.334 715.753 219.988C718.505 220.496 721.257 220.06 722.633 218.971L740.837 204.228L768.142 220.133L751.844 233.279C751.738 231.681 749.621 230.083 746.658 229.502C743.059 228.776 739.567 229.793 738.826 231.681C738.085 233.569 740.307 235.675 743.906 236.329C746.658 236.838 749.409 236.402 750.785 235.312L768.989 220.569L771.953 218.172L771.106 217.663V217.809Z" fill="#25B8C9"/>
<path d="M525.038 127.025L486.409 117.801L485.139 117.511L483.446 120.924L473.92 139.516C472.862 137.846 469.687 136.756 466.194 136.974C461.961 137.265 458.786 139.298 459.103 141.477C459.421 143.729 463.019 145.327 467.253 145.036C470.534 144.818 473.074 143.584 474.026 141.986L484.61 121.142L523.239 130.366L513.713 148.958C512.655 147.288 509.48 146.198 505.987 146.416C501.754 146.707 498.58 148.74 498.898 150.919C499.215 153.171 502.812 154.769 507.046 154.478C510.327 154.26 512.867 153.025 513.819 151.428L524.403 130.584L526.096 127.17L524.826 126.88L525.038 127.025Z" fill="#25B8C9"/>
<path d="M310.299 83.8118L270.399 62.1683L269.129 61.5146L265.001 65.0735L242.775 84.3202C242.458 82.0687 239.388 79.8898 235.155 79.1635C230.075 78.292 225.101 79.8172 224.148 82.5045C223.196 85.1918 226.476 88.0969 231.662 88.9685C235.578 89.6221 239.388 88.8958 241.399 87.298L266.271 65.7271L306.171 87.3706L283.946 106.616C283.628 104.365 280.559 102.186 276.325 101.46C271.245 100.588 266.271 102.113 265.318 104.801C264.366 107.488 267.647 110.393 272.833 111.265C276.749 111.918 280.559 111.192 282.57 109.594L307.441 88.0243L311.569 84.4655L310.299 83.8118Z" fill="#25B8C9"/>
<path d="M1025.22 204.228L1025.32 184.982C1025.43 183.892 1026.59 182.73 1028.6 182.076C1031.14 181.277 1033.89 181.713 1034.85 183.093C1035.69 184.473 1034.42 186.144 1031.88 186.943C1029.77 187.596 1027.44 187.378 1026.27 186.507L1026.17 204.228H1025.32H1025.22ZM1026.91 186.434C1027.44 186.943 1029.45 186.434 1031.25 185.345C1033.05 184.255 1034.11 183.021 1033.58 182.585C1033.05 182.076 1031.04 182.585 1029.24 183.674C1027.44 184.764 1026.38 185.998 1026.91 186.434Z" fill="#25B8C9"/>
<path d="M897.579 213.451L914.936 226.597C915.888 227.396 916.1 228.703 915.359 229.938C914.301 231.536 912.078 232.407 910.279 231.899C908.48 231.391 907.845 229.648 908.797 227.977C909.644 226.597 911.443 225.798 913.031 225.871L897.049 213.814L897.579 213.451ZM912.607 226.234C911.761 226.161 910.914 227.323 910.597 228.849C910.279 230.374 910.702 231.609 911.549 231.681C912.396 231.754 913.243 230.592 913.56 229.066C913.878 227.541 913.454 226.307 912.607 226.234Z" fill="#25B8C9"/>
<path d="M376.128 104.874L377.292 100.661L378.033 97.7558L379.197 93.5444L384.171 75.0966C384.806 73.1356 387.558 71.3925 391.262 70.7388C396.131 69.8673 400.787 71.3198 401.74 73.8619C402.693 76.4039 399.517 79.1638 394.755 80.0353C390.733 80.7616 386.817 79.8901 385.018 78.0744L380.784 93.8349L428.093 99.7895L432.962 81.3427C433.597 79.3817 436.348 77.6386 440.053 76.9849C444.921 76.1134 449.578 77.5659 450.531 80.108C451.483 82.65 448.308 85.4099 443.545 86.2814C439.524 87.0077 435.608 86.1362 433.808 84.3205L429.575 100.08L428.411 104.292L427.67 107.198L426.506 111.41L425.024 111.192L377.715 105.237L376.233 105.019L376.128 104.874ZM378.774 100.879L426.082 106.834L426.823 103.929L379.514 97.9737L378.774 100.879Z" fill="#25B8C9"/>
<path d="M853.763 254.413L853.233 252.234L852.916 250.709L852.387 248.53L850.164 238.944C849.952 237.927 850.905 236.692 852.493 235.966C854.609 235.022 857.255 235.167 858.419 236.257C859.478 237.419 858.631 239.089 856.514 240.106C854.715 240.905 852.598 240.978 851.223 240.251L853.128 248.457L877.787 245.844L875.565 236.257C875.353 235.24 876.306 234.005 877.893 233.279C880.01 232.335 882.656 232.48 883.82 233.569C884.878 234.731 884.032 236.402 881.915 237.419C880.116 238.218 877.999 238.29 876.623 237.564L878.528 245.771L879.057 247.949L879.375 249.474L879.904 251.653L879.163 251.726L854.503 254.34L853.763 254.413ZM854.08 252.161L878.74 249.547L878.422 248.022L853.763 250.636L854.08 252.161Z" fill="#25B8C9"/>
<path d="M975.262 208.15L974.733 210.11L974.416 211.418L973.887 213.379L971.558 221.876C971.241 222.748 969.971 223.619 968.277 223.837C966.055 224.2 963.938 223.547 963.515 222.385C963.091 221.223 964.573 219.915 966.796 219.552C968.701 219.262 970.5 219.625 971.241 220.496L973.252 213.306L960.022 211.563L957.694 220.061C957.376 220.932 956.106 221.804 954.413 222.022C952.19 222.385 950.074 221.731 949.65 220.569C949.227 219.407 950.709 218.1 952.931 217.736C954.836 217.446 956.635 217.809 957.376 218.681L959.387 211.49L946.158 209.747L943.829 218.245C943.512 219.116 942.242 219.988 940.548 220.206C938.326 220.569 936.209 219.915 935.786 218.753C935.362 217.591 936.844 216.284 939.067 215.921C940.972 215.63 942.771 215.993 943.512 216.865L945.523 209.675L946.052 207.715L946.369 206.407L946.899 204.446L947.639 204.519L960.869 206.262L961.504 206.335L974.733 208.078L975.474 208.15H975.262ZM959.81 209.529L960.128 208.223L946.899 206.48L946.581 207.787L959.81 209.529ZM974.098 210.038L960.869 208.296L960.551 209.602L973.781 211.345L974.098 210.038Z" fill="#25B8C9"/>
<path d="M576.368 218.535L595.419 221.513L596.372 221.658L615.422 224.636L616.375 224.781L617.327 222.021L622.407 206.915C623.466 208.15 626.112 208.804 628.757 208.44C632.038 208.005 634.261 206.189 633.732 204.446C633.203 202.703 630.133 201.686 626.958 202.122C624.418 202.485 622.619 203.574 622.09 204.882L616.48 221.731L597.43 218.753L602.51 203.647C603.568 204.882 606.108 205.535 608.86 205.172C612.141 204.736 614.364 202.921 613.834 201.177C613.305 199.434 610.236 198.418 606.955 198.853C604.415 199.216 602.616 200.306 602.087 201.613L596.477 218.462L577.427 215.484L582.507 200.379C583.565 201.613 586.211 202.267 588.857 201.904C592.138 201.468 594.361 199.652 593.831 197.909C593.302 196.166 590.233 195.149 587.058 195.585C584.518 195.948 582.719 197.038 582.189 198.345L576.58 215.194L575.628 217.954L576.58 218.099L576.368 218.535Z" fill="#25B8C9"/>
<path d="M681.357 199.508C680.933 201.541 679.663 202.631 678.287 203.793C678.287 203.793 673.207 206.988 667.282 206.698C667.282 206.698 673.631 206.335 677.547 202.848C677.547 202.848 678.499 201.977 678.711 200.234C677.335 200.524 675.747 200.67 674.161 200.597C674.161 200.597 676.276 200.452 678.817 199.725C678.922 198.055 678.499 195.803 676.488 192.898L663.789 204.083C662.308 205.318 659.344 205.899 656.275 205.39C652.359 204.737 649.713 202.558 650.454 200.452C651.195 198.345 655.005 197.183 658.921 197.837C662.202 198.345 664.53 200.016 664.848 201.759L687.918 181.423L688.871 181.931L687.283 183.311C687.389 184.038 687.707 186.216 688.342 189.993C688.977 194.496 687.283 195.949 685.167 197.692C685.167 197.692 683.685 198.636 681.357 199.435V199.508ZM681.462 198.709C682.521 198.2 683.473 197.619 684.426 196.82C684.426 196.82 687.918 193.407 683.368 186.87L680.404 189.485C680.51 190.211 680.827 192.39 681.462 196.167C681.568 197.183 681.674 197.982 681.568 198.709H681.462Z" fill="#25B8C9"/>
</svg>
