<svg width="1440" height="1024" viewBox="0 0 1440 1024" fill="none" xmlns="http://www.w3.org/2000/svg">
<path class="ond-even" d="M219 114.116C258.944 87.4589 280.633 87.1312 318 114.116C358.687 140.866 381.032 141.238 420 114.116" stroke="#25B8C9" stroke-width="5"/>
<path class="ond-even" d="M419 114.731C458.944 88.0745 480.633 87.7469 518 114.731C558.687 141.482 581.032 141.854 620 114.731" stroke="#25B8C9" stroke-width="5"/>
<path class="ond-odd" d="M234 166.116C273.944 139.459 295.633 139.131 333 166.116C373.687 192.866 396.032 193.238 435 166.116" stroke="#25B8C9" stroke-width="5"/>
<path cloddass="ond-odd" d="M434 166.731C473.944 140.075 495.633 139.747 533 166.731C573.687 193.482 596.032 193.854 635 166.731" stroke="#25B8C9" stroke-width="5"/>
<path class="ond-even" d="M242 219.116C281.944 192.459 303.633 192.131 341 219.116C381.687 245.866 404.032 246.238 443 219.116" stroke="#25B8C9" stroke-width="5"/>
<path class="ond-even" d="M442 219.731C481.944 193.075 503.633 192.747 541 219.731C581.687 246.482 604.032 246.854 643 219.731" stroke="#25B8C9" stroke-width="5"/>
<path class="ond-odd" d="M251 273.116C290.944 246.459 312.633 246.131 350 273.116C390.687 299.866 413.032 300.238 452 273.116" stroke="#25B8C9" stroke-width="5"/>
<path class="ond-odd" d="M451 273.731C490.944 247.075 512.633 246.747 550 273.731C590.687 300.482 613.032 300.854 652 273.731" stroke="#25B8C9" stroke-width="5"/>
<path class="ond-even" d="M837 107.731C876.944 81.0745 898.633 80.7469 936 107.731C976.687 134.482 999.032 134.854 1038 107.731" stroke="#25B8C9" stroke-width="5"/>
<path class="ond-even" d="M660 212.116C699.944 185.459 721.633 185.131 759 212.116C799.687 238.866 822.032 239.238 861 212.116" stroke="#25B8C9" stroke-width="5"/>
<path class="ond-even" d="M860 212.731C899.944 186.075 921.633 185.747 959 212.731C999.687 239.482 1022.03 239.854 1061 212.731" stroke="#25B8C9" stroke-width="5"/>
<path class="ond-odd" d="M669 266.116C708.944 239.459 730.633 239.131 768 266.116C808.687 292.866 831.032 293.238 870 266.116" stroke="#25B8C9" stroke-width="5"/>
<path class="ond-odd" d="M869 266.731C908.944 240.075 930.633 239.747 968 266.731C1008.69 293.482 1031.03 293.854 1070 266.731" stroke="#25B8C9" stroke-width="5"/>
<path class="ond-even" d="M219 114.116C258.944 87.4589 280.633 87.1312 318 114.116C358.687 140.866 381.032 141.238 420 114.116" stroke="#25B8C9" stroke-width="5"/>
<path class="ond-even" d="M419 114.731C458.944 88.0745 480.633 87.7469 518 114.731C558.687 141.482 581.032 141.854 620 114.731" stroke="#25B8C9" stroke-width="5"/>
<path class="ond-odd" d="M234 166.116C273.944 139.459 295.633 139.131 333 166.116C373.687 192.866 396.032 193.238 435 166.116" stroke="#25B8C9" stroke-width="5"/>
<path class="ond-odd" d="M434 166.731C473.944 140.075 495.633 139.747 533 166.731C573.687 193.482 596.032 193.854 635 166.731" stroke="#25B8C9" stroke-width="5"/>
<path class="ond-even" d="M242 219.116C281.944 192.459 303.633 192.131 341 219.116C381.687 245.866 404.032 246.238 443 219.116" stroke="#25B8C9" stroke-width="5"/>
<path class="ond-even" d="M442 219.731C481.944 193.075 503.633 192.747 541 219.731C581.687 246.482 604.032 246.854 643 219.731" stroke="#25B8C9" stroke-width="5"/>
<path class="ond-odd" d="M251 273.116C290.944 246.459 312.633 246.131 350 273.116C390.687 299.866 413.032 300.238 452 273.116" stroke="#25B8C9" stroke-width="5"/>
<path class="ond-odd" d="M451 273.731C490.944 247.075 512.633 246.747 550 273.731C590.687 300.482 613.032 300.854 652 273.731" stroke="#25B8C9" stroke-width="5"/>
<path class="ond-even" d="M637 107.116C676.944 80.4589 698.633 80.1312 736 107.116C776.687 133.866 799.032 134.238 838 107.116" stroke="#25B8C9" stroke-width="5"/>
<path class="ond-odd" d="M652 159.116C691.944 132.459 713.633 132.131 751 159.116C791.687 185.866 814.032 186.238 853 159.116" stroke="#25B8C9" stroke-width="5"/>
<path class="ond-even" d="M660 212.116C699.944 185.459 721.633 185.131 759 212.116C799.687 238.866 822.032 239.238 861 212.116" stroke="#25B8C9" stroke-width="5"/>
<path class="ond-even" d="M272 326.116C311.944 299.459 333.633 299.131 371 326.116C411.687 352.866 434.032 353.238 473 326.116" stroke="#25B8C9" stroke-width="5"/>
<path class="ond-odd" d="M487 378.731C526.944 352.075 548.633 351.747 586 378.731C626.687 405.482 649.032 405.854 688 378.731" stroke="#25B8C9" stroke-width="5"/>
<path class="ond-odd" d="M495 431.731C534.944 405.075 556.633 404.747 594 431.731C634.687 458.482 657.032 458.854 696 431.731" stroke="#25B8C9" stroke-width="5"/>
<path class="ond-even" d="M504 485.731C543.944 459.075 565.633 458.747 603 485.731C643.687 512.482 666.032 512.854 705 485.731" stroke="#25B8C9" stroke-width="5"/>
<path class="ond-odd" d="M890 319.731C929.944 293.075 951.633 292.747 989 319.731C1029.69 346.482 1052.03 346.854 1091 319.731" stroke="#25B8C9" stroke-width="5"/>
<path class="ond-even" d="M905 371.731C944.944 345.075 966.633 344.747 1004 371.731C1044.69 398.482 1067.03 398.854 1106 371.731" stroke="#25B8C9" stroke-width="5"/>
<path class="ond-odd" d="M913 424.731C952.944 398.075 974.633 397.747 1012 424.731C1052.69 451.482 1075.03 451.854 1114 424.731" stroke="#25B8C9" stroke-width="5"/>
<path class="ond-even" d="M722 478.116C761.944 451.459 783.633 451.131 821 478.116C861.687 504.866 884.032 505.238 923 478.116" stroke="#25B8C9" stroke-width="5"/>
<path class="ond-even" d="M922 478.731C961.944 452.075 983.633 451.747 1021 478.731C1061.69 505.482 1084.03 505.854 1123 478.731" stroke="#25B8C9" stroke-width="5"/>
<path class="ond-odd" d="M272 326.116C311.944 299.459 333.633 299.131 371 326.116C411.687 352.866 434.032 353.238 473 326.116" stroke="#25B8C9" stroke-width="5"/>
<path class="ond-odd" d="M472 326.731C511.944 300.075 533.633 299.747 571 326.731C611.687 353.482 634.032 353.854 673 326.731" stroke="#25B8C9" stroke-width="5"/>
<path class="ond-even" d="M287 378.116C326.944 351.459 348.633 351.131 386 378.116C426.687 404.866 449.032 405.238 488 378.116" stroke="#25B8C9" stroke-width="5"/>
<path class="ond-odd" d="M295 431.116C334.944 404.459 356.633 404.131 394 431.116C434.687 457.866 457.032 458.238 496 431.116" stroke="#25B8C9" stroke-width="5"/>
<path class="ond-even" d="M304 485.116C343.944 458.459 365.633 458.131 403 485.116C443.687 511.866 466.032 512.238 505 485.116" stroke="#25B8C9" stroke-width="5"/>
<path class="ond-odd" d="M690 319.116C729.944 292.459 751.633 292.131 789 319.116C829.687 345.866 852.032 346.238 891 319.116" stroke="#25B8C9" stroke-width="5"/>
<path class="ond-even" d="M705 371.116C744.944 344.459 766.633 344.131 804 371.116C844.687 397.866 867.032 398.238 906 371.116" stroke="#25B8C9" stroke-width="5"/>
<path class="ond-odd" d="M713 424.116C752.944 397.459 774.633 397.131 812 424.116C852.687 450.866 875.032 451.238 914 424.116" stroke="#25B8C9" stroke-width="5"/>
<path class="ond-odd" d="M317 546.116C356.944 519.459 378.633 519.131 416 546.116C456.687 572.866 479.032 573.238 518 546.116" stroke="#25B8C9" stroke-width="5"/>
<path class="ond-even" d="M332 598.116C371.944 571.459 393.633 571.131 431 598.116C471.687 624.866 494.032 625.238 533 598.116" stroke="#25B8C9" stroke-width="5"/>
<path class="ond-odd" d="M340 651.116C379.944 624.459 401.633 624.131 439 651.116C479.687 677.866 502.032 678.238 541 651.116" stroke="#25B8C9" stroke-width="5"/>
<path class="ond-even" d="M349 705.116C388.944 678.459 410.633 678.131 448 705.116C488.687 731.866 511.032 732.238 550 705.116" stroke="#25B8C9" stroke-width="5"/>
<path class="ond-odd" d="M735 539.116C774.944 512.459 796.633 512.131 834 539.116C874.687 565.866 897.032 566.238 936 539.116" stroke="#25B8C9" stroke-width="5"/>
<path class="ond-even" d="M750 591.116C789.944 564.459 811.633 564.131 849 591.116C889.687 617.866 912.032 618.238 951 591.116" stroke="#25B8C9" stroke-width="5"/>
<path class="ond-even" d="M950 591.731C989.944 565.075 1011.63 564.747 1049 591.731C1089.69 618.482 1112.03 618.854 1151 591.731" stroke="#25B8C9" stroke-width="5"/>
<path class="ond-odd" d="M758 644.116C797.944 617.459 819.633 617.131 857 644.116C897.687 670.866 920.032 671.238 959 644.116" stroke="#25B8C9" stroke-width="5"/>
<path class="ond-odd" d="M958 644.731C997.944 618.075 1019.63 617.747 1057 644.731C1097.69 671.482 1120.03 671.854 1159 644.731" stroke="#25B8C9" stroke-width="5"/>
<path class="ond-even" d="M767 698.116C806.944 671.459 828.633 671.131 866 698.116C906.687 724.866 929.032 725.238 968 698.116" stroke="#25B8C9" stroke-width="5"/>
<path class="ond-even" d="M967 698.731C1006.94 672.075 1028.63 671.747 1066 698.731C1106.69 725.482 1129.03 725.854 1168 698.731" stroke="#25B8C9" stroke-width="5"/>
<path class="ond-odd" d="M517 546.731C556.944 520.075 578.633 519.747 616 546.731C656.687 573.482 679.032 573.854 718 546.731" stroke="#25B8C9" stroke-width="5"/>
<path class="ond-even" d="M532 598.731C571.944 572.075 593.633 571.747 631 598.731C671.687 625.482 694.032 625.854 733 598.731" stroke="#25B8C9" stroke-width="5"/>
<path class="ond-odd" d="M540 651.731C579.944 625.075 601.633 624.747 639 651.731C679.687 678.482 702.032 678.854 741 651.731" stroke="#25B8C9" stroke-width="5"/>
<path class="ond-even" d="M549 705.731C588.944 679.075 610.633 678.747 648 705.731C688.687 732.482 711.032 732.854 750 705.731" stroke="#25B8C9" stroke-width="5"/>
<path class="ond-odd" d="M935 539.731C974.944 513.075 996.633 512.747 1034 539.731C1074.69 566.482 1097.03 566.854 1136 539.731" stroke="#25B8C9" stroke-width="5"/>
<path class="ond-odd" d="M370 758.116C409.944 731.459 431.633 731.131 469 758.116C509.687 784.866 532.032 785.238 571 758.116" stroke="#25B8C9" stroke-width="5"/>
<path class="ond-even" d="M385 810.116C424.944 783.459 446.633 783.131 484 810.116C524.687 836.866 547.032 837.238 586 810.116" stroke="#25B8C9" stroke-width="5"/>
<path class="ond-odd" d="M393 863.116C432.944 836.459 454.633 836.131 492 863.116C532.687 889.866 555.032 890.238 594 863.116" stroke="#25B8C9" stroke-width="5"/>
<path class="ond-even" d="M402 917.116C441.944 890.459 463.633 890.131 501 917.116C541.687 943.866 564.032 944.238 603 917.116" stroke="#25B8C9" stroke-width="5"/>
<path class="ond-odd" d="M788 751.116C827.944 724.459 849.633 724.131 887 751.116C927.687 777.866 950.032 778.238 989 751.116" stroke="#25B8C9" stroke-width="5"/>
<path class="ond-even" d="M803 803.116C842.944 776.459 864.633 776.131 902 803.116C942.687 829.866 965.032 830.238 1004 803.116" stroke="#25B8C9" stroke-width="5"/>
<path class="ond-even" d="M1003 803.731C1042.94 777.075 1064.63 776.747 1102 803.731C1142.69 830.482 1165.03 830.854 1204 803.731" stroke="#25B8C9" stroke-width="5"/>
<path class="ond-odd" d="M811 856.116C850.944 829.459 872.633 829.131 910 856.116C950.687 882.866 973.032 883.238 1012 856.116" stroke="#25B8C9" stroke-width="5"/>
<path class="ond-odd" d="M1011 856.731C1050.94 830.075 1072.63 829.747 1110 856.731C1150.69 883.482 1173.03 883.854 1212 856.731" stroke="#25B8C9" stroke-width="5"/>
<path class="ond-even" d="M820 910.116C859.944 883.459 881.633 883.131 919 910.116C959.687 936.866 982.032 937.238 1021 910.116" stroke="#25B8C9" stroke-width="5"/>
<path class="ond-even" d="M1020 910.731C1059.94 884.075 1081.63 883.747 1119 910.731C1159.69 937.482 1182.03 937.854 1221 910.731" stroke="#25B8C9" stroke-width="5"/>
<path class="ond-odd" d="M570 758.731C609.944 732.075 631.633 731.747 669 758.731C709.687 785.482 732.032 785.854 771 758.731" stroke="#25B8C9" stroke-width="5"/>
<path class="ond-even" d="M585 810.731C624.944 784.075 646.633 783.747 684 810.731C724.687 837.482 747.032 837.854 786 810.731" stroke="#25B8C9" stroke-width="5"/>
<path class="ond-odd" d="M593 863.731C632.944 837.075 654.633 836.747 692 863.731C732.687 890.482 755.032 890.854 794 863.731" stroke="#25B8C9" stroke-width="5"/>
<path class="ond-even" d="M602 917.731C641.944 891.075 663.633 890.747 701 917.731C741.687 944.482 764.032 944.854 803 917.731" stroke="#25B8C9" stroke-width="5"/>
<path class="ond-odd" d="M988 751.731C1027.94 725.075 1049.63 724.747 1087 751.731C1127.69 778.482 1150.03 778.854 1189 751.731" stroke="#25B8C9" stroke-width="5"/>
</svg>
