<svg id="eULQaNdhcVB1" xmlns="http://www.w3.org/2000/svg" xmlns:xlink="http://www.w3.org/1999/xlink" viewBox="0 0 1440 1024" shape-rendering="geometricPrecision" text-rendering="geometricPrecision">
<path class="ond-even" id="eULQaNdhcVB2" d="M219,114.116C258.944,87.4589,280.633,87.1312,318,114.116C358.687,140.866,381.032,141.238,420,114.116" fill="none" stroke="rgb(37,184,201)" stroke-width="5"/>
<path class="ond-even" id="eULQaNdhcVB3" d="M419,114.731C458.944,88.0745,480.633,87.7469,518,114.731C558.687,141.482,581.032,141.854,620,114.731" fill="none" stroke="rgb(37,184,201)" stroke-width="5"/>
<path class="ond-odd" id="eULQaNdhcVB4" d="M234,166.116C273.944,139.459,295.633,139.131,333,166.116C373.687,192.866,396.032,193.238,435,166.116" fill="none" stroke="rgb(37,184,201)" stroke-width="5"/>
<path class="ond-odd" id="eULQaNdhcVB5" d="M434,166.731C473.944,140.075,495.633,139.747,533,166.731C573.687,193.482,596.032,193.854,635,166.731" fill="none" stroke="rgb(37,184,201)" stroke-width="5"/>
<path class="ond-even" id="eULQaNdhcVB6" d="M242,219.116C281.944,192.459,303.633,192.131,341,219.116C381.687,245.866,404.032,246.238,443,219.116" fill="none" stroke="rgb(37,184,201)" stroke-width="5"/>
<path class="ond-even" id="eULQaNdhcVB7" d="M442,219.731C481.944,193.075,503.633,192.747,541,219.731C581.687,246.482,604.032,246.854,643,219.731" fill="none" stroke="rgb(37,184,201)" stroke-width="5"/>
<path class="ond-odd" id="eULQaNdhcVB8" d="M251,273.116C290.944,246.459,312.633,246.131,350,273.116C390.687,299.866,413.032,300.238,452,273.116" fill="none" stroke="rgb(37,184,201)" stroke-width="5"/>
<path class="ond-odd" id="eULQaNdhcVB9" d="M451,273.731C490.944,247.075,512.633,246.747,550,273.731C590.687,300.482,613.032,300.854,652,273.731" fill="none" stroke="rgb(37,184,201)" stroke-width="5"/>
<path class="ond-even" id="eULQaNdhcVB10" d="M837,107.731C876.944,81.0745,898.633,80.7469,936,107.731C976.687,134.482,999.032,134.854,1038,107.731" fill="none" stroke="rgb(37,184,201)" stroke-width="5"/>
<path class="ond-even" id="eULQaNdhcVB11" d="M660,212.116C699.944,185.459,721.633,185.131,759,212.116C799.687,238.866,822.032,239.238,861,212.116" fill="none" stroke="rgb(37,184,201)" stroke-width="5"/>
<path class="ond-odd" id="eULQaNdhcVB12" d="M860,212.731C899.944,186.075,921.633,185.747,959,212.731C999.687,239.482,1022.03,239.854,1061,212.731" fill="none" stroke="rgb(37,184,201)" stroke-width="5"/>
<path class="ond-odd" id="eULQaNdhcVB13" d="M669,266.116C708.944,239.459,730.633,239.131,768,266.116C808.687,292.866,831.032,293.238,870,266.116" fill="none" stroke="rgb(37,184,201)" stroke-width="5"/>
<path class="ond-even" id="eULQaNdhcVB14" d="M869,266.731C908.944,240.075,930.633,239.747,968,266.731C1008.69,293.482,1031.03,293.854,1070,266.731" fill="none" stroke="rgb(37,184,201)" stroke-width="5"/>
<path class="ond-even" id="eULQaNdhcVB15" d="M219,114.116C258.944,87.4589,280.633,87.1312,318,114.116C358.687,140.866,381.032,141.238,420,114.116" fill="none" stroke="rgb(37,184,201)" stroke-width="5"/>
<path class="ond-odd" id="eULQaNdhcVB16" d="M419,114.731C458.944,88.0745,480.633,87.7469,518,114.731C558.687,141.482,581.032,141.854,620,114.731" fill="none" stroke="rgb(37,184,201)" stroke-width="5"/>
<path class="ond-odd" id="eULQaNdhcVB17" d="M234,166.116C273.944,139.459,295.633,139.131,333,166.116C373.687,192.866,396.032,193.238,435,166.116" fill="none" stroke="rgb(37,184,201)" stroke-width="5"/>
<path class="ond-even" id="eULQaNdhcVB18" d="M434,166.731C473.944,140.075,495.633,139.747,533,166.731C573.687,193.482,596.032,193.854,635,166.731" fill="none" stroke="rgb(37,184,201)" stroke-width="5"/>
<path class="ond-even" id="eULQaNdhcVB19" d="M242,219.116C281.944,192.459,303.633,192.131,341,219.116C381.687,245.866,404.032,246.238,443,219.116" fill="none" stroke="rgb(37,184,201)" stroke-width="5"/>
<path class="ond-odd" id="eULQaNdhcVB20" d="M442,219.731C481.944,193.075,503.633,192.747,541,219.731C581.687,246.482,604.032,246.854,643,219.731" fill="none" stroke="rgb(37,184,201)" stroke-width="5"/>
<path class="ond-odd" id="eULQaNdhcVB21" d="M251,273.116C290.944,246.459,312.633,246.131,350,273.116C390.687,299.866,413.032,300.238,452,273.116" fill="none" stroke="rgb(37,184,201)" stroke-width="5"/>
<path class="ond-even" id="eULQaNdhcVB22" d="M451,273.731C490.944,247.075,512.633,246.747,550,273.731C590.687,300.482,613.032,300.854,652,273.731" fill="none" stroke="rgb(37,184,201)" stroke-width="5"/>
<path class="ond-even" id="eULQaNdhcVB23" d="M637,107.116C676.944,80.4589,698.633,80.1312,736,107.116C776.687,133.866,799.032,134.238,838,107.116" fill="none" stroke="rgb(37,184,201)" stroke-width="5"/>
<path class="ond-odd" id="eULQaNdhcVB24" d="M652,159.116C691.944,132.459,713.633,132.131,751,159.116C791.687,185.866,814.032,186.238,853,159.116" fill="none" stroke="rgb(37,184,201)" stroke-width="5"/>
<path class="ond-odd" id="eULQaNdhcVB25" d="M660,212.116C699.944,185.459,721.633,185.131,759,212.116C799.687,238.866,822.032,239.238,861,212.116" fill="none" stroke="rgb(37,184,201)" stroke-width="5"/>
<path class="ond-even" id="eULQaNdhcVB26" d="M272,326.116C311.944,299.459,333.633,299.131,371,326.116C411.687,352.866,434.032,353.238,473,326.116" fill="none" stroke="rgb(37,184,201)" stroke-width="5"/>
<path class="ond-even" id="eULQaNdhcVB27" d="M487,378.731C526.944,352.075,548.633,351.747,586,378.731C626.687,405.482,649.032,405.854,688,378.731" fill="none" stroke="rgb(37,184,201)" stroke-width="5"/>
<path class="ond-odd" id="eULQaNdhcVB28" d="M495,431.731C534.944,405.075,556.633,404.747,594,431.731C634.687,458.482,657.032,458.854,696,431.731" fill="none" stroke="rgb(37,184,201)" stroke-width="5"/>
<path class="ond-odd" id="eULQaNdhcVB29" d="M504,485.731C543.944,459.075,565.633,458.747,603,485.731C643.687,512.482,666.032,512.854,705,485.731" fill="none" stroke="rgb(37,184,201)" stroke-width="5"/>
<path class="ond-even" id="eULQaNdhcVB30" d="M890,319.731C929.944,293.075,951.633,292.747,989,319.731C1029.69,346.482,1052.03,346.854,1091,319.731" fill="none" stroke="rgb(37,184,201)" stroke-width="5"/>
<path class="ond-even" id="eULQaNdhcVB31" d="M905,371.731C944.944,345.075,966.633,344.747,1004,371.731C1044.69,398.482,1067.03,398.854,1106,371.731" fill="none" stroke="rgb(37,184,201)" stroke-width="5"/>
<path class="ond-odd" id="eULQaNdhcVB32" d="M913,424.731C952.944,398.075,974.633,397.747,1012,424.731C1052.69,451.482,1075.03,451.854,1114,424.731" fill="none" stroke="rgb(37,184,201)" stroke-width="5"/>
<path class="ond-odd" id="eULQaNdhcVB33" d="M722,478.116C761.944,451.459,783.633,451.131,821,478.116C861.687,504.866,884.032,505.238,923,478.116" fill="none" stroke="rgb(37,184,201)" stroke-width="5"/>
<path class="ond-even" id="eULQaNdhcVB34" d="M922,478.731C961.944,452.075,983.633,451.747,1021,478.731C1061.69,505.482,1084.03,505.854,1123,478.731" fill="none" stroke="rgb(37,184,201)" stroke-width="5"/>
<path class="ond-even" id="eULQaNdhcVB35" d="M272,326.116C311.944,299.459,333.633,299.131,371,326.116C411.687,352.866,434.032,353.238,473,326.116" fill="none" stroke="rgb(37,184,201)" stroke-width="5"/>
<path class="ond-odd" id="eULQaNdhcVB36" d="M472,326.731C511.944,300.075,533.633,299.747,571,326.731C611.687,353.482,634.032,353.854,673,326.731" fill="none" stroke="rgb(37,184,201)" stroke-width="5"/>
<path class="ond-odd" id="eULQaNdhcVB37" d="M287,378.116C326.944,351.459,348.633,351.131,386,378.116C426.687,404.866,449.032,405.238,488,378.116" fill="none" stroke="rgb(37,184,201)" stroke-width="5"/>
<path class="ond-even" id="eULQaNdhcVB38" d="M295,431.116C334.944,404.459,356.633,404.131,394,431.116C434.687,457.866,457.032,458.238,496,431.116" fill="none" stroke="rgb(37,184,201)" stroke-width="5"/>
<path class="ond-even" id="eULQaNdhcVB39" d="M304,485.116C343.944,458.459,365.633,458.131,403,485.116C443.687,511.866,466.032,512.238,505,485.116" fill="none" stroke="rgb(37,184,201)" stroke-width="5"/>
<path class="ond-odd" id="eULQaNdhcVB40" d="M690,319.116C729.944,292.459,751.633,292.131,789,319.116C829.687,345.866,852.032,346.238,891,319.116" fill="none" stroke="rgb(37,184,201)" stroke-width="5"/>
<path class="ond-odd" id="eULQaNdhcVB41" d="M705,371.116C744.944,344.459,766.633,344.131,804,371.116C844.687,397.866,867.032,398.238,906,371.116" fill="none" stroke="rgb(37,184,201)" stroke-width="5"/>
<path class="ond-even" id="eULQaNdhcVB42" d="M713,424.116C752.944,397.459,774.633,397.131,812,424.116C852.687,450.866,875.032,451.238,914,424.116" fill="none" stroke="rgb(37,184,201)" stroke-width="5"/>
<path class="ond-even" id="eULQaNdhcVB43" d="M317,546.116C356.944,519.459,378.633,519.131,416,546.116C456.687,572.866,479.032,573.238,518,546.116" fill="none" stroke="rgb(37,184,201)" stroke-width="5"/>
<path class="ond-odd" id="eULQaNdhcVB44" d="M332,598.116C371.944,571.459,393.633,571.131,431,598.116C471.687,624.866,494.032,625.238,533,598.116" fill="none" stroke="rgb(37,184,201)" stroke-width="5"/>
<path class="ond-odd" id="eULQaNdhcVB45" d="M340,651.116C379.944,624.459,401.633,624.131,439,651.116C479.687,677.866,502.032,678.238,541,651.116" fill="none" stroke="rgb(37,184,201)" stroke-width="5"/>
<path class="ond-even" id="eULQaNdhcVB46" d="M349,705.116C388.944,678.459,410.633,678.131,448,705.116C488.687,731.866,511.032,732.238,550,705.116" fill="none" stroke="rgb(37,184,201)" stroke-width="5"/>
<path class="ond-even" id="eULQaNdhcVB47" d="M735,539.116C774.944,512.459,796.633,512.131,834,539.116C874.687,565.866,897.032,566.238,936,539.116" fill="none" stroke="rgb(37,184,201)" stroke-width="5"/>
<path class="ond-odd" id="eULQaNdhcVB48" d="M750,591.116C789.944,564.459,811.633,564.131,849,591.116C889.687,617.866,912.032,618.238,951,591.116" fill="none" stroke="rgb(37,184,201)" stroke-width="5"/>
<path class="ond-odd" id="eULQaNdhcVB49" d="M950,591.731C989.944,565.075,1011.63,564.747,1049,591.731C1089.69,618.482,1112.03,618.854,1151,591.731" fill="none" stroke="rgb(37,184,201)" stroke-width="5"/>
<path class="ond-even" id="eULQaNdhcVB50" d="M758,644.116C797.944,617.459,819.633,617.131,857,644.116C897.687,670.866,920.032,671.238,959,644.116" fill="none" stroke="rgb(37,184,201)" stroke-width="5"/>
<path class="ond-even" id="eULQaNdhcVB51" d="M958,644.731C997.944,618.075,1019.63,617.747,1057,644.731C1097.69,671.482,1120.03,671.854,1159,644.731" fill="none" stroke="rgb(37,184,201)" stroke-width="5"/>
<path class="ond-odd" id="eULQaNdhcVB52" d="M767,698.116C806.944,671.459,828.633,671.131,866,698.116C906.687,724.866,929.032,725.238,968,698.116" fill="none" stroke="rgb(37,184,201)" stroke-width="5"/>
<path class="ond-odd" id="eULQaNdhcVB53" d="M967,698.731C1006.94,672.075,1028.63,671.747,1066,698.731C1106.69,725.482,1129.03,725.854,1168,698.731" fill="none" stroke="rgb(37,184,201)" stroke-width="5"/>
<path class="ond-even" id="eULQaNdhcVB54" d="M517,546.731C556.944,520.075,578.633,519.747,616,546.731C656.687,573.482,679.032,573.854,718,546.731" fill="none" stroke="rgb(37,184,201)" stroke-width="5"/>
<path class="ond-even" id="eULQaNdhcVB55" d="M532,598.731C571.944,572.075,593.633,571.747,631,598.731C671.687,625.482,694.032,625.854,733,598.731" fill="none" stroke="rgb(37,184,201)" stroke-width="5"/>
<path class="ond-odd" id="eULQaNdhcVB56" d="M540,651.731C579.944,625.075,601.633,624.747,639,651.731C679.687,678.482,702.032,678.854,741,651.731" fill="none" stroke="rgb(37,184,201)" stroke-width="5"/>
<path class="ond-odd" id="eULQaNdhcVB57" d="M549,705.731C588.944,679.075,610.633,678.747,648,705.731C688.687,732.482,711.032,732.854,750,705.731" fill="none" stroke="rgb(37,184,201)" stroke-width="5"/>
<path class="ond-even" id="eULQaNdhcVB58" d="M935,539.731C974.944,513.075,996.633,512.747,1034,539.731C1074.69,566.482,1097.03,566.854,1136,539.731" fill="none" stroke="rgb(37,184,201)" stroke-width="5"/>
<path class="ond-even" id="eULQaNdhcVB59" d="M370,758.116C409.944,731.459,431.633,731.131,469,758.116C509.687,784.866,532.032,785.238,571,758.116" fill="none" stroke="rgb(37,184,201)" stroke-width="5"/>
<path class="ond-odd" id="eULQaNdhcVB60" d="M385,810.116C424.944,783.459,446.633,783.131,484,810.116C524.687,836.866,547.032,837.238,586,810.116" fill="none" stroke="rgb(37,184,201)" stroke-width="5"/>
<path class="ond-odd" id="eULQaNdhcVB61" d="M393,863.116C432.944,836.459,454.633,836.131,492,863.116C532.687,889.866,555.032,890.238,594,863.116" fill="none" stroke="rgb(37,184,201)" stroke-width="5"/>
<path class="ond-even" id="eULQaNdhcVB62" d="M402,917.116C441.944,890.459,463.633,890.131,501,917.116C541.687,943.866,564.032,944.238,603,917.116" fill="none" stroke="rgb(37,184,201)" stroke-width="5"/>
<path class="ond-even" id="eULQaNdhcVB63" d="M788,751.116C827.944,724.459,849.633,724.131,887,751.116C927.687,777.866,950.032,778.238,989,751.116" fill="none" stroke="rgb(37,184,201)" stroke-width="5"/>
<path class="ond-odd" id="eULQaNdhcVB64" d="M803,803.116C842.944,776.459,864.633,776.131,902,803.116C942.687,829.866,965.032,830.238,1004,803.116" fill="none" stroke="rgb(37,184,201)" stroke-width="5"/>
<path class="ond-odd" id="eULQaNdhcVB65" d="M1003,803.731C1042.94,777.075,1064.63,776.747,1102,803.731C1142.69,830.482,1165.03,830.854,1204,803.731" fill="none" stroke="rgb(37,184,201)" stroke-width="5"/>
<path class="ond-even" id="eULQaNdhcVB66" d="M811,856.116C850.944,829.459,872.633,829.131,910,856.116C950.687,882.866,973.032,883.238,1012,856.116" fill="none" stroke="rgb(37,184,201)" stroke-width="5"/>
<path class="ond-even" id="eULQaNdhcVB67" d="M1011,856.731C1050.94,830.075,1072.63,829.747,1110,856.731C1150.69,883.482,1173.03,883.854,1212,856.731" fill="none" stroke="rgb(37,184,201)" stroke-width="5"/>
<path class="ond-odd" id="eULQaNdhcVB68" d="M820,910.116C859.944,883.459,881.633,883.131,919,910.116C959.687,936.866,982.032,937.238,1021,910.116" fill="none" stroke="rgb(37,184,201)" stroke-width="5"/>
<path class="ond-odd" id="eULQaNdhcVB69" d="M1020,910.731C1059.94,884.075,1081.63,883.747,1119,910.731C1159.69,937.482,1182.03,937.854,1221,910.731" fill="none" stroke="rgb(37,184,201)" stroke-width="5"/>
<path class="ond-even" id="eULQaNdhcVB70" d="M570,758.731C609.944,732.075,631.633,731.747,669,758.731C709.687,785.482,732.032,785.854,771,758.731" fill="none" stroke="rgb(37,184,201)" stroke-width="5"/>
<path class="ond-even" id="eULQaNdhcVB71" d="M585,810.731C624.944,784.075,646.633,783.747,684,810.731C724.687,837.482,747.032,837.854,786,810.731" fill="none" stroke="rgb(37,184,201)" stroke-width="5"/>
<path class="ond-odd" id="eULQaNdhcVB72" d="M593,863.731C632.944,837.075,654.633,836.747,692,863.731C732.687,890.482,755.032,890.854,794,863.731" fill="none" stroke="rgb(37,184,201)" stroke-width="5"/>
<path class="ond-odd" id="eULQaNdhcVB73" d="M602,917.731C641.944,891.075,663.633,890.747,701,917.731C741.687,944.482,764.032,944.854,803,917.731" transform="matrix(1.051447 0 0 1 -36.141517 0)" fill="none" stroke="rgb(37,184,201)" stroke-width="5"/>
<path class="ond-even" id="eULQaNdhcVB74" d="M988,751.731C1027.94,725.075,1049.63,724.747,1087,751.731C1127.69,778.482,1150.03,778.854,1189,751.731" fill="none" stroke="rgb(37,184,201)" stroke-width="5"/>
<path class="ond-even" id="eULQaNdhcVB75" d="M988,751.731C1027.94,725.075,1049.63,724.747,1087,751.731C1127.69,778.482,1150.03,778.854,1189,751.731" transform="matrix(1 0 0 1 -137.5 -592.615676)" fill="none" stroke="rgb(37,184,201)" stroke-width="5"/><rect id="eULQaNdhcVB76" width="553.165229" height="890.139349" rx="0" ry="0" transform="matrix(1.040967 0 0 0.39725 182.586626 76.202725)" fill="rgb(238,238,238)" stroke="none" stroke-width="0"/><rect id="eULQaNdhcVB77" width="553.165229" height="890.139349" rx="0" ry="0" transform="matrix(1.040967 0 0 0.39725 297.086646 414.357235)" fill="rgb(238,238,238)" stroke="none" stroke-width="0"/><rect id="eULQaNdhcVB78" width="553.165229" height="890.139349" rx="0" ry="0" transform="matrix(1.040967 0 0 0.39725 374.528875 598.161164)" fill="rgb(238,238,238)" stroke="none" stroke-width="0"/><rect id="eULQaNdhcVB79" width="553.165229" height="890.139349" rx="0" ry="0" transform="matrix(0.69884 0 0 0.39725 742.713006 76.202725)" fill="rgb(238,238,238)" stroke="none" stroke-width="0"/><rect id="eULQaNdhcVB80" width="553.165229" height="890.139349" rx="0" ry="0" transform="matrix(0.808598 0 0 0.39725 720 335.196072)" fill="rgb(238,238,238)" stroke="none" stroke-width="0"/><rect id="eULQaNdhcVB81" width="553.165229" height="890.139349" rx="0" ry="0" transform="matrix(0.808598 0 0 0.39725 858.5 598.776886)" fill="rgb(238,238,238)" stroke="none" stroke-width="0"/><script><![CDATA[!function(t,n){"object"==typeof exports&&"undefined"!=typeof module?module.exports=n(require("vue")):"function"==typeof define&&define.amd?define(["vue"],n):((t="undefined"!=typeof globalThis?globalThis:t||self).__SVGATOR_PLAYER__=t.__SVGATOR_PLAYER__||{},t.__SVGATOR_PLAYER__["5c7f360c"]=n())}(this,(function(){"use strict";function t(t,n){var r=Object.keys(t);if(Object.getOwnPropertySymbols){var e=Object.getOwnPropertySymbols(t);n&&(e=e.filter((function(n){return Object.getOwnPropertyDescriptor(t,n).enumerable}))),r.push.apply(r,e)}return r}function n(n){for(var r=1;r<arguments.length;r++){var e=null!=arguments[r]?arguments[r]:{};r%2?t(Object(e),!0).forEach((function(t){u(n,t,e[t])})):Object.getOwnPropertyDescriptors?Object.defineProperties(n,Object.getOwnPropertyDescriptors(e)):t(Object(e)).forEach((function(t){Object.defineProperty(n,t,Object.getOwnPropertyDescriptor(e,t))}))}return n}function r(t){return(r="function"==typeof Symbol&&"symbol"==typeof Symbol.iterator?function(t){return typeof t}:function(t){return t&&"function"==typeof Symbol&&t.constructor===Symbol&&t!==Symbol.prototype?"symbol":typeof t})(t)}function e(t,n){if(!(t instanceof n))throw new TypeError("Cannot call a class as a function")}function i(t,n){for(var r=0;r<n.length;r++){var e=n[r];e.enumerable=e.enumerable||!1,e.configurable=!0,"value"in e&&(e.writable=!0),Object.defineProperty(t,e.key,e)}}function o(t,n,r){return n&&i(t.prototype,n),r&&i(t,r),t}function u(t,n,r){return n in t?Object.defineProperty(t,n,{value:r,enumerable:!0,configurable:!0,writable:!0}):t[n]=r,t}function a(t){return(a=Object.setPrototypeOf?Object.getPrototypeOf:function(t){return t.__proto__||Object.getPrototypeOf(t)})(t)}function l(t,n){return(l=Object.setPrototypeOf||function(t,n){return t.__proto__=n,t})(t,n)}function f(t,n){if(n&&("object"==typeof n||"function"==typeof n))return n;if(void 0!==n)throw new TypeError("Derived constructors may only return object or undefined");return function(t){if(void 0===t)throw new ReferenceError("this hasn't been initialised - super() hasn't been called");return t}(t)}function s(t){var n=function(){if("undefined"==typeof Reflect||!Reflect.construct)return!1;if(Reflect.construct.sham)return!1;if("function"==typeof Proxy)return!0;try{return Boolean.prototype.valueOf.call(Reflect.construct(Boolean,[],(function(){}))),!0}catch(t){return!1}}();return function(){var r,e=a(t);if(n){var i=a(this).constructor;r=Reflect.construct(e,arguments,i)}else r=e.apply(this,arguments);return f(this,r)}}function c(t,n,r){return(c="undefined"!=typeof Reflect&&Reflect.get?Reflect.get:function(t,n,r){var e=function(t,n){for(;!Object.prototype.hasOwnProperty.call(t,n)&&null!==(t=a(t)););return t}(t,n);if(e){var i=Object.getOwnPropertyDescriptor(e,n);return i.get?i.get.call(r):i.value}})(t,n,r||t)}var h=v(Math.pow(10,-6));function v(t){var n=arguments.length>1&&void 0!==arguments[1]?arguments[1]:6;if(Number.isInteger(t))return t;var r=Math.pow(10,n);return Math.round((+t+Number.EPSILON)*r)/r}function y(t,n){var r=arguments.length>2&&void 0!==arguments[2]?arguments[2]:h;return Math.abs(t-n)<r}var g=Math.PI/180;function d(t){return t}function p(t,n,r){var e=1-r;return 3*r*e*(t*e+n*r)+r*r*r}function m(){var t=arguments.length>0&&void 0!==arguments[0]?arguments[0]:0,n=arguments.length>1&&void 0!==arguments[1]?arguments[1]:0,r=arguments.length>2&&void 0!==arguments[2]?arguments[2]:1,e=arguments.length>3&&void 0!==arguments[3]?arguments[3]:1;return t<0||t>1||r<0||r>1?null:y(t,n)&&y(r,e)?d:function(i){if(i<=0)return t>0?i*n/t:0===n&&r>0?i*e/r:0;if(i>=1)return r<1?1+(i-1)*(e-1)/(r-1):1===r&&t<1?1+(i-1)*(n-1)/(t-1):1;for(var o,u=0,a=1;u<a;){var l=p(t,r,o=(u+a)/2);if(y(i,l))break;l<i?u=o:a=o}return p(n,e,o)}}function b(){return 1}function w(t){return 1===t?1:0}function x(){var t=arguments.length>0&&void 0!==arguments[0]?arguments[0]:1,n=arguments.length>1&&void 0!==arguments[1]?arguments[1]:0;if(1===t){if(0===n)return w;if(1===n)return b}var r=1/t;return function(t){return t>=1?1:(t+=n*r)-t%r}}var A="undefined"!=typeof window&&/(Mac|iPhone|iPod|iPad)/i.test(window.navigator.platform);Object.freeze({Meta:A?"Control":"Meta",Ctrl:"Control",Down:"ArrowDown",Up:"ArrowUp",Left:"ArrowLeft",Right:"ArrowRight",Esc:"Escape",Delete:"Backspace",Space:"Space"});var k=Math.sin,_=Math.cos,S=Math.acos,O=Math.asin,j=Math.tan,P=Math.atan2,M=Math.PI/180,E=180/Math.PI,R=Math.sqrt,I=function(){function t(){var n=arguments.length>0&&void 0!==arguments[0]?arguments[0]:1,r=arguments.length>1&&void 0!==arguments[1]?arguments[1]:0,i=arguments.length>2&&void 0!==arguments[2]?arguments[2]:0,o=arguments.length>3&&void 0!==arguments[3]?arguments[3]:1,u=arguments.length>4&&void 0!==arguments[4]?arguments[4]:0,a=arguments.length>5&&void 0!==arguments[5]?arguments[5]:0;e(this,t),this.m=[n,r,i,o,u,a],this.i=null,this.w=null,this.s=null}return o(t,[{key:"determinant",get:function(){var t=this.m;return t[0]*t[3]-t[1]*t[2]}},{key:"isIdentity",get:function(){if(null===this.i){var t=this.m;this.i=1===t[0]&&0===t[1]&&0===t[2]&&1===t[3]&&0===t[4]&&0===t[5]}return this.i}},{key:"point",value:function(t,n){var r=this.m;return{x:r[0]*t+r[2]*n+r[4],y:r[1]*t+r[3]*n+r[5]}}},{key:"translateSelf",value:function(){var t=arguments.length>0&&void 0!==arguments[0]?arguments[0]:0,n=arguments.length>1&&void 0!==arguments[1]?arguments[1]:0;if(!t&&!n)return this;var r=this.m;return r[4]+=r[0]*t+r[2]*n,r[5]+=r[1]*t+r[3]*n,this.w=this.s=this.i=null,this}},{key:"rotateSelf",value:function(){var t=arguments.length>0&&void 0!==arguments[0]?arguments[0]:0;if(t%=360){var n=k(t*=M),r=_(t),e=this.m,i=e[0],o=e[1];e[0]=i*r+e[2]*n,e[1]=o*r+e[3]*n,e[2]=e[2]*r-i*n,e[3]=e[3]*r-o*n,this.w=this.s=this.i=null}return this}},{key:"scaleSelf",value:function(){var t=arguments.length>0&&void 0!==arguments[0]?arguments[0]:1,n=arguments.length>1&&void 0!==arguments[1]?arguments[1]:1;if(1!==t||1!==n){var r=this.m;r[0]*=t,r[1]*=t,r[2]*=n,r[3]*=n,this.w=this.s=this.i=null}return this}},{key:"skewSelf",value:function(t,n){if(n%=360,(t%=360)||n){var r=this.m,e=r[0],i=r[1],o=r[2],u=r[3];t&&(t=j(t*M),r[2]+=e*t,r[3]+=i*t),n&&(n=j(n*M),r[0]+=o*n,r[1]+=u*n),this.w=this.s=this.i=null}return this}},{key:"resetSelf",value:function(){var t=arguments.length>0&&void 0!==arguments[0]?arguments[0]:1,n=arguments.length>1&&void 0!==arguments[1]?arguments[1]:0,r=arguments.length>2&&void 0!==arguments[2]?arguments[2]:0,e=arguments.length>3&&void 0!==arguments[3]?arguments[3]:1,i=arguments.length>4&&void 0!==arguments[4]?arguments[4]:0,o=arguments.length>5&&void 0!==arguments[5]?arguments[5]:0,u=this.m;return u[0]=t,u[1]=n,u[2]=r,u[3]=e,u[4]=i,u[5]=o,this.w=this.s=this.i=null,this}},{key:"recomposeSelf",value:function(){var t=arguments.length>0&&void 0!==arguments[0]?arguments[0]:null,n=arguments.length>1&&void 0!==arguments[1]?arguments[1]:null,r=arguments.length>2&&void 0!==arguments[2]?arguments[2]:null,e=arguments.length>3&&void 0!==arguments[3]?arguments[3]:null,i=arguments.length>4&&void 0!==arguments[4]?arguments[4]:null;return this.isIdentity||this.resetSelf(),t&&(t.x||t.y)&&this.translateSelf(t.x,t.y),n&&this.rotateSelf(n),r&&(r.x&&this.skewSelf(r.x,0),r.y&&this.skewSelf(0,r.y)),!e||1===e.x&&1===e.y||this.scaleSelf(e.x,e.y),i&&(i.x||i.y)&&this.translateSelf(i.x,i.y),this}},{key:"decompose",value:function(){var t=arguments.length>0&&void 0!==arguments[0]?arguments[0]:0,n=arguments.length>1&&void 0!==arguments[1]?arguments[1]:0,r=this.m,e=r[0]*r[0]+r[1]*r[1],i=[[r[0],r[1]],[r[2],r[3]]],o=R(e);if(0===o)return{origin:{x:v(r[4]),y:v(r[5])},translate:{x:v(t),y:v(n)},scale:{x:0,y:0},skew:{x:0,y:0},rotate:0};i[0][0]/=o,i[0][1]/=o;var u=r[0]*r[3]-r[1]*r[2]<0;u&&(o=-o);var a=i[0][0]*i[1][0]+i[0][1]*i[1][1];i[1][0]-=i[0][0]*a,i[1][1]-=i[0][1]*a;var l=R(i[1][0]*i[1][0]+i[1][1]*i[1][1]);if(0===l)return{origin:{x:v(r[4]),y:v(r[5])},translate:{x:v(t),y:v(n)},scale:{x:v(o),y:0},skew:{x:0,y:0},rotate:0};i[1][0]/=l,i[1][1]/=l,a/=l;var f=0;return i[1][1]<0?(f=S(i[1][1])*E,i[0][1]<0&&(f=360-f)):f=O(i[0][1])*E,u&&(f=-f),a=P(a,R(i[0][0]*i[0][0]+i[0][1]*i[0][1]))*E,u&&(a=-a),{origin:{x:v(r[4]),y:v(r[5])},translate:{x:v(t),y:v(n)},scale:{x:v(o),y:v(l)},skew:{x:v(a),y:0},rotate:v(f)}}},{key:"toString",value:function(){var t=arguments.length>0&&void 0!==arguments[0]?arguments[0]:" ";return null===this.s&&(this.s="matrix("+this.m.map((function(t){return v(t)})).join(t)+")"),this.s}}]),t}();function N(t,n,r){return t>=.5?r:n}function B(t,n,r){return 0===t||n===r?n:t*(r-n)+n}function F(t,n,r){var e=B(t,n,r);return e<=0?0:e}function T(t,n,r){var e=B(t,n,r);return e<=0?0:e>=1?1:e}function q(t,n,r){return 0===t?n:1===t?r:{x:B(t,n.x,r.x),y:B(t,n.y,r.y)}}function L(t,n,r){var e=function(t,n,r){return Math.round(B(t,n,r))}(t,n,r);return e<=0?0:e>=255?255:e}function C(t,n,r){return 0===t?n:1===t?r:{r:L(t,n.r,r.r),g:L(t,n.g,r.g),b:L(t,n.b,r.b),a:B(t,null==n.a?1:n.a,null==r.a?1:r.a)}}function D(t,n){for(var r=[],e=0;e<t;e++)r.push(n);return r}function z(t,n){if(--n<=0)return t;var r=(t=Object.assign([],t)).length;do{for(var e=0;e<r;e++)t.push(t[e])}while(--n>0);return t}var V,G=function(){function t(n){e(this,t),this.list=n,this.length=n.length}return o(t,[{key:"setAttribute",value:function(t,n){for(var r=this.list,e=0;e<this.length;e++)r[e].setAttribute(t,n)}},{key:"removeAttribute",value:function(t){for(var n=this.list,r=0;r<this.length;r++)n[r].removeAttribute(t)}},{key:"style",value:function(t,n){for(var r=this.list,e=0;e<this.length;e++)r[e].style[t]=n}}]),t}(),Y=/-./g,U=function(t,n){return n.toUpperCase()};function $(t){return"function"==typeof t?t:N}function Q(t){return t?"function"==typeof t?t:Array.isArray(t)?function(t){var n=arguments.length>1&&void 0!==arguments[1]?arguments[1]:d;if(!Array.isArray(t))return n;switch(t.length){case 1:return x(t[0])||n;case 2:return x(t[0],t[1])||n;case 4:return m(t[0],t[1],t[2],t[3])||n}return n}(t,null):function(t,n){var r=arguments.length>2&&void 0!==arguments[2]?arguments[2]:d;switch(t){case"linear":return d;case"steps":return x(n.steps||1,n.jump||0)||r;case"bezier":case"cubic-bezier":return m(n.x1||0,n.y1||0,n.x2||0,n.y2||0)||r}return r}(t.type,t.value,null):null}function H(t,n,r){var e=arguments.length>3&&void 0!==arguments[3]&&arguments[3],i=n.length-1;if(t<=n[0].t)return e?[0,0,n[0].v]:n[0].v;if(t>=n[i].t)return e?[i,1,n[i].v]:n[i].v;var o,u=n[0],a=null;for(o=1;o<=i;o++){if(!(t>n[o].t)){a=n[o];break}u=n[o]}return null==a?e?[i,1,n[i].v]:n[i].v:u.t===a.t?e?[o,1,a.v]:a.v:(t=(t-u.t)/(a.t-u.t),u.e&&(t=u.e(t)),e?[o,t,r(t,u.v,a.v)]:r(t,u.v,a.v))}function J(t,n){var r=arguments.length>2&&void 0!==arguments[2]?arguments[2]:null;return t&&t.length?"function"!=typeof n?null:("function"!=typeof r&&(r=null),function(e){var i=H(e,t,n);return null!=i&&r&&(i=r(i)),i}):null}function Z(t,n){return t.t-n.t}function K(t,n,e,i,o){var u,a="@"===e[0],l="#"===e[0],f=V[e],s=N;switch(a?(u=e.substr(1),e=u.replace(Y,U)):l&&(e=e.substr(1)),r(f)){case"function":if(s=f(i,o,H,Q,e,a,n,t),l)return s;break;case"string":s=J(i,$(f));break;case"object":if((s=J(i,$(f.i),f.f))&&"function"==typeof f.u)return f.u(n,s,e,a,t)}return s?function(t,n,r){if(arguments.length>3&&void 0!==arguments[3]&&arguments[3])return t instanceof G?function(e){return t.style(n,r(e))}:function(e){return t.style[n]=r(e)};if(Array.isArray(n)){var e=n.length;return function(i){var o=r(i);if(null==o)for(var u=0;u<e;u++)t[u].removeAttribute(n);else for(var a=0;a<e;a++)t[a].setAttribute(n,o)}}return function(e){var i=r(e);null==i?t.removeAttribute(n):t.setAttribute(n,i)}}(n,e,s,a):null}function W(t,n,e,i){if(!i||"object"!==r(i))return null;var o=null,u=null;return Array.isArray(i)?u=function(t){if(!t||!t.length)return null;for(var n=0;n<t.length;n++)t[n].e&&(t[n].e=Q(t[n].e));return t.sort(Z)}(i):(u=i.keys,o=i.data||null),u?K(t,n,e,u,o):null}function X(t,n,r){if(!r)return null;var e=[];for(var i in r)if(r.hasOwnProperty(i)){var o=W(t,n,i,r[i]);o&&e.push(o)}return e.length?e:null}function tt(t,n){if(!n.duration||n.duration<0)return null;var r=function(t,n){if(!n)return null;var r=[];if(Array.isArray(n))for(var e=n.length,i=0;i<e;i++){var o=n[i];if(2===o.length){var u=null;if("string"==typeof o[0])u=t.getElementById(o[0]);else if(Array.isArray(o[0])){u=[];for(var a=0;a<o[0].length;a++)if("string"==typeof o[0][a]){var l=t.getElementById(o[0][a]);l&&u.push(l)}u=u.length?1===u.length?u[0]:new G(u):null}if(u){var f=X(t,u,o[1]);f&&(r=r.concat(f))}}}else for(var s in n)if(n.hasOwnProperty(s)){var c=t.getElementById(s);if(c){var h=X(t,c,n[s]);h&&(r=r.concat(h))}}return r.length?r:null}(t,n.elements);return r?function(t,n){var r=arguments.length>2&&void 0!==arguments[2]?arguments[2]:1/0,e=arguments.length>3&&void 0!==arguments[3]?arguments[3]:1,i=arguments.length>4&&void 0!==arguments[4]&&arguments[4],o=arguments.length>5&&void 0!==arguments[5]?arguments[5]:1,u=t.length,a=e>0?n:0;i&&r%2==0&&(a=n-a);var l=null;return function(f,s){var c=f%n,h=1+(f-c)/n;s*=e,i&&h%2==0&&(s=-s);var v=!1;if(h>r)c=a,v=!0,-1===o&&(c=e>0?0:n);else if(s<0&&(c=n-c),c===l)return!1;l=c;for(var y=0;y<u;y++)t[y](c);return v}}(r,n.duration,n.iterations||1/0,n.direction||1,!!n.alternate,n.fill||1):null}function nt(t){return+("0x"+(t.replace(/[^0-9a-fA-F]+/g,"")||27))}function rt(t,n,r){return!t||!r||n>t.length?t:t.substring(0,n)+rt(t.substring(n+1),r,r)}function et(t){var n=arguments.length>1&&void 0!==arguments[1]?arguments[1]:27;return!t||t%n?t%n:et(t/n,n)}function it(t,n,r){if(t&&t.length){var e=nt(r),i=nt(n),o=et(e)+5,u=rt(t,et(e,5),o);return u=u.replace(/\x7c$/g,"==").replace(/\x2f$/g,"="),u=function(t,n,r){var e=+("0x"+t.substring(0,4));t=t.substring(4);for(var i=n%e+r%27,o=[],u=0;u<t.length;u+=2)if("|"!==t[u]){var a=+("0x"+t[u]+t[u+1])-i;o.push(a)}else{var l=+("0x"+t.substring(u+1,u+1+4))-i;u+=3,o.push(l)}return String.fromCharCode.apply(String,o)}(u=(u=atob(u)).replace(/[\x41-\x5A]/g,""),i,e),u=JSON.parse(u)}}Number.isInteger||(Number.isInteger=function(t){return"number"==typeof t&&isFinite(t)&&Math.floor(t)===t}),Number.EPSILON||(Number.EPSILON=2220446049250313e-31);var ot=function(){function t(n,r){var i=arguments.length>2&&void 0!==arguments[2]?arguments[2]:{};e(this,t),this._id=0,this._running=!1,this._rollingBack=!1,this._animations=n,this.duration=r.duration,this.alternate=r.alternate,this.fill=r.fill,this.iterations=r.iterations,this.direction=i.direction||1,this.speed=i.speed||1,this.fps=i.fps||100,this.offset=i.offset||0,this.rollbackStartOffset=0}return o(t,[{key:"_rollback",value:function(){var t=this,n=1/0,r=null;this.rollbackStartOffset=this.offset,this._rollingBack||(this._rollingBack=!0,this._running=!0);this._id=window.requestAnimationFrame((function e(i){if(t._rollingBack){null==r&&(r=i);var o=i-r,u=t.rollbackStartOffset-o,a=Math.round(u*t.speed);if(a>t.duration&&n!=1/0){var l=!!t.alternate&&a/t.duration%2>1,f=a%t.duration;a=(f+=l?t.duration:0)||t.duration}var s=t.fps?1e3/t.fps:0,c=Math.max(0,a);if(c<n-s){t.offset=c,n=c;for(var h=t._animations,v=h.length,y=0;y<v;y++)h[y](c,t.direction)}var g=!1;if(t.iterations>0&&-1===t.fill){var d=t.iterations*t.duration,p=d==a;a=p?0:a,t.offset=p?0:t.offset,g=a>d}a>0&&t.offset>=a&&!g?t._id=window.requestAnimationFrame(e):t.stop()}}))}},{key:"_start",value:function(){var t=this,n=arguments.length>0&&void 0!==arguments[0]?arguments[0]:0,r=-1/0,e=null,i={},o=function o(u){t._running=!0,null==e&&(e=u);var a=Math.round((u-e+n)*t.speed),l=t.fps?1e3/t.fps:0;if(a>r+l&&!t._rollingBack){t.offset=a,r=a;for(var f=t._animations,s=f.length,c=0,h=0;h<s;h++)i[h]?c++:(i[h]=f[h](a,t.direction),i[h]&&c++);if(c===s)return void t._stop()}t._id=window.requestAnimationFrame(o)};this._id=window.requestAnimationFrame(o)}},{key:"_stop",value:function(){this._id&&window.cancelAnimationFrame(this._id),this._running=!1,this._rollingBack=!1}},{key:"play",value:function(){!this._rollingBack&&this._running||(this._rollingBack=!1,this.rollbackStartOffset>this.duration&&(this.offset=this.rollbackStartOffset-(this.rollbackStartOffset-this.offset)%this.duration,this.rollbackStartOffset=0),this._start(this.offset))}},{key:"stop",value:function(){this._stop(),this.offset=0,this.rollbackStartOffset=0;var t=this.direction,n=this._animations;window.requestAnimationFrame((function(){for(var r=0;r<n.length;r++)n[r](0,t)}))}},{key:"reachedToEnd",value:function(){return this.iterations>0&&this.offset>=this.iterations*this.duration}},{key:"restart",value:function(){this._stop(),this.offset=0,this._start()}},{key:"pause",value:function(){this._stop()}},{key:"reverse",value:function(){this.direction=-this.direction}}],[{key:"build",value:function(r,e){return delete r.animationSettings,r.options=it(r.options,r.root,"5c7f360c"),r.animations.map((function(t){var e=it(t.s,r.root,"5c7f360c");for(var i in delete t.s,r.animationSettings||(r.animationSettings=n({},e)),e)e.hasOwnProperty(i)&&(t[i]=e[i])})),(r=function(t,n){if(V=n,!t||!t.root||!Array.isArray(t.animations))return null;for(var r=document.getElementsByTagName("svg"),e=!1,i=0;i<r.length;i++)if(r[i].id===t.root&&!r[i].svgatorAnimation){(e=r[i]).svgatorAnimation=!0;break}if(!e)return null;var o=t.animations.map((function(t){return tt(e,t)})).filter((function(t){return!!t}));return o.length?{element:e,animations:o,animationSettings:t.animationSettings,options:t.options||void 0}:null}(r,e))?{el:r.element,options:r.options||{},player:new t(r.animations,r.animationSettings,r.options)}:null}},{key:"push",value:function(t){return this.build(t)}},{key:"init",value:function(){var t=this,n=window.__SVGATOR_PLAYER__&&window.__SVGATOR_PLAYER__["5c7f360c"];Array.isArray(n)&&n.splice(0).forEach((function(n){return t.build(n)}))}}]),t}();function ut(t){return v(t)+""}function at(t){var n=arguments.length>1&&void 0!==arguments[1]?arguments[1]:" ";return t&&t.length?t.map(ut).join(n):""}function lt(t){return t?null==t.a||t.a>=1?"rgb("+t.r+","+t.g+","+t.b+")":"rgba("+t.r+","+t.g+","+t.b+","+t.a+")":"transparent"}function ft(t){return t?"url(#"+t+")":"none"}!function(){for(var t=0,n=["ms","moz","webkit","o"],r=0;r<n.length&&!window.requestAnimationFrame;++r)window.requestAnimationFrame=window[n[r]+"RequestAnimationFrame"],window.cancelAnimationFrame=window[n[r]+"CancelAnimationFrame"]||window[n[r]+"CancelRequestAnimationFrame"];window.requestAnimationFrame||(window.requestAnimationFrame=function(n){var r=Date.now(),e=Math.max(0,16-(r-t)),i=window.setTimeout((function(){n(r+e)}),e);return t=r+e,i},window.cancelAnimationFrame=window.clearTimeout)}();var st={f:null,i:function(t,n,r){return 0===t?n:1===t?r:{x:F(t,n.x,r.x),y:F(t,n.y,r.y)}},u:function(t,n){return function(r){var e=n(r);t.setAttribute("rx",ut(e.x)),t.setAttribute("ry",ut(e.y))}}},ct={f:null,i:function(t,n,r){return 0===t?n:1===t?r:{width:F(t,n.width,r.width),height:F(t,n.height,r.height)}},u:function(t,n){return function(r){var e=n(r);t.setAttribute("width",ut(e.width)),t.setAttribute("height",ut(e.height))}}};Object.freeze({M:2,L:2,Z:0,H:1,V:1,C:6,Q:4,T:2,S:4,A:7});var ht={},vt=null;function yt(t){var n=function(){if(vt)return vt;if("object"!==("undefined"==typeof document?"undefined":r(document))||!document.createElementNS)return{};var t=document.createElementNS("http://www.w3.org/2000/svg","svg");return t&&t.style?(t.style.position="absolute",t.style.opacity="0.01",t.style.zIndex="-9999",t.style.left="-9999px",t.style.width="1px",t.style.height="1px",vt={svg:t}):{}}().svg;if(!n)return function(t){return null};var e=document.createElementNS(n.namespaceURI,"path");e.setAttributeNS(null,"d",t),e.setAttributeNS(null,"fill","none"),e.setAttributeNS(null,"stroke","none"),n.appendChild(e);var i=e.getTotalLength();return function(t){var n=e.getPointAtLength(i*t);return{x:n.x,y:n.y}}}function gt(t){return ht[t]?ht[t]:ht[t]=yt(t)}function dt(t,n,r,e){if(!t||!e)return!1;var i=["M",t.x,t.y];if(n&&r&&(i.push("C"),i.push(n.x),i.push(n.y),i.push(r.x),i.push(r.y)),n?!r:r){var o=n||r;i.push("Q"),i.push(o.x),i.push(o.y)}return n||r||i.push("L"),i.push(e.x),i.push(e.y),i.join(" ")}function pt(t,n,r,e){var i=arguments.length>4&&void 0!==arguments[4]?arguments[4]:1,o=dt(t,n,r,e),u=gt(o);try{return u(i)}catch(t){return null}}function mt(t,n,r,e){var i=1-e;return i*i*t+2*i*e*n+e*e*r}function bt(t,n,r,e){return 2*(1-e)*(n-t)+2*e*(r-n)}function wt(t,n,r,e){var i=arguments.length>4&&void 0!==arguments[4]&&arguments[4],o=pt(t,n,null,r,e);return o||(o={x:mt(t.x,n.x,r.x,e),y:mt(t.y,n.y,r.y,e)}),i&&(o.a=xt(t,n,r,e)),o}function xt(t,n,r,e){return Math.atan2(bt(t.y,n.y,r.y,e),bt(t.x,n.x,r.x,e))}function At(t,n,r,e,i){var o=i*i;return i*o*(e-t+3*(n-r))+3*o*(t+r-2*n)+3*i*(n-t)+t}function kt(t,n,r,e,i){var o=1-i;return 3*(o*o*(n-t)+2*o*i*(r-n)+i*i*(e-r))}function _t(t,n,r,e,i){var o=arguments.length>5&&void 0!==arguments[5]&&arguments[5],u=pt(t,n,r,e,i);return u||(u={x:At(t.x,n.x,r.x,e.x,i),y:At(t.y,n.y,r.y,e.y,i)}),o&&(u.a=St(t,n,r,e,i)),u}function St(t,n,r,e,i){return Math.atan2(kt(t.y,n.y,r.y,e.y,i),kt(t.x,n.x,r.x,e.x,i))}function Ot(t,n,r){return t+(n-t)*r}function jt(t,n,r){var e=arguments.length>3&&void 0!==arguments[3]&&arguments[3],i={x:Ot(t.x,n.x,r),y:Ot(t.y,n.y,r)};return e&&(i.a=Pt(t,n)),i}function Pt(t,n){return Math.atan2(n.y-t.y,n.x-t.x)}function Mt(t,n,r){var e=arguments.length>3&&void 0!==arguments[3]&&arguments[3];if(Rt(n)){if(It(r))return wt(n,r.start,r,t,e)}else if(Rt(r)){if(n.end)return wt(n,n.end,r,t,e)}else{if(n.end)return r.start?_t(n,n.end,r.start,r,t,e):wt(n,n.end,r,t,e);if(r.start)return wt(n,r.start,r,t,e)}return jt(n,r,t,e)}function Et(t,n,r){var e=Mt(t,n,r,!0);return e.a=function(t){return arguments.length>1&&void 0!==arguments[1]&&arguments[1]?t+Math.PI:t}(e.a)/g,e}function Rt(t){return!t.type||"corner"===t.type}function It(t){return null!=t.start&&!Rt(t)}var Nt=new I;var Bt={f:ut,i:B},Ft={f:ut,i:T};function Tt(t,n,r){return t.map((function(t){return function(t,n,r){var e=t.v;if(!e||"g"!==e.t||e.s||!e.v||!e.r)return t;var i=r.getElementById(e.r),o=i&&i.querySelectorAll("stop")||[];return e.s=e.v.map((function(t,n){var r=o[n]&&o[n].getAttribute("offset");return{c:t,o:r=v(parseInt(r)/100)}})),delete e.v,t}(t,0,r)}))}var qt={gt:"gradientTransform",c:{x:"cx",y:"cy"},rd:"r",f:{x:"x1",y:"y1"},to:{x:"x2",y:"y2"}};function Lt(t,n,e,i,o,u,a,l){return Tt(t,0,l),n=function(t,n,r){for(var e,i,o,u=t.length-1,a={},l=0;l<=u;l++)(e=t[l]).e&&(e.e=n(e.e)),e.v&&"g"===(i=e.v).t&&i.r&&(o=r.getElementById(i.r))&&(a[i.r]={e:o,s:o.querySelectorAll("stop")});return a}(t,i,l),function(i){var o=e(i,t,Ct);if(!o)return"none";if("c"===o.t)return lt(o.v);if("g"===o.t){if(!n[o.r])return ft(o.r);var u=n[o.r];return function(t,n){for(var r=t.s,e=r.length;e<n.length;e++){var i=r[r.length-1].cloneNode();i.id=Vt(i.id),t.e.appendChild(i),r=t.s=t.e.querySelectorAll("stop")}for(var o=0,u=r.length,a=n.length-1;o<u;o++)r[o].setAttribute("stop-color",lt(n[Math.min(o,a)].c)),r[o].setAttribute("offset",n[Math.min(o,a)].o)}(u,o.s),Object.keys(qt).forEach((function(t){if(void 0!==o[t])if("object"!==r(qt[t])){var n,e="gt"===t?(n=o[t],Array.isArray(n)?"matrix("+n.join(" ")+")":""):o[t],i=qt[t];u.e.setAttribute(i,e)}else Object.keys(qt[t]).forEach((function(n){if(void 0!==o[t][n]){var r=o[t][n],e=qt[t][n];u.e.setAttribute(e,r)}}))})),ft(o.r)}return"none"}}function Ct(t,r,e){if(0===t)return r;if(1===t)return e;if(r&&e){var i=r.t;if(i===e.t)switch(r.t){case"c":return{t:i,v:C(t,r.v,e.v)};case"g":if(r.r===e.r){var o={t:i,s:Dt(t,r.s,e.s),r:r.r};return r.gt&&e.gt&&(o.gt=function(t,n,r){var e=n.length;if(e!==r.length)return N(t,n,r);for(var i=new Array(e),o=0;o<e;o++)i[o]=B(t,n[o],r[o]);return i}(t,r.gt,e.gt)),r.c?(o.c=q(t,r.c,e.c),o.rd=F(t,r.rd,e.rd)):r.f&&(o.f=q(t,r.f,e.f),o.to=q(t,r.to,e.to)),o}}if("c"===r.t&&"g"===e.t||"c"===e.t&&"g"===r.t){var u="c"===r.t?r:e,a="g"===r.t?n({},r):n({},e),l=a.s.map((function(t){return{c:u.v,o:t.o}}));return a.s="c"===r.t?Dt(t,l,a.s):Dt(t,a.s,l),a}}return N(t,r,e)}function Dt(t,n,r){if(n.length===r.length)return n.map((function(n,e){return zt(t,n,r[e])}));for(var e=Math.max(n.length,r.length),i=[],o=0;o<e;o++){var u=zt(t,n[Math.min(o,n.length-1)],r[Math.min(o,r.length-1)]);i.push(u)}return i}function zt(t,n,r){return{o:T(t,n.o,r.o||0),c:C(t,n.c,r.c||{})}}function Vt(t){return t.replace(/-fill-([0-9]+)$/,(function(t,n){return"-fill-"+(+n+1)}))}var Gt={fill:Lt,"fill-opacity":Ft,stroke:Lt,"stroke-opacity":Ft,"stroke-width":Bt,"stroke-dashoffset":{f:ut,i:B},"stroke-dasharray":{f:function(t){var n=arguments.length>1&&void 0!==arguments[1]?arguments[1]:" ";return t&&t.length>0&&(t=t.map((function(t){return v(t,4)}))),at(t,n)},i:function(t,n,r){var e,i,o,u=n.length,a=r.length;if(u!==a)if(0===u)n=D(u=a,0);else if(0===a)a=u,r=D(u,0);else{var l=(o=(e=u)*(i=a)/function(t,n){for(var r;n;)r=n,n=t%n,t=r;return t||1}(e,i))<0?-o:o;n=z(n,Math.floor(l/u)),r=z(r,Math.floor(l/a)),u=a=l}for(var f=[],s=0;s<u;s++)f.push(v(F(t,n[s],r[s])));return f}},opacity:Ft,transform:function(t,n,e,i){if(!(t=function(t,n){if(!t||"object"!==r(t))return null;var e=!1;for(var i in t)t.hasOwnProperty(i)&&(t[i]&&t[i].length?(t[i].forEach((function(t){t.e&&(t.e=n(t.e))})),e=!0):delete t[i]);return e?t:null}(t,i)))return null;var o=function(r,i,o){var u=arguments.length>3&&void 0!==arguments[3]?arguments[3]:null;return t[r]?e(i,t[r],o):n&&n[r]?n[r]:u};return n&&n.a&&t.o?function(n){var r=e(n,t.o,Et);return Nt.recomposeSelf(r,o("r",n,B,0)+r.a,o("k",n,q),o("s",n,q),o("t",n,q)).toString()}:function(t){return Nt.recomposeSelf(o("o",t,Mt,null),o("r",t,B,0),o("k",t,q),o("s",t,q),o("t",t,q)).toString()}},r:Bt,"#size":ct,"#radius":st,_:function(t,n){if(Array.isArray(t))for(var r=0;r<t.length;r++)this[t[r]]=n;else this[t]=n}},Yt=function(t){!function(t,n){if("function"!=typeof n&&null!==n)throw new TypeError("Super expression must either be null or a function");t.prototype=Object.create(n&&n.prototype,{constructor:{value:t,writable:!0,configurable:!0}}),n&&l(t,n)}(r,t);var n=s(r);function r(){return e(this,r),n.apply(this,arguments)}return o(r,null,[{key:"build",value:function(t){var n=c(a(r),"build",this).call(this,t,Gt);if(!n)return null;n.el,n.options,function(t,n,r){t.play()}(n.player)}}]),r}(ot);return Yt.init(),Yt}));
(function(s,i,o,w){w[o]=w[o]||{};w[o][s]=w[o][s]||[];w[o][s].push(i);})('5c7f360c',{"root":"eULQaNdhcVB1","animations":[{"elements":{"eULQaNdhcVB76":{"#size":[{"t":500,"v":{"width":553.165229,"height":890.139349}},{"t":1000,"v":{"width":0,"height":890.139349}}]},"eULQaNdhcVB77":{"#size":[{"t":300,"v":{"width":553.165229,"height":890.139349}},{"t":1000,"v":{"width":0,"height":890.139349}}]},"eULQaNdhcVB78":{"#size":[{"t":500,"v":{"width":553.165229,"height":890.139349}},{"t":1000,"v":{"width":0,"height":890.139349}}]},"eULQaNdhcVB79":{"#size":[{"t":300,"v":{"width":553.165229,"height":890.139349}},{"t":1000,"v":{"width":0,"height":890.139349}}]},"eULQaNdhcVB80":{"#size":[{"t":0,"v":{"width":553.165229,"height":890.139349}},{"t":1000,"v":{"width":0,"height":890.139349}}]},"eULQaNdhcVB81":{"#size":[{"t":0,"v":{"width":553.165229,"height":890.139349}},{"t":1000,"v":{"width":0,"height":890.139349}}]}},"s":"MIDA1M2NjNzNiNWM2YzGNiMmM1YmFIYzBiZjcRzOGJKODQ4MTgxODE3FZDczYjViYVNjM2I2YEjRjNWJhYzBiZjczOGRI4Mkw3ZDczYmFjNWIO2YzNiMmM1YmFjMGJmUYzQ3MzhiODI3ZDczYKjdiYWJkYmQ3M0o4YjYgyN2Q3M2IyYmRjNWIY2YzNiZmIyYzViNjczDOGJiN2IyYmRHYzRiNYjdkNzNjNEVjMVNiNmTI2SWI1QjczOGI4MmNTl"}],"options":"MBDAxMDg4MmY4MDgxNmLU3ZjgxVDJmNDcyZjcR5N2M2ZTcxMmY4YQ|"},'__SVGATOR_PLAYER__',window)]]></script></svg>