
<svg xmlns="http://www.w3.org/2000/svg" xmlns:xlink="http://www.w3.org/1999/xlink" viewBox="0 0 666.89 514.76">
<defs>
<style>.cls-1,.cls-3,.cls-4,.cls-5{fill:none;}.cls-2{clip-path:url(#clip-path);}.cls-3,.cls-4,.cls-5{stroke:#30b8c6;stroke-width:2px;}.cls-3{stroke-miterlimit:10;}.cls-4{stroke-miterlimit:10;}.cls-5{stroke-miterlimit:10;}
</style>
</defs>
<g id="Livello_2" data-name="Livello 2">
<g id="Livello_2-2" data-name="Livello 2">
<g class="cls-2">
<path class="cls-3" d="M-189.62,91.51c20.8,4.6,18.2,16.34,39,20.94s23.39-7.13,44.19-2.52,18.19,16.34,39,20.94,23.39-7.12,44.19-2.52,18.19,16.34,39,21,23.39-7.13,44.19-2.53,18.19,16.34,39,20.95,23.4-7.13,44.19-2.52,18.19,16.34,39,20.94,23.39-7.13,44.18-2.52,18.2,16.34,39,20.94,23.39-7.12,44.19-2.52,18.19,16.34,39,21,23.4-7.13,44.2-2.52" transform="translate(213.3 183.72)"/>
<path class="cls-4" d="M-191,97.74c20.8,4.61,18.2,16.34,39,21s23.39-7.13,44.19-2.53,18.19,16.34,39,21,23.39-7.13,44.19-2.53,18.19,16.34,39,20.95S37.73,148.4,58.53,153s18.19,16.34,39,20.94,23.39-7.13,44.19-2.52,18.19,16.34,39,20.94,23.39-7.12,44.18-2.52,18.2,16.34,39,21,23.39-7.13,44.18-2.53,18.2,16.35,39,20.95,23.4-7.13,44.2-2.52" transform="translate(213.3 183.72)"/>
<path class="cls-3" d="M-192.38,104c20.8,4.61,18.2,16.34,39,21s23.39-7.13,44.18-2.53,18.2,16.34,39,21,23.39-7.13,44.19-2.52,18.19,16.34,39,20.94,23.39-7.13,44.18-2.52,18.2,16.34,39,20.95,23.39-7.13,44.19-2.53,18.19,16.34,39,21,23.39-7.13,44.18-2.53,18.2,16.34,39,20.95,23.39-7.13,44.18-2.52,18.2,16.34,39,21,23.4-7.13,44.19-2.53" transform="translate(213.3 183.72)"/>
<path class="cls-4" d="M-193.76,110.21c20.8,4.6,18.2,16.34,39,20.94s23.39-7.13,44.18-2.52,18.2,16.34,39,20.94,23.39-7.13,44.19-2.52,18.19,16.34,39,20.95,23.39-7.13,44.18-2.53,18.2,16.34,39,20.95,23.39-7.13,44.19-2.53,18.19,16.34,39,21,23.4-7.13,44.19-2.52,18.2,16.34,39,20.94,23.4-7.13,44.19-2.52,18.2,16.34,39,20.95,23.4-7.13,44.19-2.52" transform="translate(213.3 183.72)"/>
<path class="cls-3" d="M-195.14,116.44c20.8,4.6,18.2,16.34,39,20.94s23.39-7.12,44.18-2.52,18.2,16.34,39,20.95,23.39-7.13,44.19-2.53,18.19,16.34,39,20.95,23.39-7.13,44.18-2.52,18.2,16.34,39,20.94,23.39-7.13,44.18-2.52,18.2,16.34,39,20.94,23.4-7.13,44.19-2.52,18.2,16.34,39,20.95,23.4-7.13,44.19-2.53,18.2,16.34,39,20.95,23.4-7.13,44.19-2.52" transform="translate(213.3 183.72)"/>
<path class="cls-4" d="M-196.52,122.67c20.8,4.61,18.2,16.34,39,21s23.39-7.13,44.18-2.53,18.2,16.34,39,20.95,23.39-7.13,44.19-2.52,18.19,16.34,39,20.94,23.4-7.13,44.19-2.52,18.2,16.34,39,20.94,23.39-7.13,44.18-2.52,18.2,16.34,39,20.95,23.4-7.13,44.19-2.53,18.2,16.34,39,20.95,23.4-7.13,44.19-2.52,18.2,16.34,39,20.94,23.4-7.12,44.19-2.52" transform="translate(213.3 183.72)"/>
<path class="cls-3" d="M-197.9,128.9c20.79,4.61,18.2,16.34,39,20.95s23.39-7.13,44.18-2.52,18.2,16.34,39,20.94,23.39-7.13,44.18-2.52,18.2,16.34,39,20.94,23.4-7.12,44.19-2.52,18.2,16.34,39,21S114,198,134.79,202.59s18.2,16.34,39,20.95,23.4-7.13,44.19-2.52,18.2,16.34,39,20.94,23.4-7.13,44.19-2.52,18.2,16.34,39,20.95,23.4-7.13,44.19-2.52" transform="translate(213.3 183.72)"/>
<path class="cls-4" d="M-199.28,135.14c20.79,4.6,18.2,16.34,39,20.94s23.39-7.13,44.18-2.52,18.2,16.34,39,20.94,23.39-7.12,44.18-2.52,18.2,16.34,39,21,23.4-7.13,44.19-2.53,18.2,16.34,39,20.95,23.39-7.13,44.18-2.52,18.2,16.34,39,20.94,23.4-7.13,44.19-2.52,18.2,16.34,39,20.95,23.4-7.13,44.19-2.53,18.2,16.34,39,21,23.39-7.13,44.19-2.52" transform="translate(213.3 183.72)"/>
<path class="cls-3" d="M-200.66,141.37c20.79,4.61,18.19,16.34,39,20.95s23.39-7.13,44.18-2.53,18.2,16.34,39,21,23.39-7.13,44.18-2.53,18.2,16.34,39,20.95,23.4-7.13,44.19-2.52,18.2,16.34,39,20.94,23.39-7.13,44.18-2.52,18.2,16.34,39,20.94,23.4-7.12,44.19-2.52,18.2,16.34,39,21,23.4-7.13,44.19-2.52,18.2,16.34,39,20.94,23.39-7.13,44.19-2.52" transform="translate(213.3 183.72)"/>
<path class="cls-4" d="M-202,147.6c20.79,4.61,18.19,16.34,39,21s23.39-7.13,44.18-2.53,18.19,16.34,39,20.95,23.39-7.13,44.18-2.52,18.2,16.34,39,20.94,23.4-7.13,44.19-2.52,18.2,16.34,39,20.95,23.39-7.13,44.18-2.53,18.2,16.34,39,21,23.4-7.13,44.19-2.53,18.2,16.34,39,21,23.4-7.13,44.19-2.52,18.2,16.34,39,20.95,23.39-7.13,44.19-2.53" transform="translate(213.3 183.72)"/>
<path class="cls-3" d="M-203.42,153.84c20.79,4.6,18.19,16.34,39,20.94s23.39-7.13,44.18-2.52,18.19,16.34,39,20.94,23.39-7.13,44.18-2.52,18.2,16.34,39,20.95,23.4-7.13,44.19-2.53,18.2,16.34,39,21,23.39-7.13,44.18-2.53,18.2,16.34,39,20.95,23.39-7.13,44.19-2.52,18.2,16.34,39,20.94,23.4-7.12,44.19-2.52,18.2,16.34,39,20.95,23.39-7.13,44.19-2.52" transform="translate(213.3 183.72)"/>
<path class="cls-4" d="M-204.8,160.07c20.79,4.6,18.19,16.34,39,20.94s23.39-7.12,44.18-2.52,18.19,16.34,39,20.95,23.39-7.13,44.18-2.53,18.2,16.34,39,21,23.4-7.13,44.19-2.52,18.19,16.34,39,20.94,23.39-7.13,44.18-2.52,18.2,16.34,39,20.94,23.39-7.13,44.19-2.52,18.2,16.34,39,20.95,23.39-7.13,44.19-2.53,18.2,16.34,39,20.95,23.39-7.13,44.19-2.52" transform="translate(213.3 183.72)"/>
<path class="cls-3" d="M-206.18,166.3c20.79,4.61,18.19,16.34,39,20.95s23.39-7.13,44.18-2.53,18.19,16.34,39,20.95,23.39-7.13,44.18-2.52,18.2,16.34,39,20.94,23.39-7.13,44.19-2.52,18.19,16.34,39,20.94,23.39-7.13,44.18-2.52,18.2,16.34,39,20.95,23.39-7.13,44.19-2.53,18.19,16.34,39,20.95,23.39-7.13,44.19-2.52,18.2,16.34,39,20.94,23.39-7.12,44.19-2.52" transform="translate(213.3 183.72)"/>
<path class="cls-4" d="M-207.56,172.53c20.79,4.61,18.19,16.34,39,20.95s23.39-7.13,44.18-2.52,18.19,16.34,39,20.94,23.39-7.13,44.18-2.52,18.2,16.34,39,20.94S21.16,223.2,42,227.8s18.19,16.34,39,20.95,23.39-7.13,44.18-2.53,18.2,16.34,39,21,23.39-7.13,44.19-2.52,18.19,16.34,39,20.94,23.39-7.13,44.19-2.52,18.2,16.34,39,20.95,23.4-7.13,44.2-2.52" transform="translate(213.3 183.72)"/>
<path class="cls-3" d="M-208.94,178.77c20.79,4.6,18.19,16.34,39,20.94s23.4-7.13,44.19-2.52,18.19,16.34,39,20.94,23.39-7.12,44.18-2.52,18.2,16.34,39,20.95,23.39-7.13,44.19-2.53,18.19,16.34,39,20.95,23.39-7.13,44.18-2.52,18.19,16.34,39,20.94,23.39-7.13,44.19-2.52,18.19,16.34,39,20.95,23.39-7.13,44.19-2.53,18.2,16.34,39,20.95,23.4-7.13,44.2-2.52" transform="translate(213.3 183.72)"/>
<path class="cls-4" d="M-210.32,185c20.79,4.61,18.19,16.34,39,20.95s23.4-7.13,44.19-2.53,18.19,16.34,39,21,23.4-7.13,44.19-2.53,18.2,16.34,39,20.95,23.39-7.13,44.19-2.52,18.19,16.34,39,20.94,23.39-7.13,44.18-2.52,18.19,16.34,39,20.94,23.39-7.12,44.19-2.52,18.19,16.34,39,20.95,23.39-7.13,44.19-2.52,18.2,16.34,39,20.94,23.4-7.13,44.2-2.52" transform="translate(213.3 183.72)"/>
<path class="cls-3" d="M-211.7,191.23c20.79,4.61,18.19,16.34,39,21s23.4-7.13,44.19-2.52,18.19,16.33,39,20.94,23.4-7.13,44.19-2.52,18.19,16.34,39,20.94S17,241.89,37.82,246.5s18.19,16.34,39,20.95,23.39-7.13,44.18-2.53,18.19,16.34,39,20.95,23.39-7.13,44.19-2.53,18.19,16.35,39,21,23.39-7.13,44.19-2.52,18.2,16.34,39,21,23.4-7.13,44.2-2.53" transform="translate(213.3 183.72)"/>
<path class="cls-4" d="M-213.08,197.47c20.79,4.6,18.19,16.34,39,20.94s23.39-7.13,44.19-2.52,18.19,16.34,39,20.94,23.4-7.13,44.19-2.52,18.19,16.34,39,20.95,23.39-7.13,44.19-2.53,18.19,16.34,39,21,23.39-7.13,44.18-2.53,18.19,16.34,39,21S182,285,202.79,289.58s18.19,16.34,39,20.94S265.17,303.4,286,308s18.19,16.34,39,20.95,23.4-7.13,44.2-2.52" transform="translate(213.3 183.72)"/>
<path class="cls-3" d="M-189.62,91.51c20.8,4.6,18.2,16.34,39,20.94s23.39-7.13,44.19-2.52,18.19,16.34,39,20.94,23.39-7.12,44.19-2.52,18.19,16.34,39,21,23.39-7.13,44.19-2.53,18.19,16.34,39,20.95,23.4-7.13,44.19-2.52,18.19,16.34,39,20.94,23.39-7.13,44.18-2.52,18.2,16.34,39,20.94,23.39-7.12,44.19-2.52,18.19,16.34,39,21,23.4-7.13,44.2-2.52" transform="translate(213.3 183.72)"/>
<path class="cls-4" d="M-191,97.74c20.8,4.61,18.2,16.34,39,21s23.39-7.13,44.19-2.53,18.19,16.34,39,21,23.39-7.13,44.19-2.53,18.19,16.34,39,20.95S37.73,148.4,58.53,153s18.19,16.34,39,20.94,23.39-7.13,44.19-2.52,18.19,16.34,39,20.94,23.39-7.12,44.18-2.52,18.2,16.34,39,21,23.39-7.13,44.18-2.53,18.2,16.35,39,20.95,23.4-7.13,44.2-2.52" transform="translate(213.3 183.72)"/>
<path class="cls-3" d="M-192.38,104c20.8,4.61,18.2,16.34,39,21s23.39-7.13,44.18-2.53,18.2,16.34,39,21,23.39-7.13,44.19-2.52,18.19,16.34,39,20.94,23.39-7.13,44.18-2.52,18.2,16.34,39,20.95,23.39-7.13,44.19-2.53,18.19,16.34,39,21,23.39-7.13,44.18-2.53,18.2,16.34,39,20.95,23.39-7.13,44.18-2.52,18.2,16.34,39,21,23.4-7.13,44.19-2.53" transform="translate(213.3 183.72)"/>
<path class="cls-4" d="M-193.76,110.21c20.8,4.6,18.2,16.34,39,20.94s23.39-7.13,44.18-2.52,18.2,16.34,39,20.94,23.39-7.13,44.19-2.52,18.19,16.34,39,20.95,23.39-7.13,44.18-2.53,18.2,16.34,39,20.95,23.39-7.13,44.19-2.53,18.19,16.34,39,21,23.4-7.13,44.19-2.52,18.2,16.34,39,20.94,23.4-7.13,44.19-2.52,18.2,16.34,39,20.95,23.4-7.13,44.19-2.52" transform="translate(213.3 183.72)"/>
<path class="cls-3" d="M-195.14,116.44c20.8,4.6,18.2,16.34,39,20.94s23.39-7.12,44.18-2.52,18.2,16.34,39,20.95,23.39-7.13,44.19-2.53,18.19,16.34,39,20.95,23.39-7.13,44.18-2.52,18.2,16.34,39,20.94,23.39-7.13,44.18-2.52,18.2,16.34,39,20.94,23.4-7.13,44.19-2.52,18.2,16.34,39,20.95,23.4-7.13,44.19-2.53,18.2,16.34,39,20.95,23.4-7.13,44.19-2.52" transform="translate(213.3 183.72)"/>
<path class="cls-4" d="M-196.52,122.67c20.8,4.61,18.2,16.34,39,21s23.39-7.13,44.18-2.53,18.2,16.34,39,20.95,23.39-7.13,44.19-2.52,18.19,16.34,39,20.94,23.4-7.13,44.19-2.52,18.2,16.34,39,20.94,23.39-7.13,44.18-2.52,18.2,16.34,39,20.95,23.4-7.13,44.19-2.53,18.2,16.34,39,20.95,23.4-7.13,44.19-2.52,18.2,16.34,39,20.94,23.4-7.12,44.19-2.52" transform="translate(213.3 183.72)"/>
<path class="cls-3" d="M-197.9,128.9c20.79,4.61,18.2,16.34,39,20.95s23.39-7.13,44.18-2.52,18.2,16.34,39,20.94,23.39-7.13,44.18-2.52,18.2,16.34,39,20.94,23.4-7.12,44.19-2.52,18.2,16.34,39,21S114,198,134.79,202.59s18.2,16.34,39,20.95,23.4-7.13,44.19-2.52,18.2,16.34,39,20.94,23.4-7.13,44.19-2.52,18.2,16.34,39,20.95,23.4-7.13,44.19-2.52" transform="translate(213.3 183.72)"/>
<path class="cls-4" d="M-199.28,135.14c20.79,4.6,18.2,16.34,39,20.94s23.39-7.13,44.18-2.52,18.2,16.34,39,20.94,23.39-7.12,44.18-2.52,18.2,16.34,39,21,23.4-7.13,44.19-2.53,18.2,16.34,39,20.95,23.39-7.13,44.18-2.52,18.2,16.34,39,20.94,23.4-7.13,44.19-2.52,18.2,16.34,39,20.95,23.4-7.13,44.19-2.53,18.2,16.34,39,21,23.39-7.13,44.19-2.52" transform="translate(213.3 183.72)"/>
<path class="cls-3" d="M-200.66,141.37c20.79,4.61,18.19,16.34,39,20.95s23.39-7.13,44.18-2.53,18.2,16.34,39,21,23.39-7.13,44.18-2.53,18.2,16.34,39,20.95,23.4-7.13,44.19-2.52,18.2,16.34,39,20.94,23.39-7.13,44.18-2.52,18.2,16.34,39,20.94,23.4-7.12,44.19-2.52,18.2,16.34,39,21,23.4-7.13,44.19-2.52,18.2,16.34,39,20.94,23.39-7.13,44.19-2.52" transform="translate(213.3 183.72)"/>
<path class="cls-4" d="M-202,147.6c20.79,4.61,18.19,16.34,39,21s23.39-7.13,44.18-2.53,18.19,16.34,39,20.95,23.39-7.13,44.18-2.52,18.2,16.34,39,20.94,23.4-7.13,44.19-2.52,18.2,16.34,39,20.95,23.39-7.13,44.18-2.53,18.2,16.34,39,21,23.4-7.13,44.19-2.53,18.2,16.34,39,21,23.4-7.13,44.19-2.52,18.2,16.34,39,20.95,23.39-7.13,44.19-2.53" transform="translate(213.3 183.72)"/>
<path class="cls-3" d="M-203.42,153.84c20.79,4.6,18.19,16.34,39,20.94s23.39-7.13,44.18-2.52,18.19,16.34,39,20.94,23.39-7.13,44.18-2.52,18.2,16.34,39,20.95,23.4-7.13,44.19-2.53,18.2,16.34,39,21,23.39-7.13,44.18-2.53,18.2,16.34,39,20.95,23.39-7.13,44.19-2.52,18.2,16.34,39,20.94,23.4-7.12,44.19-2.52,18.2,16.34,39,20.95,23.39-7.13,44.19-2.52" transform="translate(213.3 183.72)"/>
<path class="cls-4" d="M-204.8,160.07c20.79,4.6,18.19,16.34,39,20.94s23.39-7.12,44.18-2.52,18.19,16.34,39,20.95,23.39-7.13,44.18-2.53,18.2,16.34,39,21,23.4-7.13,44.19-2.52,18.19,16.34,39,20.94,23.39-7.13,44.18-2.52,18.2,16.34,39,20.94,23.39-7.13,44.19-2.52,18.2,16.34,39,20.95,23.39-7.13,44.19-2.53,18.2,16.34,39,20.95,23.39-7.13,44.19-2.52" transform="translate(213.3 183.72)"/>
<path class="cls-3" d="M-206.18,166.3c20.79,4.61,18.19,16.34,39,20.95s23.39-7.13,44.18-2.53,18.19,16.34,39,20.95,23.39-7.13,44.18-2.52,18.2,16.34,39,20.94,23.39-7.13,44.19-2.52,18.19,16.34,39,20.94,23.39-7.13,44.18-2.52,18.2,16.34,39,20.95,23.39-7.13,44.19-2.53,18.19,16.34,39,20.95,23.39-7.13,44.19-2.52,18.2,16.34,39,20.94,23.39-7.12,44.19-2.52" transform="translate(213.3 183.72)"/>
<path class="cls-4" d="M-207.56,172.53c20.79,4.61,18.19,16.34,39,20.95s23.39-7.13,44.18-2.52,18.19,16.34,39,20.94,23.39-7.13,44.18-2.52,18.2,16.34,39,20.94S21.16,223.2,42,227.8s18.19,16.34,39,20.95,23.39-7.13,44.18-2.53,18.2,16.34,39,21,23.39-7.13,44.19-2.52,18.19,16.34,39,20.94,23.39-7.13,44.19-2.52,18.2,16.34,39,20.95,23.4-7.13,44.2-2.52" transform="translate(213.3 183.72)"/>
<path class="cls-3" d="M-208.94,178.77c20.79,4.6,18.19,16.34,39,20.94s23.4-7.13,44.19-2.52,18.19,16.34,39,20.94,23.39-7.12,44.18-2.52,18.2,16.34,39,20.95,23.39-7.13,44.19-2.53,18.19,16.34,39,20.95,23.39-7.13,44.18-2.52,18.19,16.34,39,20.94,23.39-7.13,44.19-2.52,18.19,16.34,39,20.95,23.39-7.13,44.19-2.53,18.2,16.34,39,20.95,23.4-7.13,44.2-2.52" transform="translate(213.3 183.72)"/>
<path class="cls-4" d="M-210.32,185c20.79,4.61,18.19,16.34,39,20.95s23.4-7.13,44.19-2.53,18.19,16.34,39,21,23.4-7.13,44.19-2.53,18.2,16.34,39,20.95,23.39-7.13,44.19-2.52,18.19,16.34,39,20.94,23.39-7.13,44.18-2.52,18.19,16.34,39,20.94,23.39-7.12,44.19-2.52,18.19,16.34,39,20.95,23.39-7.13,44.19-2.52,18.2,16.34,39,20.94,23.4-7.13,44.2-2.52" transform="translate(213.3 183.72)"/>
<path class="cls-3" d="M-211.7,191.23c20.79,4.61,18.19,16.34,39,21s23.4-7.13,44.19-2.52,18.19,16.33,39,20.94,23.4-7.13,44.19-2.52,18.19,16.34,39,20.94S17,241.89,37.82,246.5s18.19,16.34,39,20.95,23.39-7.13,44.18-2.53,18.19,16.34,39,20.95,23.39-7.13,44.19-2.53,18.19,16.35,39,21,23.39-7.13,44.19-2.52,18.2,16.34,39,21,23.4-7.13,44.2-2.53" transform="translate(213.3 183.72)"/>
<path class="cls-4" d="M-213.08,197.47c20.79,4.6,18.19,16.34,39,20.94s23.39-7.13,44.19-2.52,18.19,16.34,39,20.94,23.4-7.13,44.19-2.52,18.19,16.34,39,20.95,23.39-7.13,44.19-2.53,18.19,16.34,39,21,23.39-7.13,44.18-2.53,18.19,16.34,39,21S182,285,202.79,289.58s18.19,16.34,39,20.94S265.17,303.4,286,308s18.19,16.34,39,20.95,23.4-7.13,44.2-2.52" transform="translate(213.3 183.72)"/>
</g>
</g>
</g>
</svg>