<svg xmlns="http://www.w3.org/2000/svg" xmlns:xlink="http://www.w3.org/1999/xlink" viewBox="0 0 607.17 581.68"><defs><style>.cls-1,.cls-3{fill:none;}.cls-2{clip-path:url(#clip-path);}.cls-3{stroke:#363f3f;stroke-miterlimit:10;}</style><clipPath id="clip-path" transform="translate(172.42 206.52)"><rect class="cls-1" width="240.94" height="155.91"/></clipPath></defs><g id="Livello_2" data-name="Livello 2"><g id="Livello_2-2" data-name="Livello 2"><g class="cls-2"><path class="cls-3" d="M92.84-206.17c-25.21,25.22-38,12.47-63.17,37.68S17.2-130.52-8-105.31-46-92.84-71.19-67.63s-12.47,38-37.69,63.19-38,12.47-63.19,37.68" transform="translate(172.42 206.52)"/><path class="cls-3" d="M109.11-189.9c-25.22,25.21-38,12.46-63.18,37.68S33.46-114.26,8.25-89s-38,12.46-63.18,37.68-12.47,38-37.69,63.18-38,12.47-63.18,37.69" transform="translate(172.42 206.52)"/><path class="cls-3" d="M125.37-173.64c-25.21,25.21-38,12.47-63.17,37.68S49.73-98,24.51-72.78s-38,12.47-63.17,37.68-12.47,38-37.69,63.18-38,12.47-63.19,37.69" transform="translate(172.42 206.52)"/><path class="cls-3" d="M141.64-157.37c-25.22,25.21-38,12.46-63.18,37.68S66-81.73,40.78-56.52,2.81-44-22.4-18.83s-12.47,38-37.69,63.18S-98,56.82-123.27,82" transform="translate(172.42 206.52)"/><path class="cls-3" d="M157.9-141.11c-25.21,25.21-38,12.47-63.18,37.68S82.26-65.47,57-40.25,19.08-27.78-6.14-2.57s-12.47,38-37.68,63.18S-81.79,73.08-107,98.3" transform="translate(172.42 206.52)"/><path class="cls-3" d="M174.17-124.85C149-99.63,136.2-112.38,111-87.17S98.52-49.2,73.31-24s-38,12.47-63.18,37.68-12.47,38-37.69,63.19-38,12.47-63.18,37.69" transform="translate(172.42 206.52)"/><path class="cls-3" d="M190.43-108.58c-25.21,25.21-38,12.47-63.18,37.68s-12.46,38-37.68,63.18S51.61,4.74,26.39,30s-12.47,38-37.68,63.18-38,12.47-63.19,37.69" transform="translate(172.42 206.52)"/><path class="cls-3" d="M206.69-92.32c-25.21,25.22-38,12.47-63.17,37.68s-12.47,38-37.68,63.18S67.87,21,42.66,46.22,30.19,84.19,5,109.41s-38,12.47-63.18,37.69" transform="translate(172.42 206.52)"/><path class="cls-3" d="M223-76c-25.22,25.21-38,12.46-63.18,37.68s-12.46,38-37.68,63.18-38,12.46-63.18,37.68-12.47,38-37.69,63.18-38,12.47-63.18,37.69" transform="translate(172.42 206.52)"/><path class="cls-3" d="M239.22-59.79c-25.21,25.22-38,12.47-63.17,37.68s-12.47,38-37.69,63.18-38,12.47-63.17,37.68-12.47,38-37.69,63.19-38,12.47-63.18,37.69" transform="translate(172.42 206.52)"/><path class="cls-3" d="M255.49-43.52c-25.22,25.21-38,12.46-63.18,37.68s-12.47,38-37.68,63.18S116.67,69.8,91.45,95,79,133,53.76,158.2s-38,12.47-63.18,37.69" transform="translate(172.42 206.52)"/><path class="cls-3" d="M271.75-27.26c-25.21,25.22-38,12.47-63.17,37.68s-12.47,38-37.69,63.18-38,12.47-63.17,37.68-12.47,38-37.69,63.19-38,12.47-63.19,37.68" transform="translate(172.42 206.52)"/><path class="cls-3" d="M288-11c-25.22,25.21-38,12.46-63.18,37.68s-12.47,38-37.68,63.18-38,12.46-63.18,37.68-12.47,38-37.69,63.18-38,12.47-63.18,37.69" transform="translate(172.42 206.52)"/><path class="cls-3" d="M304.28,5.27c-25.21,25.22-38,12.47-63.17,37.68s-12.47,38-37.69,63.18-38,12.47-63.17,37.68-12.47,38-37.69,63.19-38,12.47-63.19,37.68" transform="translate(172.42 206.52)"/><path class="cls-3" d="M320.55,21.54c-25.22,25.21-38,12.46-63.18,37.68s-12.47,38-37.68,63.18-38,12.46-63.18,37.68S144,198,118.82,223.26s-38,12.47-63.18,37.69" transform="translate(172.42 206.52)"/><path class="cls-3" d="M336.81,37.8c-25.21,25.21-38,12.47-63.18,37.68s-12.46,38-37.68,63.18-38,12.47-63.17,37.68-12.47,38-37.69,63.18S97.12,252,71.9,277.21" transform="translate(172.42 206.52)"/><path class="cls-3" d="M353.08,54.07c-25.22,25.21-38,12.46-63.18,37.68s-12.47,38-37.68,63.17-38,12.47-63.18,37.69-12.47,38-37.69,63.18-38,12.47-63.18,37.69" transform="translate(172.42 206.52)"/><path class="cls-3" d="M369.34,70.33c-25.21,25.21-38,12.47-63.18,37.68s-12.46,38-37.68,63.18-38,12.47-63.18,37.68-12.47,38-37.68,63.18-38,12.47-63.19,37.69" transform="translate(172.42 206.52)"/><path class="cls-3" d="M385.61,86.59c-25.22,25.22-38,12.47-63.18,37.68s-12.47,38-37.68,63.18-38,12.47-63.18,37.68-12.47,38-37.69,63.19-38,12.47-63.18,37.69" transform="translate(172.42 206.52)"/><path class="cls-3" d="M401.87,102.86c-25.21,25.21-38,12.47-63.18,37.68s-12.46,38-37.68,63.18-38,12.46-63.18,37.68-12.47,38-37.68,63.18-38,12.47-63.19,37.69" transform="translate(172.42 206.52)"/><path class="cls-3" d="M418.13,119.12c-25.21,25.22-38,12.47-63.17,37.68s-12.47,38-37.68,63.18-38,12.47-63.18,37.68-12.47,38-37.69,63.19-38,12.47-63.18,37.69" transform="translate(172.42 206.52)"/><path class="cls-3" d="M434.4,135.39c-25.22,25.21-38,12.46-63.18,37.68s-12.46,38-37.68,63.18-38,12.46-63.18,37.68-12.47,38-37.69,63.18-38,12.47-63.18,37.69" transform="translate(172.42 206.52)"/><rect class="cls-1" x="172.42" y="206.52" width="240.94" height="155.91"/></g></g></g></svg>