<svg xmlns="http://www.w3.org/2000/svg" viewBox="0 0 826.76 140.75"><defs><style>.cls-1{fill:#303031;}</style></defs><g id="Livello_2" data-name="Livello 2"><g id="Livello_2-2" data-name="Livello 2"><path class="cls-1" d="M242.2,99.68V34.5a2,2,0,0,1,2.26-2.26h16.87c22.8,0,29.92,4.61,29.92,17.23,0,9.63-4.91,14.75-15.84,16.54,13.07,1.35,18.39,6.18,18.39,17,0,13.14-9,18.93-31.57,18.93H244.46A2,2,0,0,1,242.2,99.68Zm43.65-50c0-9.56-5.71-12.47-24.56-12.47H247.47V63.87h14.26C278.29,63.87,285.85,59.89,285.85,49.72Zm2.54,33.4c0-10.81-6.5-14.42-25.83-14.42H247.47V97h14.74C280.74,97,288.39,92.85,288.39,83.12Z"/><path class="cls-1" d="M330.46,49.16l-.1.61a2.13,2.13,0,0,1-2.59,1.92c-12.61-1.35-17.4,7.36-17.4,20.92V99.68a2,2,0,0,1-2.26,2.27h-.7a2,2,0,0,1-2.26-2.27V49.14a2,2,0,0,1,2.26-2.27h.7a2,2,0,0,1,2.26,2.23v8.38c2.23-6.5,7.45-12,18.11-10.89A2,2,0,0,1,330.46,49.16Z"/><path class="cls-1" d="M337.77,35.54a3.5,3.5,0,0,1,7,0,3.5,3.5,0,0,1-7,0Zm.88,64.14V49.14a2,2,0,0,1,2.2-2.27h.69a2,2,0,0,1,2.2,2.27V99.68a2,2,0,0,1-2.2,2.27h-.69A2,2,0,0,1,338.65,99.68Z"/><path class="cls-1" d="M379.28,102.91c-10.41,0-19.67-4.44-24.37-11.31a1.8,1.8,0,0,1,.9-3l.58-.22c1.31-.48,2.13-.44,3,.77,4.24,5.73,11.45,8.82,19.86,8.82,10.86,0,17.6-4.35,17.6-11.34,0-15.8-39.66-5.16-39.66-25.85,0-9,8.9-14.9,21.36-14.9,8.52,0,16.23,3.59,20.81,9,1,1.16.68,2.3-.63,3l-.5.29c-1.21.62-2.07.33-3.05-.65a23.42,23.42,0,0,0-16.6-6.81c-9.79,0-16.21,3.85-16.21,10,0,16,39.72,5,39.72,25.89,0,9.83-9.14,16.31-22.84,16.31Z"/><path class="cls-1" d="M409.69,74.41c0-19.66,12.87-28.6,26.38-28.6,9.91,0,18.61,4.86,22.33,15.17V49.14a2.05,2.05,0,0,1,2.27-2.27h.69a2,2,0,0,1,2.26,2.27V99.59a2,2,0,0,1-2.26,2.26h-.69a2,2,0,0,1-2.27-2.26V88.05c-3.62,10.27-12.35,15.15-22.15,15.15C422.58,103.2,409.69,94.25,409.69,74.41Zm48.77,0c0-14.51-8.73-23.7-21.87-23.7S414.9,59.8,414.9,74.41c0,14.78,8.56,23.88,21.88,23.88C449.83,98.29,458.46,89.09,458.46,74.41Z"/><path class="cls-1" d="M475.89,89.85c-2.29-3.73-1-6.49,3.24-7.88l1.3-.42c3.4-1.11,5.29,0,8.05,2.89A19.49,19.49,0,0,0,503,90.76c7.36,0,11.74-3.1,11.74-8.29,0-13.56-38.23-4.69-38.23-30.85,0-12.07,10.25-20.23,25-20.23,11,0,20.95,4.38,25.27,11.37,2.54,4.1,1.4,7-3,8.08l-1.6.38c-4.18,1-5.74-.74-8.63-3.28a16,16,0,0,0-11.34-4.42c-6.66,0-10.79,3-10.79,7.74C491.41,66,530,55.75,530,82c0,12.53-11,20.76-26.85,20.76C491.29,102.78,480.63,97.57,475.89,89.85Z"/><path class="cls-1" d="M537.21,74.41C537.21,54.58,551.3,46,565.68,46s28.46,8.6,28.46,28.43c0,20-14,28.56-28.46,28.56S537.21,94.44,537.21,74.41Zm42.34,0c0-10.31-5.71-16.48-13.91-16.48S551.77,64,551.77,74.38,557.49,91,565.71,91,579.55,84.81,579.55,74.38Z"/><path class="cls-1" d="M657.51,71.65V95.53c0,4.14-2.28,6.42-6.41,6.42h-1.8c-4.14,0-6.41-2.28-6.41-6.42V73c0-10.12-3.73-14.78-11.95-14.78-8.48,0-11.82,5.43-11.82,15.61v21.7c0,4.14-2.28,6.42-6.42,6.42h-1.79c-4.14,0-6.41-2.28-6.41-6.42V53.29c0-4.14,2.27-6.42,6.41-6.42h1.79c4.14,0,6.42,2.28,6.42,6.23v2.78c2.42-5.68,8.72-9.83,17-9.83C650.93,46.05,657.51,54.26,657.51,71.65Z"/><path class="cls-1" d="M667,74.41C667,54.58,681.06,46,695.43,46s28.47,8.6,28.47,28.43c0,20-14,28.56-28.47,28.56S667,94.44,667,74.41Zm42.34,0c0-10.31-5.72-16.48-13.91-16.48S681.52,64,681.52,74.38,687.24,91,695.47,91,709.31,84.81,709.31,74.38Z"/><path class="cls-1" d="M766.76,52.93,766.64,54c-.44,4-2.73,5.11-6.72,5.8-7.28,1.24-11,6.1-11,16.19V95.53c0,4.14-2.27,6.41-6.41,6.41h-1.79c-4.14,0-6.42-2.27-6.42-6.41V53.28c0-4.13,2.28-6.41,6.42-6.41h1.79c4.14,0,6.41,2,6.41,5.9v2.44a13.11,13.11,0,0,1,12.71-8.9C765.5,46.31,767.23,48.76,766.76,52.93Z"/><path class="cls-1" d="M770.06,74.41C770.06,55.92,780.4,46,794.14,46c7.7,0,15.05,3.82,17.91,10.56v-4c0-3.56,2.34-5.61,6.41-5.61h1.8c4.13,0,6.41,2.27,6.41,6.41V95.44c0,4.13-2.28,6.41-6.41,6.41h-1.8c-4,0-6.41-2-6.41-5.48V92.6C809.26,99.15,801.84,103,794.2,103,780.5,103,770.06,92.93,770.06,74.41Zm42.44,0c0-10.15-5.65-16.48-14-16.48s-13.88,6.3-13.88,16.48S790.27,91,798.66,91,812.5,84.62,812.5,74.38Z"/><path class="cls-1" d="M498.49,140.35h-.34a.89.89,0,0,1-.84-.55L495.22,135h-13l-2.09,4.76a.88.88,0,0,1-.84.55H479c-.54,0-.76-.34-.55-.84l9.28-20.67a.87.87,0,0,1,.84-.55h.38a.87.87,0,0,1,.84.55L499,139.51C499.23,140,499,140.35,498.49,140.35Zm-9.78-20.1-5.83,13.26h11.66Z"/><path class="cls-1" d="M500.35,137.08a.58.58,0,0,1,.28-1l.18-.06a.69.69,0,0,1,1,.24,7.6,7.6,0,0,0,6.29,2.79c3.44,0,5.57-1.38,5.57-3.59,0-5-12.56-1.63-12.56-8.18,0-2.83,2.82-4.71,6.76-4.71a8.68,8.68,0,0,1,6.59,2.84.57.57,0,0,1-.2,1l-.16.09a.73.73,0,0,1-1-.21,7.44,7.44,0,0,0-5.25-2.16c-3.11,0-5.14,1.23-5.14,3.16,0,5,12.57,1.57,12.57,8.19,0,3.11-2.89,5.17-7.22,5.17A9.3,9.3,0,0,1,500.35,137.08Z"/><path class="cls-1" d="M517.44,137.08a.58.58,0,0,1,.29-1l.18-.06a.69.69,0,0,1,1,.24,7.59,7.59,0,0,0,6.29,2.79c3.43,0,5.56-1.38,5.56-3.59,0-5-12.55-1.63-12.55-8.18,0-2.83,2.82-4.71,6.76-4.71a8.68,8.68,0,0,1,6.59,2.84.58.58,0,0,1-.2,1l-.16.09a.73.73,0,0,1-1-.21,7.44,7.44,0,0,0-5.26-2.16c-3.1,0-5.13,1.23-5.13,3.16,0,5,12.57,1.57,12.57,8.19,0,3.11-2.89,5.17-7.22,5.17A9.32,9.32,0,0,1,517.44,137.08Z"/><path class="cls-1" d="M534.79,131.64c0-6.28,4.21-9.06,8.51-9.06s8.57,2.78,8.57,9.06-4.24,9.11-8.51,9.11S534.79,138,534.79,131.64Zm15.43,0c0-4.6-2.76-7.51-6.92-7.51s-6.86,2.88-6.86,7.51,2.7,7.55,6.92,7.55S550.22,136.28,550.22,131.64Z"/><path class="cls-1" d="M563.28,140.69c-4.87,0-8.41-3.74-8.41-9.05s3.52-9.06,8.41-9.06a7.88,7.88,0,0,1,7.37,4.08.6.6,0,0,1-.39.93l-.17.06a.74.74,0,0,1-1-.37,6.3,6.3,0,0,0-5.83-3.15c-4,0-6.79,3.09-6.79,7.51s2.81,7.49,6.79,7.49a6.32,6.32,0,0,0,5.82-3.14.7.7,0,0,1,.94-.37l.15,0c.47.18.67.46.44.88a7.89,7.89,0,0,1-7.39,4.14Z"/><path class="cls-1" d="M574.65,119.33a1.06,1.06,0,0,1,1.1-1.09,1.08,1.08,0,0,1,1.11,1.09,1.11,1.11,0,0,1-1.11,1.1A1.08,1.08,0,0,1,574.65,119.33Zm.27,20.3v-16a.64.64,0,0,1,.7-.72h.22a.64.64,0,0,1,.7.72v16a.64.64,0,0,1-.7.72h-.22A.64.64,0,0,1,574.92,139.63Z"/><path class="cls-1" d="M580.32,131.64c0-6.23,4.07-9.06,8.35-9.06a7.12,7.12,0,0,1,7.07,4.81v-3.75a.64.64,0,0,1,.71-.72h.22a.65.65,0,0,1,.72.72v16a.65.65,0,0,1-.72.72h-.22a.65.65,0,0,1-.71-.72V136a7.07,7.07,0,0,1-7,4.8C584.4,140.75,580.32,137.91,580.32,131.64Zm15.44,0c0-4.6-2.77-7.51-6.93-7.51S582,127,582,131.64s2.71,7.55,6.92,7.55S595.76,136.28,595.76,131.64Z"/><path class="cls-1" d="M601.28,139.65v-.39a1.34,1.34,0,0,1,.33-.88l11.76-13.93H602.22a.68.68,0,0,1-.77-.76.69.69,0,0,1,.77-.77h12.42a.64.64,0,0,1,.72.7V124a1.38,1.38,0,0,1-.34.89l-11.73,13.89h11.15c.49,0,.72.27.72.78a.66.66,0,0,1-.72.76H602A.64.64,0,0,1,601.28,139.65Z"/><path class="cls-1" d="M619.08,119.33a1.11,1.11,0,0,1,2.21,0,1.11,1.11,0,0,1-2.21,0Zm.28,20.3v-16a.63.63,0,0,1,.69-.72h.22a.64.64,0,0,1,.7.72v16a.64.64,0,0,1-.7.72h-.22A.64.64,0,0,1,619.36,139.63Z"/><path class="cls-1" d="M624.75,131.64c0-6.28,4.21-9.06,8.52-9.06s8.56,2.78,8.56,9.06-4.23,9.11-8.51,9.11S624.75,138,624.75,131.64Zm15.43,0c0-4.6-2.75-7.51-6.91-7.51s-6.87,2.88-6.87,7.51,2.71,7.55,6.92,7.55S640.18,136.28,640.18,131.64Z"/><path class="cls-1" d="M660.67,131.1v8.53a.65.65,0,0,1-.72.72h-.22a.65.65,0,0,1-.71-.72v-8.48c0-4.66-1.86-7-6-7s-5.93,2.8-5.93,7.57v7.86a.65.65,0,0,1-.72.72h-.22a.65.65,0,0,1-.71-.72v-16a.64.64,0,0,1,.71-.72h.22a.65.65,0,0,1,.72.72v3.41a6,6,0,0,1,6.14-4.41C658.25,122.64,660.67,125.58,660.67,131.1Z"/><path class="cls-1" d="M663.82,131.64c0-5.37,3.5-9.06,8.59-9.06s8.29,3.36,8.3,8.46a.64.64,0,0,1-.71.72H665.47c0,4.56,2.77,7.38,7.13,7.38a6.62,6.62,0,0,0,5.89-2.88.8.8,0,0,1,.94-.34l.22.09c.46.18.57.46.34.85a8.2,8.2,0,0,1-7.4,3.83C667.28,140.69,663.82,137.09,663.82,131.64Zm8.6-7.54a6.58,6.58,0,0,0-6.86,6.15h13.49C678.88,126.5,676.36,124.1,672.42,124.1Z"/><path class="cls-1" d="M718.77,132v7.66a.65.65,0,0,1-.72.72h-.22a.65.65,0,0,1-.72-.72V132c0-5.31-1.32-7.89-5.15-7.89s-5.39,2.54-5.39,7.92v7.57a.65.65,0,0,1-.71.72h-.22a.65.65,0,0,1-.72-.72v-7.55c0-5.33-1.06-7.88-4.87-7.88s-5.41,2.81-5.41,8.22v7.21a.65.65,0,0,1-.72.72h-.22a.65.65,0,0,1-.71-.72v-16a.64.64,0,0,1,.71-.72h.22a.65.65,0,0,1,.72.72v3.54a5.58,5.58,0,0,1,5.62-4.54c3.37,0,5,1.66,5.79,4.93a6,6,0,0,1,6.4-5C717.16,122.58,718.77,125.77,718.77,132Z"/><path class="cls-1" d="M737.25,123.64v16a.65.65,0,0,1-.71.72h-.22a.65.65,0,0,1-.72-.72v-3.41a6,6,0,0,1-6.14,4.41c-5,0-7.43-2.94-7.43-8.46v-8.53a.65.65,0,0,1,.72-.72H723a.64.64,0,0,1,.71.72v8.48c0,4.66,1.86,6.95,6,6.95s5.93-2.8,5.93-7.57v-7.86a.65.65,0,0,1,.72-.72h.22A.64.64,0,0,1,737.25,123.64Z"/><path class="cls-1" d="M740.86,137.08a.58.58,0,0,1,.29-1l.18-.06a.69.69,0,0,1,1,.24,7.59,7.59,0,0,0,6.29,2.79c3.43,0,5.57-1.38,5.57-3.59,0-5-12.56-1.63-12.56-8.18,0-2.83,2.82-4.71,6.76-4.71a8.68,8.68,0,0,1,6.59,2.84.58.58,0,0,1-.2,1l-.16.09a.73.73,0,0,1-1-.21,7.44,7.44,0,0,0-5.26-2.16c-3.1,0-5.13,1.23-5.13,3.16,0,5,12.57,1.57,12.57,8.19,0,3.11-2.89,5.17-7.22,5.17A9.33,9.33,0,0,1,740.86,137.08Z"/><path class="cls-1" d="M758.66,119.33a1.11,1.11,0,0,1,2.21,0,1.11,1.11,0,0,1-2.21,0Zm.28,20.3v-16a.64.64,0,0,1,.69-.72h.22a.64.64,0,0,1,.7.72v16a.64.64,0,0,1-.7.72h-.22A.64.64,0,0,1,758.94,139.63Z"/><path class="cls-1" d="M764.33,131.64c0-5.3,3.52-9.06,8.4-9.06a7.89,7.89,0,0,1,7.38,4.08.6.6,0,0,1-.39.93l-.17.06a.73.73,0,0,1-.94-.37,6.31,6.31,0,0,0-5.84-3.15c-4,0-6.79,3.09-6.79,7.51s2.81,7.49,6.79,7.49a6.32,6.32,0,0,0,5.82-3.14.7.7,0,0,1,.94-.37l.15,0c.47.18.66.46.44.88a7.89,7.89,0,0,1-7.39,4.14C767.87,140.69,764.33,137,764.33,131.64Z"/><path class="cls-1" d="M783.05,131.64c0-6.23,4.07-9.06,8.35-9.06a7.1,7.1,0,0,1,7.06,4.81v-3.75a.65.65,0,0,1,.72-.72h.22a.64.64,0,0,1,.71.72v16a.65.65,0,0,1-.71.72h-.22a.65.65,0,0,1-.72-.72V136a7.05,7.05,0,0,1-7,4.8C787.12,140.75,783.05,137.91,783.05,131.64Zm15.43,0c0-4.6-2.76-7.51-6.92-7.51s-6.86,2.88-6.86,7.51,2.7,7.55,6.92,7.55S798.48,136.28,798.48,131.64Z"/><path class="cls-1" d="M804.59,139.63V118a.65.65,0,0,1,.72-.72h.22a.65.65,0,0,1,.72.72v21.66a.65.65,0,0,1-.72.72h-.22A.65.65,0,0,1,804.59,139.63Z"/><path class="cls-1" d="M809.86,131.64c0-5.37,3.5-9.06,8.59-9.06s8.29,3.36,8.31,8.46a.65.65,0,0,1-.72.72H811.52c0,4.56,2.76,7.38,7.12,7.38a6.62,6.62,0,0,0,5.89-2.88.81.81,0,0,1,1-.34l.21.09c.46.18.57.46.34.85a8.2,8.2,0,0,1-7.4,3.83C813.33,140.69,809.86,137.09,809.86,131.64Zm8.6-7.54a6.57,6.57,0,0,0-6.85,6.15h13.48C824.92,126.5,822.4,124.1,818.46,124.1Z"/><path class="cls-1" d="M20.11,90.48v10H10.05a10.05,10.05,0,0,1-10-10,9.9,9.9,0,0,1,3-7.1,10,10,0,0,1,17.16,7.1Z"/><path class="cls-1" d="M20.09,40.21V50.28a10,10,0,1,1-10-10.07Z"/><path class="cls-1" d="M35,140.72A4.71,4.71,0,0,1,30.33,136V4.77a4.63,4.63,0,1,1,9.26,0V136A4.7,4.7,0,0,1,35,140.72Z"/><path class="cls-1" d="M178.82,74.82a35.1,35.1,0,0,0-19-9c-.15,0-.58-.06-1.2-.09a3.49,3.49,0,0,0,.35-.32,38.41,38.41,0,0,0,1.2-54.37,35.59,35.59,0,0,0-25.84-11h-32V0H86.46C77.67,0,70.54,7.4,70.54,16.46a16.59,16.59,0,0,0,4.63,11.6,15.54,15.54,0,0,0,11.29,4.82,16.17,16.17,0,0,0,15.91-16.42V9.59h32a26.57,26.57,0,0,1,19.27,8.21,28.53,28.53,0,0,1,8,19.88A28.05,28.05,0,0,1,143.9,64a25.5,25.5,0,0,1-5.55,1.49H91.11l-7.81.22c-.32,0-.64,0-1,.07A35.86,35.86,0,0,0,59.69,78.11V4.77a4.63,4.63,0,1,0-9.25,0V136a4.73,4.73,0,0,0,3.69,4.66,4.17,4.17,0,0,0,.94.1A4.7,4.7,0,0,0,59.69,136V102.43c.31-13.46,10-24.9,22.37-27a9.63,9.63,0,0,1,1.52-.11h74.77c13.46,1.81,23.59,13.75,23.59,27.79a28.5,28.5,0,0,1-8,19.89,26.39,26.39,0,0,1-19.24,8.23H102.38v-7a16.59,16.59,0,0,0-4.63-11.59,15.57,15.57,0,0,0-22.53,0,16.41,16.41,0,0,0-4.67,11.59,16.17,16.17,0,0,0,15.91,16.42h7.77a3.88,3.88,0,0,0,1,.12H154.7a35.51,35.51,0,0,0,25.81-11.07,38.51,38.51,0,0,0-1.69-54.86Z"/></g></g></svg>