
<svg xmlns="http://www.w3.org/2000/svg" viewBox="0 0 200 140.75">
<defs>
<style>.cls-1{fill:#30b8c6;}
</style>
</defs>

<g id="Livello_2" data-name="Livello 2">
<g id="Livello_2-2" data-name="Livello 2">

<path class="cls-1" d="M20.11,90.48v10H10.05a10.05,10.05,0,0,1-10-10,9.9,9.9,0,0,1,3-7.1,10,10,0,0,1,17.16,7.1Z"/>
<path class="cls-1" d="M20.09,40.21V50.28a10,10,0,1,1-10-10.07Z"/>
<path class="cls-1" d="M35,140.72A4.71,4.71,0,0,1,30.33,136V4.77a4.63,4.63,0,1,1,9.26,0V136A4.7,4.7,0,0,1,35,140.72Z"/>
<path class="cls-1" d="M178.82,74.82a35.1,35.1,0,0,0-19-9c-.15,0-.58-.06-1.2-.09a3.49,3.49,0,0,0,.35-.32,38.41,38.41,0,0,0,1.2-54.37,35.59,35.59,0,0,0-25.84-11h-32V0H86.46C77.67,0,70.54,7.4,70.54,16.46a16.59,16.59,0,0,0,4.63,11.6,15.54,15.54,0,0,0,11.29,4.82,16.17,16.17,0,0,0,15.91-16.42V9.59h32a26.57,26.57,0,0,1,19.27,8.21,28.53,28.53,0,0,1,8,19.88A28.05,28.05,0,0,1,143.9,64a25.5,25.5,0,0,1-5.55,1.49H91.11l-7.81.22c-.32,0-.64,0-1,.07A35.86,35.86,0,0,0,59.69,78.11V4.77a4.63,4.63,0,1,0-9.25,0V136a4.73,4.73,0,0,0,3.69,4.66,4.17,4.17,0,0,0,.94.1A4.7,4.7,0,0,0,59.69,136V102.43c.31-13.46,10-24.9,22.37-27a9.63,9.63,0,0,1,1.52-.11h74.77c13.46,1.81,23.59,13.75,23.59,27.79a28.5,28.5,0,0,1-8,19.89,26.39,26.39,0,0,1-19.24,8.23H102.38v-7a16.59,16.59,0,0,0-4.63-11.59,15.57,15.57,0,0,0-22.53,0,16.41,16.41,0,0,0-4.67,11.59,16.17,16.17,0,0,0,15.91,16.42h7.77a3.88,3.88,0,0,0,1,.12H154.7a35.51,35.51,0,0,0,25.81-11.07,38.51,38.51,0,0,0-1.69-54.86Z"/>
</g>
</g>
</svg>