<svg width="1045" height="264" viewBox="0 0 1045 264" fill="none" xmlns="http://www.w3.org/2000/svg">
<path d="M1005.53 178.009C1002.15 177.137 1000.13 176.701 999.499 176.556L998.229 175.176L997.594 175.467L1009.34 187.959C1007.86 187.741 1006.17 188.322 1005.11 189.412C1003.84 190.792 1004.05 192.389 1005.64 193.043C1007.12 193.697 1009.45 193.188 1010.72 191.808C1011.67 190.792 1011.78 189.557 1011.03 188.758L1001.93 179.171C1008.39 179.098 1010.93 181.568 1010.93 181.568C1013.47 184.255 1012.94 187.087 1012.94 187.087C1014.1 184.618 1011.99 181.568 1011.99 181.568C1010.72 180.188 1009.66 179.026 1005.53 178.009Z" fill="#25B8C9"/>
<path d="M980.555 195.295C976.745 195.513 974.522 195.585 973.781 195.658L971.77 194.714L971.347 195.15L990.397 203.647C988.916 203.865 987.54 204.882 987.222 206.335C986.905 208.005 988.069 209.529 989.974 209.674C991.879 209.892 993.678 208.659 993.996 206.988C994.313 205.681 993.572 204.519 992.408 203.938L977.697 197.401C983.835 195.44 987.857 197.038 987.857 197.038C991.985 198.854 993.149 201.686 993.149 201.686C992.726 198.999 988.704 196.675 988.704 196.675C986.587 195.731 984.894 194.932 980.343 195.15L980.555 195.295Z" fill="#25B8C9"/>
<path d="M807.831 255.503C812.594 258.626 815.346 260.441 816.298 261.095L816.933 264L818.203 263.855L812.382 237.056C814.499 238.218 817.991 238.145 821.061 236.838C824.659 235.24 826.035 232.407 824.236 230.519C822.437 228.631 818.097 228.34 814.499 229.938C811.747 231.173 810.265 233.134 810.583 234.804L815.028 255.357C804.233 252.089 802.751 246.715 802.751 246.715C801.481 240.978 805.503 236.62 805.503 236.62C800.952 240.106 801.058 246.28 801.058 246.28C801.693 249.184 802.116 251.726 807.831 255.43V255.503Z" fill="#25B8C9"/>
<path d="M550.015 157.456C544.512 153.316 541.337 150.92 540.278 150.048L539.855 146.417L538.268 146.489L542.289 180.043C539.749 178.518 535.41 178.372 531.494 179.825C526.837 181.568 524.721 185.054 526.731 187.451C528.742 189.92 534.14 190.429 538.691 188.686C542.289 187.306 544.3 184.982 544.194 182.875L541.125 157.093C554.143 161.741 555.307 168.496 555.307 168.496C556.154 175.685 550.65 180.842 550.65 180.842C556.789 176.774 557.212 169.077 557.212 169.077C556.789 165.373 556.472 162.25 549.91 157.311L550.015 157.456Z" fill="#25B8C9"/>
<path d="M338.027 81.1244C344.589 83.0128 348.399 84.1022 349.669 84.4654L351.891 87.2253L353.161 86.7169L332.1 61.3693C334.852 61.9503 338.45 60.9335 340.673 58.8273C343.319 56.2863 343.213 53.0179 340.355 51.638C337.498 50.1854 332.947 51.1296 330.301 53.6716C328.291 55.6326 327.868 58.0283 329.138 59.6262L345.329 79.0908C332.629 78.7277 328.08 73.7162 328.08 73.7162C323.529 68.2691 325.116 62.8219 325.116 62.8219C322.47 67.5428 326.175 73.7162 326.175 73.7162C328.503 76.4762 330.408 78.8729 338.133 81.1244H338.027Z" fill="#25B8C9"/>
<path d="M197.054 24.0392C190.386 14.5258 186.47 9.00602 185.095 7.11766L187.105 0.435775L184.142 0L165.515 62.1686C162.234 58.4645 154.403 56.5771 146.254 57.8834C136.517 59.4086 130.061 64.8558 131.754 70.0125C133.448 75.1692 142.761 78.147 152.498 76.6218C160.013 75.4597 165.515 71.9735 166.891 68.0515L181.284 20.3352C201.182 33.481 198.112 46.1185 198.112 46.1185C194.091 59.4086 180.12 66.8168 180.12 66.8168C194.302 61.7328 201.182 47.9342 201.182 47.9342C203.193 41.1071 205.098 35.3694 197.16 24.0392H197.054Z" fill="#25B8C9"/>
<path d="M771.106 217.809L743.8 201.904L742.953 201.396L739.99 203.792L723.691 216.937C723.585 215.339 721.469 213.741 718.505 213.16C714.907 212.434 711.414 213.451 710.673 215.339C709.932 217.228 712.155 219.334 715.753 219.988C718.505 220.496 721.257 220.06 722.633 218.971L740.837 204.228L768.143 220.133L751.844 233.279C751.738 231.681 749.621 230.083 746.658 229.502C743.059 228.776 739.567 229.793 738.826 231.681C738.085 233.569 740.308 235.675 743.906 236.329C746.658 236.838 749.409 236.402 750.785 235.312L768.989 220.569L771.953 218.172L771.106 217.663V217.809Z" fill="#25B8C9"/>
<path d="M525.038 127.025L486.409 117.801L485.139 117.511L483.446 120.924L473.92 139.516C472.862 137.846 469.687 136.756 466.194 136.974C461.961 137.265 458.786 139.298 459.103 141.477C459.421 143.729 463.019 145.327 467.253 145.036C470.534 144.818 473.074 143.584 474.026 141.986L484.61 121.142L523.239 130.366L513.713 148.958C512.655 147.288 509.48 146.198 505.987 146.416C501.754 146.707 498.58 148.74 498.898 150.919C499.215 153.171 502.812 154.769 507.046 154.478C510.327 154.26 512.867 153.025 513.819 151.428L524.403 130.584L526.096 127.17L524.826 126.88L525.038 127.025Z" fill="#25B8C9"/>
<path d="M310.299 83.8118L270.399 62.1683L269.129 61.5146L265.001 65.0735L242.775 84.3202C242.458 82.0687 239.389 79.8898 235.155 79.1635C230.075 78.292 225.101 79.8172 224.148 82.5045C223.196 85.1918 226.477 88.0969 231.662 88.9685C235.578 89.6221 239.389 88.8958 241.399 87.298L266.271 65.7271L306.171 87.3706L283.946 106.616C283.628 104.365 280.559 102.186 276.325 101.46C271.245 100.588 266.271 102.113 265.318 104.801C264.366 107.488 267.647 110.393 272.833 111.265C276.749 111.918 280.559 111.192 282.57 109.594L307.441 88.0243L311.569 84.4655L310.299 83.8118Z" fill="#25B8C9"/>
<path d="M1025.22 204.228L1025.32 184.982C1025.43 183.892 1026.59 182.73 1028.6 182.076C1031.14 181.277 1033.89 181.713 1034.85 183.093C1035.69 184.473 1034.42 186.144 1031.88 186.943C1029.77 187.596 1027.44 187.378 1026.27 186.507L1026.17 204.228H1025.32H1025.22ZM1026.91 186.434C1027.44 186.943 1029.45 186.434 1031.25 185.345C1033.05 184.255 1034.11 183.021 1033.58 182.585C1033.05 182.076 1031.04 182.585 1029.24 183.674C1027.44 184.764 1026.38 185.998 1026.91 186.434Z" fill="#25B8C9"/>
<path d="M897.579 213.451L914.936 226.597C915.889 227.396 916.1 228.703 915.359 229.938C914.301 231.536 912.078 232.407 910.279 231.899C908.48 231.391 907.845 229.648 908.797 227.977C909.644 226.597 911.443 225.798 913.031 225.871L897.05 213.814L897.579 213.451ZM912.608 226.234C911.761 226.161 910.914 227.323 910.597 228.849C910.279 230.374 910.703 231.609 911.549 231.681C912.396 231.754 913.243 230.592 913.56 229.066C913.878 227.541 913.454 226.307 912.608 226.234Z" fill="#25B8C9"/>
<path d="M429.363 167.769L414.44 135.74C413.699 133.852 414.864 131.456 417.615 129.713C421.214 127.461 426.188 127.171 428.728 129.132C431.268 131.02 430.422 134.433 426.823 136.684C423.754 138.573 419.838 139.081 417.086 138.064L430.845 167.552L429.469 167.842L429.363 167.769ZM418.145 137.628C419.52 138.209 422.378 136.684 424.601 134.287C426.823 131.819 427.564 129.422 426.188 128.841C424.812 128.26 421.955 129.785 419.732 132.182C417.51 134.651 416.769 137.047 418.145 137.628Z" fill="#25B8C9"/>
<path d="M136.835 126.444L168.902 91.0023C170.912 88.9687 175.04 87.8067 179.697 88.2424C185.73 88.7508 190.069 91.8013 189.434 94.9243C188.799 98.119 183.507 100.225 177.474 99.7168C172.5 99.2811 168.584 97.1022 167.843 94.4885L138.316 127.098L136.729 126.444H136.835ZM169.325 94.9243C169.642 96.2306 173.982 96.8843 179.168 96.3759C184.354 95.8675 188.27 94.3433 187.952 93.036C187.635 91.7286 183.295 91.075 178.109 91.5834C172.923 92.0918 169.007 93.617 169.325 94.9243Z" fill="#25B8C9"/>
<path d="M376.128 104.874L377.292 100.661L378.033 97.7558L379.197 93.5444L384.171 75.0966C384.806 73.1356 387.558 71.3925 391.262 70.7388C396.131 69.8673 400.788 71.3198 401.74 73.8619C402.693 76.4039 399.517 79.1638 394.755 80.0353C390.733 80.7616 386.817 79.8901 385.018 78.0744L380.784 93.8349L428.093 99.7895L432.962 81.3427C433.597 79.3817 436.349 77.6386 440.053 76.9849C444.921 76.1134 449.578 77.5659 450.531 80.108C451.483 82.65 448.308 85.4099 443.545 86.2814C439.524 87.0077 435.608 86.1362 433.808 84.3205L429.575 100.08L428.411 104.292L427.67 107.198L426.506 111.41L425.024 111.192L377.715 105.237L376.234 105.019L376.128 104.874ZM378.774 100.879L426.082 106.834L426.823 103.929L379.514 97.9737L378.774 100.879Z" fill="#25B8C9"/>
<path d="M853.763 254.413L853.234 252.234L852.916 250.709L852.387 248.53L850.164 238.944C849.953 237.927 850.905 236.692 852.493 235.966C854.609 235.022 857.255 235.167 858.42 236.257C859.478 237.419 858.631 239.089 856.514 240.106C854.715 240.905 852.599 240.978 851.223 240.251L853.128 248.457L877.788 245.844L875.565 236.257C875.353 235.24 876.306 234.005 877.893 233.279C880.01 232.335 882.656 232.48 883.82 233.569C884.878 234.731 884.032 236.402 881.915 237.419C880.116 238.218 877.999 238.29 876.623 237.564L878.528 245.771L879.058 247.949L879.375 249.474L879.904 251.653L879.163 251.726L854.504 254.34L853.763 254.413ZM854.08 252.161L878.74 249.547L878.422 248.022L853.763 250.636L854.08 252.161Z" fill="#25B8C9"/>
<path d="M975.263 208.15L974.733 210.11L974.416 211.418L973.887 213.379L971.558 221.876C971.241 222.748 969.971 223.619 968.277 223.837C966.055 224.2 963.938 223.547 963.515 222.385C963.091 221.223 964.573 219.915 966.796 219.552C968.701 219.262 970.5 219.625 971.241 220.496L973.252 213.306L960.022 211.563L957.694 220.061C957.376 220.932 956.106 221.804 954.413 222.022C952.19 222.385 950.074 221.731 949.65 220.569C949.227 219.407 950.709 218.1 952.931 217.736C954.836 217.446 956.636 217.809 957.376 218.681L959.387 211.49L946.158 209.747L943.829 218.245C943.512 219.116 942.242 219.988 940.548 220.206C938.326 220.569 936.209 219.915 935.786 218.753C935.363 217.591 936.844 216.284 939.067 215.921C940.972 215.63 942.771 215.993 943.512 216.865L945.523 209.675L946.052 207.715L946.369 206.407L946.899 204.446L947.639 204.519L960.869 206.262L961.504 206.335L974.733 208.078L975.474 208.15H975.263ZM959.811 209.529L960.128 208.223L946.899 206.48L946.581 207.787L959.811 209.529ZM974.098 210.038L960.869 208.296L960.551 209.602L973.781 211.345L974.098 210.038Z" fill="#25B8C9"/>
<path d="M576.369 218.535L595.419 221.513L596.372 221.658L615.422 224.636L616.375 224.781L617.327 222.021L622.407 206.915C623.466 208.15 626.112 208.804 628.758 208.44C632.038 208.005 634.261 206.189 633.732 204.446C633.203 202.703 630.133 201.686 626.958 202.122C624.418 202.485 622.619 203.574 622.09 204.882L616.481 221.731L597.43 218.753L602.51 203.647C603.569 204.882 606.109 205.535 608.86 205.172C612.141 204.736 614.364 202.921 613.835 201.177C613.305 199.434 610.236 198.418 606.955 198.853C604.415 199.216 602.616 200.306 602.087 201.613L596.477 218.462L577.427 215.484L582.507 200.379C583.565 201.613 586.211 202.267 588.857 201.904C592.138 201.468 594.361 199.652 593.832 197.909C593.302 196.166 590.233 195.149 587.058 195.585C584.518 195.948 582.719 197.038 582.19 198.345L576.58 215.194L575.628 217.954L576.58 218.099L576.369 218.535Z" fill="#25B8C9"/>
<path d="M681.357 199.508C680.933 201.541 679.663 202.631 678.288 203.793C678.288 203.793 673.207 206.988 667.282 206.698C667.282 206.698 673.631 206.335 677.547 202.848C677.547 202.848 678.499 201.977 678.711 200.234C677.335 200.524 675.747 200.67 674.161 200.597C674.161 200.597 676.277 200.452 678.817 199.725C678.922 198.055 678.499 195.803 676.488 192.898L663.789 204.083C662.308 205.318 659.344 205.899 656.275 205.39C652.359 204.737 649.713 202.558 650.454 200.452C651.195 198.345 655.005 197.183 658.921 197.837C662.202 198.345 664.53 200.016 664.848 201.759L687.919 181.423L688.871 181.931L687.284 183.311C687.389 184.038 687.707 186.216 688.342 189.993C688.977 194.496 687.284 195.949 685.167 197.692C685.167 197.692 683.685 198.636 681.357 199.435V199.508ZM681.463 198.709C682.521 198.2 683.473 197.619 684.426 196.82C684.426 196.82 687.919 193.407 683.368 186.87L680.404 189.485C680.51 190.211 680.828 192.39 681.463 196.167C681.568 197.183 681.674 197.982 681.568 198.709H681.463Z" fill="#25B8C9"/>
</svg>
