<svg xmlns="http://www.w3.org/2000/svg" xmlns:xlink="http://www.w3.org/1999/xlink" viewBox="0 0 666.89 514.76"><defs><style>.cls-1,.cls-3,.cls-4,.cls-5{fill:none;}.cls-2{clip-path:url(#clip-path);}.cls-3,.cls-4,.cls-5{stroke:#30b8c6;stroke-width:2px;}.cls-3{stroke-miterlimit:10;}.cls-4{stroke-miterlimit:10;}.cls-5{stroke-miterlimit:10;}</style><clipPath id="clip-path" transform="translate(213.3 183.72)"><rect class="cls-1" width="240.94" height="155.91"/></clipPath></defs><g id="Livello_2" data-name="Livello 2"><g id="Livello_2-2" data-name="Livello 2"><g class="cls-2"><path class="cls-3" d="M-128.87-182.74c20.79,4.61,18.19,16.34,39,21s23.39-7.13,44.18-2.53,18.19,16.34,39,20.95,23.39-7.13,44.18-2.53,18.2,16.34,39,21,23.39-7.13,44.19-2.52,18.19,16.34,39,20.94S183-113.66,203.82-109s18.2,16.34,39,20.94S266.2-95.23,287-90.63s18.19,16.34,39,20.95,23.39-7.13,44.19-2.52,18.2,16.34,39,20.94,23.4-7.13,44.2-2.52" transform="translate(213.3 183.72)"/><path class="cls-3" d="M-130.25-176.51c20.79,4.61,18.19,16.34,39,20.95s23.4-7.13,44.19-2.52,18.19,16.33,39,20.94,23.4-7.13,44.19-2.52,18.2,16.34,39,20.94,23.39-7.13,44.19-2.52,18.19,16.34,39,20.95,23.39-7.13,44.18-2.53,18.19,16.34,39,20.95S264.82-89,285.62-84.4s18.19,16.34,39,21S348-70.58,368.8-66,387-49.63,407.79-45s23.4-7.13,44.2-2.53" transform="translate(213.3 183.72)"/><path class="cls-4" d="M-131.63-170.27c20.79,4.6,18.19,16.34,39,20.94s23.4-7.13,44.19-2.52,18.19,16.34,39,20.94,23.4-7.13,44.19-2.52,18.19,16.34,39,21,23.39-7.13,44.19-2.53,18.19,16.34,39,21,23.39-7.13,44.18-2.53,18.19,16.34,39,21,23.39-7.13,44.19-2.52,18.19,16.34,39,20.94,23.39-7.12,44.19-2.52,18.2,16.34,39,21,23.4-7.13,44.2-2.52" transform="translate(213.3 183.72)"/><path class="cls-5" d="M-133-164c20.79,4.6,18.19,16.34,39,20.94s23.39-7.12,44.19-2.52,18.19,16.34,39,21,23.4-7.13,44.19-2.53,18.19,16.34,39,21,23.39-7.13,44.19-2.52,18.19,16.34,39,20.94,23.39-7.13,44.18-2.52,18.19,16.34,39,20.94,23.39-7.13,44.19-2.52,18.19,16.34,39,21,23.39-7.13,44.19-2.53,18.2,16.34,39,20.95,23.4-7.13,44.2-2.52" transform="translate(213.3 183.72)"/><path class="cls-3" d="M-134.39-157.81c20.79,4.61,18.19,16.34,39,20.95S-72-144-51.22-139.39-33-123-12.24-118.44,11.16-125.57,32-121s18.19,16.34,39,20.94,23.39-7.13,44.19-2.52,18.19,16.34,39,20.94,23.39-7.13,44.18-2.52,18.19,16.34,39,21,23.39-7.13,44.19-2.53,18.19,16.34,39,21,23.39-7.13,44.19-2.52,18.19,16.34,39,20.94,23.4-7.12,44.2-2.52" transform="translate(213.3 183.72)"/><path class="cls-3" d="M-135.77-151.58c20.79,4.61,18.19,16.34,39,21s23.39-7.13,44.19-2.52,18.19,16.34,39,20.94,23.39-7.13,44.19-2.52,18.19,16.34,39,20.94,23.39-7.12,44.19-2.52,18.19,16.34,39,21,23.4-7.13,44.19-2.53,18.19,16.34,39,21,23.39-7.13,44.18-2.52,18.2,16.34,39,20.94,23.39-7.13,44.19-2.52,18.19,16.34,39,21,23.4-7.13,44.2-2.52" transform="translate(213.3 183.72)"/><path class="cls-5" d="M-137.16-145.34c20.8,4.6,18.2,16.34,39,20.94s23.39-7.13,44.19-2.52S-35.79-110.58-15-106s23.39-7.12,44.19-2.52,18.19,16.34,39,21,23.39-7.13,44.19-2.53,18.19,16.34,39,21,23.4-7.13,44.19-2.52,18.19,16.34,39,20.94,23.39-7.13,44.18-2.52,18.2,16.34,39,20.95,23.39-7.13,44.18-2.53,18.2,16.34,39,21,23.4-7.13,44.2-2.52" transform="translate(213.3 183.72)"/><path class="cls-3" d="M-138.54-139.11c20.8,4.61,18.2,16.34,39,21s23.39-7.13,44.19-2.53,18.19,16.34,39,21S7-106.87,27.81-102.27s18.19,16.34,39,21S90.19-88.45,111-83.84s18.2,16.34,39,20.94,23.39-7.13,44.19-2.52,18.19,16.34,39,20.94S256.54-51.6,277.33-47s18.2,16.34,39,21,23.39-7.13,44.18-2.52,18.2,16.34,39,20.94,23.4-7.13,44.2-2.52" transform="translate(213.3 183.72)"/><path class="cls-3" d="M-139.92-132.88c20.8,4.61,18.2,16.34,39,20.95s23.39-7.13,44.18-2.52,18.2,16.34,39,20.94S5.63-100.64,26.43-96s18.19,16.34,39,20.94,23.39-7.13,44.18-2.52,18.2,16.34,39,21,23.39-7.13,44.19-2.53,18.19,16.34,39,20.95,23.39-7.13,44.18-2.53,18.2,16.35,39,21,23.39-7.13,44.18-2.52,18.2,16.34,39,21,23.4-7.13,44.19-2.53" transform="translate(213.3 183.72)"/><path class="cls-3" d="M-141.3-126.64c20.8,4.6,18.2,16.34,39,20.94s23.39-7.13,44.18-2.52,18.2,16.34,39,20.94S4.25-94.41,25.05-89.8s18.19,16.34,39,21S87.43-76,108.22-71.38s18.2,16.34,39,20.95S170.6-57.56,191.4-53s18.19,16.34,39,21,23.4-7.13,44.19-2.52,18.2,16.34,39,20.94,23.4-7.12,44.19-2.52,18.2,16.34,39,21,23.4-7.13,44.19-2.52" transform="translate(213.3 183.72)"/><path class="cls-3" d="M-142.68-120.41c20.8,4.6,18.2,16.34,39,20.94s23.39-7.12,44.18-2.52,18.2,16.34,39,20.95,23.39-7.13,44.19-2.53,18.19,16.34,39,20.95,23.39-7.13,44.18-2.52,18.2,16.34,39,20.94,23.39-7.13,44.18-2.52,18.2,16.34,39,20.94,23.4-7.13,44.19-2.52,18.2,16.34,39,21,23.4-7.13,44.19-2.53,18.2,16.35,39,21,23.4-7.13,44.19-2.52" transform="translate(213.3 183.72)"/><path class="cls-3" d="M-144.06-114.18c20.8,4.61,18.2,16.34,39,21s23.39-7.13,44.18-2.53,18.2,16.34,39,21,23.39-7.13,44.19-2.52S40.48-61,61.27-56.39s23.4-7.13,44.19-2.52,18.2,16.34,39,20.94,23.39-7.12,44.18-2.52,18.2,16.34,39,21,23.4-7.13,44.19-2.53,18.2,16.34,39,21S334.2-8.25,355-3.64s18.2,16.34,39,20.94,23.4-7.12,44.19-2.52" transform="translate(213.3 183.72)"/><path class="cls-3" d="M-145.44-107.94c20.79,4.6,18.2,16.34,39,20.94s23.39-7.13,44.18-2.52,18.2,16.34,39,20.94S.11-75.71,20.9-71.1s18.2,16.34,39,20.94,23.4-7.12,44.19-2.52,18.2,16.34,39,21,23.39-7.13,44.18-2.53,18.2,16.34,39,20.95,23.4-7.13,44.19-2.52,18.2,16.34,39,20.94S332.82-2,353.61,2.59s18.2,16.34,39,21S416,16.41,436.8,21" transform="translate(213.3 183.72)"/><path class="cls-3" d="M-146.82-101.71c20.79,4.6,18.2,16.34,39,20.94s23.39-7.13,44.18-2.52,18.2,16.34,39,20.94,23.39-7.12,44.18-2.52,18.2,16.34,39,21S81.91-51,102.7-46.45s18.2,16.34,39,21,23.39-7.13,44.18-2.52,18.2,16.34,39,20.94,23.4-7.13,44.19-2.52,18.2,16.34,39,21,23.4-7.13,44.19-2.53,18.2,16.34,39,21,23.39-7.13,44.19-2.52" transform="translate(213.3 183.72)"/><path class="cls-3" d="M-148.2-95.48c20.79,4.61,18.19,16.34,39,21S-85.82-81.66-65-77.06s18.2,16.34,39,21,23.39-7.13,44.18-2.53,18.2,16.34,39,21,23.4-7.13,44.19-2.52,18.2,16.34,39,20.94,23.39-7.13,44.18-2.52,18.2,16.34,39,20.94S246.88-8,267.67-3.37s18.2,16.34,39,21,23.4-7.13,44.19-2.52,18.2,16.34,39,20.94,23.39-7.12,44.19-2.52" transform="translate(213.3 183.72)"/><path class="cls-3" d="M-149.58-89.25c20.79,4.61,18.19,16.34,39,21s23.39-7.13,44.18-2.52,18.19,16.34,39,20.94S-4-57,16.76-52.4s18.2,16.34,39,20.94S79.15-38.59,99.94-34s18.2,16.34,39,20.95,23.39-7.13,44.18-2.53,18.2,16.34,39,21,23.4-7.13,44.19-2.53,18.2,16.35,39,21,23.4-7.13,44.19-2.52,18.2,16.34,39,21,23.39-7.13,44.19-2.53" transform="translate(213.3 183.72)"/><path class="cls-3" d="M-151-83c20.79,4.6,18.19,16.34,39,20.94s23.39-7.13,44.18-2.52,18.19,16.34,39,20.94,23.39-7.13,44.18-2.52,18.2,16.34,39,21,23.4-7.13,44.19-2.53,18.2,16.34,39,21,23.39-7.13,44.18-2.53,18.2,16.34,39,21,23.39-7.13,44.19-2.52,18.2,16.34,39,20.94,23.39-7.12,44.19-2.52,18.2,16.34,39,21,23.39-7.13,44.19-2.52" transform="translate(213.3 183.72)"/><path class="cls-3" d="M-152.34-76.78c20.79,4.61,18.19,16.34,39,21S-90-63-69.17-58.36s18.19,16.34,39,21S-6.79-44.54,14-39.94,32.2-23.6,53-19s23.4-7.13,44.19-2.52,18.19,16.34,39,20.94,23.39-7.13,44.18-2.52,18.2,16.34,39,20.94,23.39-7.13,44.19-2.52,18.19,16.34,39,21,23.39-7.13,44.19-2.53,18.2,16.35,39,21,23.39-7.13,44.19-2.52" transform="translate(213.3 183.72)"/><path class="cls-3" d="M-153.72-70.55c20.79,4.61,18.19,16.34,39,20.95s23.39-7.13,44.18-2.53,18.19,16.34,39,21,23.39-7.13,44.18-2.52,18.2,16.34,39,20.94S75-19.89,95.8-15.28,114,1.06,134.79,5.66,158.18-1.46,179,3.14s18.2,16.34,39,21,23.39-7.13,44.19-2.53,18.19,16.34,39,21,23.39-7.13,44.19-2.52,18.2,16.34,39,20.94,23.4-7.12,44.2-2.52" transform="translate(213.3 183.72)"/><path class="cls-3" d="M-155.1-64.31c20.79,4.6,18.19,16.34,39,20.94s23.39-7.13,44.18-2.52,18.19,16.34,39,20.94,23.39-7.13,44.18-2.52,18.2,16.34,39,20.94S73.62-13.65,94.42-9s18.19,16.34,39,21,23.39-7.13,44.18-2.53,18.2,16.34,39,21S240,23.19,260.77,27.8s18.19,16.34,39,20.94,23.39-7.13,44.19-2.52,18.2,16.34,39,21,23.4-7.13,44.2-2.52" transform="translate(213.3 183.72)"/><path class="cls-3" d="M-156.48-58.08c20.79,4.6,18.19,16.34,39,20.94s23.4-7.13,44.19-2.52,18.19,16.34,39,20.95,23.4-7.13,44.19-2.53,18.2,16.34,39,21S72.24-7.42,93-2.82s18.19,16.34,39,21,23.39-7.13,44.18-2.52S194.4,32,215.2,36.55s23.39-7.13,44.19-2.52,18.19,16.34,39,20.95,23.39-7.13,44.19-2.53,18.2,16.34,39,21,23.4-7.13,44.2-2.52" transform="translate(213.3 183.72)"/><path class="cls-3" d="M-157.86-51.85c20.79,4.61,18.19,16.34,39,21s23.4-7.13,44.19-2.53,18.19,16.34,39,21S-12.31-19.61,8.48-15s18.19,16.34,39,21S70.86-1.19,91.66,3.42s18.19,16.34,39,20.94,23.39-7.13,44.18-2.52,18.19,16.34,39,21,23.39-7.13,44.19-2.53,18.19,16.34,39,21,23.39-7.13,44.19-2.52,18.2,16.34,39,20.94,23.4-7.12,44.2-2.52" transform="translate(213.3 183.72)"/><path class="cls-3" d="M-159.24-45.62c20.79,4.61,18.19,16.34,39,20.95s23.39-7.13,44.19-2.52,18.19,16.34,39,20.94,23.4-7.13,44.19-2.52,18.19,16.34,39,20.94S69.48,5,90.28,9.65s18.19,16.34,39,21,23.39-7.13,44.18-2.53,18.19,16.34,39,21,23.39-7.13,44.19-2.52,18.19,16.34,39,20.94,23.39-7.13,44.19-2.52,18.2,16.34,39,21,23.4-7.13,44.2-2.53" transform="translate(213.3 183.72)"/><path class="cls-3" d="M-160.62-39.38c20.79,4.6,18.19,16.34,39,20.94S-98.25-25.57-77.45-21-59.26-4.62-38.47,0s23.4-7.13,44.19-2.52,18.19,16.34,39,21S68.1,11.28,88.9,15.88s18.19,16.34,39,20.95,23.39-7.13,44.18-2.53,18.19,16.35,39,21,23.39-7.13,44.19-2.52,18.19,16.34,39,20.94,23.39-7.12,44.19-2.52,18.19,16.34,39,20.95,23.4-7.13,44.2-2.52" transform="translate(213.3 183.72)"/><path class="cls-3" d="M-162-33.15c20.79,4.61,18.19,16.34,39,21s23.39-7.13,44.19-2.53,18.19,16.34,39,21S-16.45-.91,4.34,3.69s18.19,16.34,39,21,23.39-7.13,44.19-2.52,18.19,16.34,39,20.94,23.4-7.13,44.19-2.52,18.19,16.34,39,20.94,23.39-7.13,44.18-2.52,18.2,16.34,39,20.95,23.39-7.13,44.19-2.53,18.19,16.35,39,21,23.4-7.13,44.2-2.52" transform="translate(213.3 183.72)"/><path class="cls-3" d="M-163.39-26.92c20.8,4.61,18.2,16.34,39,21S-101-13.1-80.21-8.5s18.19,16.34,39,21S-17.84,5.32,3,9.93,21.15,26.27,42,30.87s23.39-7.13,44.19-2.52,18.19,16.34,39,20.94,23.4-7.12,44.19-2.52,18.19,16.34,39,20.95,23.39-7.13,44.18-2.53,18.2,16.34,39,21,23.39-7.13,44.19-2.52,18.19,16.34,39,20.94,23.4-7.12,44.2-2.52" transform="translate(213.3 183.72)"/><path class="cls-3" d="M-164.77-20.68c20.8,4.6,18.2,16.34,39,20.94s23.39-7.13,44.19-2.52,18.19,16.34,39,20.94,23.39-7.13,44.19-2.52,18.19,16.34,39,20.94S64,30,84.76,34.58s18.19,16.34,39,21S147.13,48.4,167.93,53s18.19,16.34,39,21,23.39-7.13,44.18-2.52,18.2,16.34,39,20.94,23.39-7.13,44.18-2.52,18.2,16.34,39,21,23.4-7.13,44.2-2.52" transform="translate(213.3 183.72)"/><path class="cls-3" d="M-166.15-14.45c20.8,4.6,18.2,16.34,39,20.94S-103.77-.64-83,4s18.2,16.34,39,21S-20.6,17.79.2,22.39s18.19,16.34,39,21,23.39-7.13,44.18-2.53,18.2,16.34,39,20.95,23.39-7.13,44.19-2.52,18.19,16.34,39,20.94,23.39-7.13,44.18-2.52,18.2,16.34,39,21,23.39-7.13,44.18-2.53,18.2,16.34,39,21,23.4-7.13,44.19-2.52" transform="translate(213.3 183.72)"/><path class="cls-3" d="M-167.53-8.22c20.8,4.61,18.2,16.34,39,21s23.39-7.13,44.18-2.53,18.2,16.34,39,21S-22,24-1.18,28.62,17,45,37.81,49.57,61.2,42.44,82,47.05,100.19,63.39,121,68s23.39-7.13,44.19-2.52,18.19,16.34,39,21,23.4-7.13,44.19-2.53,18.2,16.34,39,21,23.4-7.13,44.19-2.52,18.2,16.34,39,20.94,23.4-7.12,44.19-2.52" transform="translate(213.3 183.72)"/><path class="cls-3" d="M-168.91-2c20.8,4.61,18.2,16.34,39,21s23.39-7.13,44.18-2.52,18.2,16.34,39,20.94,23.39-7.13,44.19-2.52,18.19,16.34,39,20.94,23.39-7.13,44.18-2.52,18.2,16.34,39,21S143,67.1,163.78,71.7s18.2,16.34,39,21,23.4-7.13,44.19-2.52,18.2,16.34,39,20.94,23.4-7.13,44.19-2.52,18.2,16.34,39,21,23.4-7.13,44.19-2.53" transform="translate(213.3 183.72)"/><path class="cls-3" d="M-170.29,4.25c20.8,4.6,18.2,16.34,39,20.94s23.39-7.13,44.18-2.52,18.2,16.34,39,20.94,23.39-7.13,44.19-2.52S14.25,57.43,35,62s23.4-7.13,44.19-2.53,18.2,16.34,39,20.95,23.39-7.13,44.18-2.52,18.2,16.34,39,20.94,23.4-7.13,44.19-2.52,18.2,16.34,39,20.94,23.4-7.12,44.19-2.52,18.2,16.34,39,20.95,23.4-7.13,44.19-2.52" transform="translate(213.3 183.72)"/><path class="cls-3" d="M-171.67,10.48c20.79,4.61,18.2,16.34,39,21s23.39-7.13,44.18-2.53,18.2,16.34,39,21,23.39-7.13,44.18-2.53,18.2,16.34,39,20.95,23.4-7.13,44.19-2.52,18.2,16.34,39,20.94,23.39-7.13,44.18-2.52,18.2,16.34,39,20.94,23.4-7.12,44.19-2.52,18.2,16.34,39,21,23.4-7.13,44.19-2.53,18.2,16.35,39,21,23.39-7.13,44.19-2.52" transform="translate(213.3 183.72)"/><path class="cls-3" d="M-173,16.71c20.79,4.61,18.2,16.34,39,20.95s23.39-7.13,44.18-2.53,18.2,16.34,39,20.95S-27.5,49-6.71,53.56s18.2,16.34,39,20.94S55.68,67.37,76.47,72s18.2,16.34,39,21,23.39-7.13,44.18-2.53,18.2,16.34,39,20.95,23.4-7.13,44.19-2.53,18.2,16.34,39,21,23.4-7.13,44.19-2.52,18.2,16.34,39,20.94,23.39-7.12,44.19-2.52" transform="translate(213.3 183.72)"/><path class="cls-3" d="M-174.43,23c20.79,4.6,18.19,16.34,39,20.94s23.39-7.13,44.18-2.52,18.2,16.34,39,20.94,23.39-7.13,44.18-2.52,18.2,16.34,39,20.94,23.4-7.12,44.19-2.52,18.2,16.34,39,21,23.39-7.13,44.18-2.53,18.2,16.34,39,21,23.4-7.13,44.19-2.52,18.2,16.34,39,20.94,23.4-7.13,44.19-2.52,18.2,16.34,39,21,23.39-7.13,44.19-2.52" transform="translate(213.3 183.72)"/><path class="cls-3" d="M-175.81,29.18c20.79,4.6,18.19,16.34,39,20.94S-113.43,43-92.64,47.6s18.19,16.34,39,20.95S-30.26,61.42-9.47,66s18.2,16.34,39,21,23.4-7.13,44.19-2.53,18.2,16.35,39,21,23.39-7.13,44.18-2.52,18.2,16.34,39,20.94,23.4-7.13,44.19-2.52,18.2,16.34,39,21,23.4-7.13,44.19-2.53,18.2,16.34,39,20.95,23.39-7.13,44.19-2.52" transform="translate(213.3 183.72)"/><path class="cls-3" d="M-177.19,35.41c20.79,4.61,18.19,16.34,39,21s23.39-7.13,44.18-2.53,18.19,16.34,39,21,23.39-7.13,44.18-2.53,18.2,16.34,39,21,23.4-7.13,44.19-2.52,18.2,16.34,39,20.94,23.39-7.13,44.18-2.52,18.2,16.34,39,21,23.39-7.13,44.19-2.53,18.2,16.34,39,21,23.39-7.13,44.19-2.52,18.2,16.34,39,20.94,23.39-7.12,44.19-2.52" transform="translate(213.3 183.72)"/><path class="cls-3" d="M-178.57,41.64c20.79,4.61,18.19,16.34,39,21s23.39-7.13,44.18-2.52,18.19,16.34,39,20.94S-33,73.88-12.23,78.49,6,94.83,26.76,99.43,50.16,92.3,71,96.91s18.19,16.34,39,21,23.39-7.13,44.18-2.53,18.2,16.34,39,21,23.39-7.13,44.19-2.52,18.2,16.34,39,20.94,23.39-7.13,44.19-2.52,18.2,16.34,39,20.95,23.39-7.13,44.19-2.53" transform="translate(213.3 183.72)"/><path class="cls-3" d="M-179.95,47.88c20.79,4.6,18.19,16.34,39,20.94s23.39-7.13,44.18-2.52,18.19,16.34,39,20.94,23.39-7.12,44.18-2.52,18.2,16.34,39,21,23.39-7.13,44.19-2.53,18.19,16.34,39,21S132,117,152.74,121.57s18.2,16.34,39,20.94,23.39-7.13,44.19-2.52,18.19,16.34,39,20.94,23.39-7.12,44.19-2.52,18.2,16.34,39,21,23.39-7.13,44.19-2.52" transform="translate(213.3 183.72)"/><path class="cls-3" d="M-181.33,54.11c20.79,4.61,18.19,16.34,39,21s23.39-7.13,44.18-2.53,18.19,16.34,39,21S-35.78,86.35-15,91s18.2,16.34,39,21,23.39-7.13,44.19-2.52,18.19,16.34,39,20.94,23.39-7.13,44.18-2.52,18.2,16.34,39,20.94,23.39-7.12,44.19-2.52,18.19,16.34,39,20.95,23.39-7.13,44.19-2.53,18.2,16.35,39,21,23.4-7.13,44.2-2.52" transform="translate(213.3 183.72)"/><path class="cls-3" d="M-182.71,60.34c20.79,4.61,18.19,16.34,39,21s23.4-7.13,44.19-2.53,18.19,16.34,39,20.95,23.4-7.13,44.19-2.52,18.2,16.34,39,20.94S46,111,66.81,115.61s18.19,16.34,39,21S129.19,129.43,150,134s18.19,16.34,39,20.95,23.39-7.13,44.19-2.53,18.19,16.34,39,21,23.39-7.13,44.19-2.52,18.2,16.34,39,21,23.4-7.13,44.2-2.53" transform="translate(213.3 183.72)"/><path class="cls-3" d="M-184.09,66.58c20.79,4.6,18.19,16.34,39,20.94s23.4-7.13,44.19-2.52,18.19,16.34,39,20.94,23.4-7.13,44.19-2.52,18.2,16.34,39,21,23.39-7.13,44.19-2.53,18.19,16.34,39,20.95,23.39-7.13,44.18-2.53,18.19,16.34,39,21,23.39-7.13,44.19-2.52,18.19,16.34,39,20.94,23.39-7.13,44.19-2.52,18.2,16.34,39,20.95,23.4-7.13,44.2-2.52" transform="translate(213.3 183.72)"/><path class="cls-3" d="M-185.47,72.81c20.79,4.6,18.19,16.34,39,20.94s23.4-7.13,44.19-2.52,18.19,16.34,39,21,23.4-7.13,44.19-2.53S-.94,126,19.86,130.6s23.39-7.13,44.19-2.52S82.24,144.42,103,149s23.39-7.13,44.18-2.52,18.19,16.34,39,20.94,23.39-7.13,44.19-2.52,18.19,16.34,39,21,23.39-7.13,44.19-2.53,18.2,16.34,39,20.95,23.4-7.13,44.2-2.52" transform="translate(213.3 183.72)"/><path class="cls-3" d="M-186.85,79c20.79,4.61,18.19,16.34,39,20.95s23.39-7.13,44.19-2.53,18.19,16.34,39,21,23.4-7.13,44.19-2.53,18.19,16.35,39,21,23.39-7.13,44.19-2.52,18.19,16.34,39,20.94,23.39-7.13,44.18-2.52,18.19,16.34,39,21,23.39-7.13,44.19-2.53,18.19,16.34,39,20.95,23.39-7.13,44.19-2.52,18.19,16.34,39,20.94,23.4-7.12,44.2-2.52" transform="translate(213.3 183.72)"/><path class="cls-3" d="M-188.23,85.27c20.79,4.61,18.19,16.34,39,21s23.39-7.13,44.19-2.52,18.19,16.34,39,20.94,23.4-7.13,44.19-2.52,18.19,16.34,39,20.94,23.39-7.12,44.19-2.52,18.19,16.34,39,21,23.39-7.13,44.18-2.53,18.19,16.34,39,20.95,23.39-7.13,44.18-2.52,18.2,16.34,39,20.94,23.39-7.13,44.19-2.52,18.19,16.34,39,20.95,23.4-7.13,44.2-2.52" transform="translate(213.3 183.72)"/><path class="cls-3" d="M-189.62,91.51c20.8,4.6,18.2,16.34,39,20.94s23.39-7.13,44.19-2.52,18.19,16.34,39,20.94,23.39-7.12,44.19-2.52,18.19,16.34,39,21,23.39-7.13,44.19-2.53,18.19,16.34,39,20.95,23.4-7.13,44.19-2.52,18.19,16.34,39,20.94,23.39-7.13,44.18-2.52,18.2,16.34,39,20.94,23.39-7.12,44.19-2.52,18.19,16.34,39,21,23.4-7.13,44.2-2.52" transform="translate(213.3 183.72)"/><path class="cls-3" d="M-191,97.74c20.8,4.61,18.2,16.34,39,21s23.39-7.13,44.19-2.53,18.19,16.34,39,21,23.39-7.13,44.19-2.53,18.19,16.34,39,20.95S37.73,148.4,58.53,153s18.19,16.34,39,20.94,23.39-7.13,44.19-2.52,18.19,16.34,39,20.94,23.39-7.12,44.18-2.52,18.2,16.34,39,21,23.39-7.13,44.18-2.53,18.2,16.35,39,20.95,23.4-7.13,44.2-2.52" transform="translate(213.3 183.72)"/><path class="cls-3" d="M-192.38,104c20.8,4.61,18.2,16.34,39,21s23.39-7.13,44.18-2.53,18.2,16.34,39,21,23.39-7.13,44.19-2.52,18.19,16.34,39,20.94,23.39-7.13,44.18-2.52,18.2,16.34,39,20.95,23.39-7.13,44.19-2.53,18.19,16.34,39,21,23.39-7.13,44.18-2.53,18.2,16.34,39,20.95,23.39-7.13,44.18-2.52,18.2,16.34,39,21,23.4-7.13,44.19-2.53" transform="translate(213.3 183.72)"/><path class="cls-3" d="M-193.76,110.21c20.8,4.6,18.2,16.34,39,20.94s23.39-7.13,44.18-2.52,18.2,16.34,39,20.94,23.39-7.13,44.19-2.52,18.19,16.34,39,20.95,23.39-7.13,44.18-2.53,18.2,16.34,39,20.95,23.39-7.13,44.19-2.53,18.19,16.34,39,21,23.4-7.13,44.19-2.52,18.2,16.34,39,20.94,23.4-7.13,44.19-2.52,18.2,16.34,39,20.95,23.4-7.13,44.19-2.52" transform="translate(213.3 183.72)"/><path class="cls-3" d="M-195.14,116.44c20.8,4.6,18.2,16.34,39,20.94s23.39-7.12,44.18-2.52,18.2,16.34,39,20.95,23.39-7.13,44.19-2.53,18.19,16.34,39,20.95,23.39-7.13,44.18-2.52,18.2,16.34,39,20.94,23.39-7.13,44.18-2.52,18.2,16.34,39,20.94,23.4-7.13,44.19-2.52,18.2,16.34,39,20.95,23.4-7.13,44.19-2.53,18.2,16.34,39,20.95,23.4-7.13,44.19-2.52" transform="translate(213.3 183.72)"/><path class="cls-3" d="M-196.52,122.67c20.8,4.61,18.2,16.34,39,21s23.39-7.13,44.18-2.53,18.2,16.34,39,20.95,23.39-7.13,44.19-2.52,18.19,16.34,39,20.94,23.4-7.13,44.19-2.52,18.2,16.34,39,20.94,23.39-7.13,44.18-2.52,18.2,16.34,39,20.95,23.4-7.13,44.19-2.53,18.2,16.34,39,20.95,23.4-7.13,44.19-2.52,18.2,16.34,39,20.94,23.4-7.12,44.19-2.52" transform="translate(213.3 183.72)"/><path class="cls-3" d="M-197.9,128.9c20.79,4.61,18.2,16.34,39,20.95s23.39-7.13,44.18-2.52,18.2,16.34,39,20.94,23.39-7.13,44.18-2.52,18.2,16.34,39,20.94,23.4-7.12,44.19-2.52,18.2,16.34,39,21S114,198,134.79,202.59s18.2,16.34,39,20.95,23.4-7.13,44.19-2.52,18.2,16.34,39,20.94,23.4-7.13,44.19-2.52,18.2,16.34,39,20.95,23.4-7.13,44.19-2.52" transform="translate(213.3 183.72)"/><path class="cls-3" d="M-199.28,135.14c20.79,4.6,18.2,16.34,39,20.94s23.39-7.13,44.18-2.52,18.2,16.34,39,20.94,23.39-7.12,44.18-2.52,18.2,16.34,39,21,23.4-7.13,44.19-2.53,18.2,16.34,39,20.95,23.39-7.13,44.18-2.52,18.2,16.34,39,20.94,23.4-7.13,44.19-2.52,18.2,16.34,39,20.95,23.4-7.13,44.19-2.53,18.2,16.34,39,21,23.39-7.13,44.19-2.52" transform="translate(213.3 183.72)"/><path class="cls-3" d="M-200.66,141.37c20.79,4.61,18.19,16.34,39,20.95s23.39-7.13,44.18-2.53,18.2,16.34,39,21,23.39-7.13,44.18-2.53,18.2,16.34,39,20.95,23.4-7.13,44.19-2.52,18.2,16.34,39,20.94,23.39-7.13,44.18-2.52,18.2,16.34,39,20.94,23.4-7.12,44.19-2.52,18.2,16.34,39,21,23.4-7.13,44.19-2.52,18.2,16.34,39,20.94,23.39-7.13,44.19-2.52" transform="translate(213.3 183.72)"/><path class="cls-3" d="M-202,147.6c20.79,4.61,18.19,16.34,39,21s23.39-7.13,44.18-2.53,18.19,16.34,39,20.95,23.39-7.13,44.18-2.52,18.2,16.34,39,20.94,23.4-7.13,44.19-2.52,18.2,16.34,39,20.95,23.39-7.13,44.18-2.53,18.2,16.34,39,21,23.4-7.13,44.19-2.53,18.2,16.34,39,21,23.4-7.13,44.19-2.52,18.2,16.34,39,20.95,23.39-7.13,44.19-2.53" transform="translate(213.3 183.72)"/><path class="cls-3" d="M-203.42,153.84c20.79,4.6,18.19,16.34,39,20.94s23.39-7.13,44.18-2.52,18.19,16.34,39,20.94,23.39-7.13,44.18-2.52,18.2,16.34,39,20.95,23.4-7.13,44.19-2.53,18.2,16.34,39,21,23.39-7.13,44.18-2.53,18.2,16.34,39,20.95,23.39-7.13,44.19-2.52,18.2,16.34,39,20.94,23.4-7.12,44.19-2.52,18.2,16.34,39,20.95,23.39-7.13,44.19-2.52" transform="translate(213.3 183.72)"/><path class="cls-3" d="M-204.8,160.07c20.79,4.6,18.19,16.34,39,20.94s23.39-7.12,44.18-2.52,18.19,16.34,39,20.95,23.39-7.13,44.18-2.53,18.2,16.34,39,21,23.4-7.13,44.19-2.52,18.19,16.34,39,20.94,23.39-7.13,44.18-2.52,18.2,16.34,39,20.94,23.39-7.13,44.19-2.52,18.2,16.34,39,20.95,23.39-7.13,44.19-2.53,18.2,16.34,39,20.95,23.39-7.13,44.19-2.52" transform="translate(213.3 183.72)"/><path class="cls-3" d="M-206.18,166.3c20.79,4.61,18.19,16.34,39,20.95s23.39-7.13,44.18-2.53,18.19,16.34,39,20.95,23.39-7.13,44.18-2.52,18.2,16.34,39,20.94,23.39-7.13,44.19-2.52,18.19,16.34,39,20.94,23.39-7.13,44.18-2.52,18.2,16.34,39,20.95,23.39-7.13,44.19-2.53,18.19,16.34,39,20.95,23.39-7.13,44.19-2.52,18.2,16.34,39,20.94,23.39-7.12,44.19-2.52" transform="translate(213.3 183.72)"/><path class="cls-3" d="M-207.56,172.53c20.79,4.61,18.19,16.34,39,20.95s23.39-7.13,44.18-2.52,18.19,16.34,39,20.94,23.39-7.13,44.18-2.52,18.2,16.34,39,20.94S21.16,223.2,42,227.8s18.19,16.34,39,20.95,23.39-7.13,44.18-2.53,18.2,16.34,39,21,23.39-7.13,44.19-2.52,18.19,16.34,39,20.94,23.39-7.13,44.19-2.52,18.2,16.34,39,20.95,23.4-7.13,44.2-2.52" transform="translate(213.3 183.72)"/><path class="cls-3" d="M-208.94,178.77c20.79,4.6,18.19,16.34,39,20.94s23.4-7.13,44.19-2.52,18.19,16.34,39,20.94,23.39-7.12,44.18-2.52,18.2,16.34,39,20.95,23.39-7.13,44.19-2.53,18.19,16.34,39,20.95,23.39-7.13,44.18-2.52,18.19,16.34,39,20.94,23.39-7.13,44.19-2.52,18.19,16.34,39,20.95,23.39-7.13,44.19-2.53,18.2,16.34,39,20.95,23.4-7.13,44.2-2.52" transform="translate(213.3 183.72)"/><path class="cls-3" d="M-210.32,185c20.79,4.61,18.19,16.34,39,20.95s23.4-7.13,44.19-2.53,18.19,16.34,39,21,23.4-7.13,44.19-2.53,18.2,16.34,39,20.95,23.39-7.13,44.19-2.52,18.19,16.34,39,20.94,23.39-7.13,44.18-2.52,18.19,16.34,39,20.94,23.39-7.12,44.19-2.52,18.19,16.34,39,20.95,23.39-7.13,44.19-2.52,18.2,16.34,39,20.94,23.4-7.13,44.2-2.52" transform="translate(213.3 183.72)"/><path class="cls-3" d="M-211.7,191.23c20.79,4.61,18.19,16.34,39,21s23.4-7.13,44.19-2.52,18.19,16.33,39,20.94,23.4-7.13,44.19-2.52,18.19,16.34,39,20.94S17,241.89,37.82,246.5s18.19,16.34,39,20.95,23.39-7.13,44.18-2.53,18.19,16.34,39,20.95,23.39-7.13,44.19-2.53,18.19,16.35,39,21,23.39-7.13,44.19-2.52,18.2,16.34,39,21,23.4-7.13,44.2-2.53" transform="translate(213.3 183.72)"/><path class="cls-3" d="M-213.08,197.47c20.79,4.6,18.19,16.34,39,20.94s23.39-7.13,44.19-2.52,18.19,16.34,39,20.94,23.4-7.13,44.19-2.52,18.19,16.34,39,20.95,23.39-7.13,44.19-2.53,18.19,16.34,39,21,23.39-7.13,44.18-2.53,18.19,16.34,39,21S182,285,202.79,289.58s18.19,16.34,39,20.94S265.17,303.4,286,308s18.19,16.34,39,20.95,23.4-7.13,44.2-2.52" transform="translate(213.3 183.72)"/></g></g></g></svg>