<svg width="1045" height="264" viewBox="0 0 1045 264" fill="none" xmlns="http://www.w3.org/2000/svg">
<g clip-path="url(#clip0_4:221)">
<path d="M92.7011 106.399C91.8544 105.019 91.3252 104.147 91.3252 104.147C87.6209 96.8116 83.705 89.4045 79.6832 82.0689C81.3766 81.851 83.5992 81.6331 85.9276 81.6331C87.0918 81.6331 88.3618 81.7058 89.526 81.851C90.6902 81.9963 91.9602 82.2868 93.1244 82.5773C97.7812 83.8846 101.591 86.6446 102.226 91.9465C102.438 93.2538 102.438 95.7948 101.274 98.5547C100.639 99.9347 99.7921 101.387 98.4163 102.695C97.7812 103.348 96.9345 104.002 95.982 104.656C95.0295 105.237 93.9711 105.818 92.7011 106.399ZM89.7377 107.561C87.3034 108.36 84.5517 108.941 81.0591 109.376C78.7307 109.74 75.5556 109.885 72.063 109.74C70.2638 109.667 68.4646 109.522 66.5595 109.231C64.6545 109.013 62.6436 108.65 60.7385 108.214C53.0125 106.399 45.9214 102.549 43.8047 95.2864C42.8522 91.9465 43.593 87.8066 46.0273 83.3036C47.1915 81.0521 48.8848 78.728 50.8957 76.4038C52.9066 74.0797 55.4467 71.6829 58.4101 69.4314C60.2093 67.9789 62.7494 66.1631 65.5012 64.1295C66.4537 65.7274 68.9937 70.0851 71.9572 75.1691C63.0669 78.2196 56.0817 85.9909 57.7751 92.237C58.7276 95.8675 61.2677 98.5547 64.5486 100.443C67.9354 102.331 72.2747 103.276 77.1431 103.421C77.1431 103.421 76.8256 103.276 76.1906 102.912C75.5556 102.549 74.8148 102.114 73.8622 101.46C72.063 100.225 69.8404 98.4821 68.2529 96.5211C65.1836 92.5275 64.7603 87.3708 76.4023 83.0131C81.0591 91.2202 85.5042 99.4263 89.7377 107.633V107.561ZM56.8226 35.9504C56.5051 31.8832 58.3043 28.4696 61.2677 26.0728C64.1253 23.6761 67.8295 22.2961 70.5813 22.1509C72.5922 22.0782 74.1797 22.514 75.4498 23.1677C76.7198 23.894 77.5665 24.9108 78.2015 26.0002C79.4715 28.1791 79.6832 30.6485 79.8949 31.8832C80.2124 34.4978 79.4715 36.6041 78.3073 38.565C77.0373 40.526 75.2381 42.1239 73.2272 43.6491C69.2054 46.6269 64.2311 48.7331 61.691 50.9846C59.151 45.9732 57.2459 40.5987 56.8226 35.8778V35.9504ZM109.741 90.7844C109.529 87.6614 108.788 84.9741 107.412 82.65C106.142 80.3258 104.131 78.3648 101.591 76.9849C96.4054 74.1523 88.256 72.9176 76.8256 74.1523C76.2965 74.225 75.7673 74.2976 75.2381 74.3702C72.9097 70.303 70.4755 66.1631 68.0412 62.0959C72.8039 58.6097 77.9898 54.3982 81.9058 49.3868C85.9276 44.5206 88.6793 38.7829 87.8326 32.1737C87.4093 28.1791 84.6575 22.8045 80.6357 18.5204C78.6249 16.3415 76.2965 14.5258 73.7564 13.2185C71.3221 11.9111 68.6762 11.2575 66.1362 11.4754L64.5486 11.8385C64.5486 11.8385 59.786 13.9448 55.5525 17.7215C51.6366 21.5698 48.3557 27.1623 50.049 34.1347C52.0599 42.2691 55.87 51.0573 57.8809 53.5267C55.6584 55.2698 52.5891 57.375 49.5199 59.8444C46.5564 62.3138 43.3814 65.219 40.7354 68.5599C35.4436 75.1692 32.0569 83.5941 34.9144 94.0527C36.1845 98.7 39.9946 102.404 44.4397 105.091C48.779 107.779 53.7533 109.594 57.5634 110.466C59.4685 110.902 61.3735 111.265 63.3844 111.628C65.3953 111.919 67.4062 112.209 69.3113 112.427C73.2272 112.863 77.3548 112.863 81.7999 112.209C84.2342 111.919 87.4093 111.047 90.9019 109.667C93.7595 114.678 96.2995 119.327 96.2995 119.327C97.0404 120.997 98.8396 125.573 98.4163 130.003C98.2046 132.182 97.4637 134.36 95.8762 136.103C95.0295 136.975 94.077 137.773 92.7011 138.355C92.0661 138.645 91.3252 138.936 90.5844 139.153C89.7377 139.371 88.6793 139.662 87.6209 139.807C82.2233 140.679 76.9315 142.059 75.7673 137.773C79.0482 137.556 85.8217 134.069 84.7634 129.495C83.8108 125.5 81.1649 122.886 72.4863 124.193C71.1105 124.411 69.6288 124.919 68.3587 125.718C67.0887 126.444 66.0303 127.461 65.0778 128.478C63.2786 130.584 62.4319 132.981 62.9611 134.796C63.4903 136.757 65.607 139.299 69.5229 141.042C71.428 141.913 73.8622 142.567 76.7198 142.858C79.3657 143.221 82.3291 143.221 85.8217 142.64C86.7743 142.494 87.8326 142.276 88.891 141.986C89.4202 141.841 89.9493 141.695 90.4785 141.478C91.0077 141.332 91.4311 141.187 91.8544 140.969C93.7595 140.243 95.5587 139.226 97.0404 137.846C98.5221 136.466 99.898 134.796 100.639 132.763C101.38 130.729 101.591 128.333 101.168 125.5C100.11 121.07 96.1937 113.153 93.4419 108.432C97.4637 106.544 101.486 104.292 104.555 101.242C105.296 100.516 106.036 99.7168 106.671 98.9179C107.307 98.119 107.836 97.32 108.259 96.4485C109.106 94.7064 109.529 92.8907 109.423 90.857L109.741 90.7844Z" fill="#25B8C9"/>
<path d="M401.529 68.1969L389.887 63.9844C387.981 63.2581 386.076 62.5319 384.066 61.8782L377.927 59.9172L365.544 56.0689L362.475 55.1247L359.3 54.2531L352.844 52.5827C335.91 48.2249 318.978 44.8113 302.044 42.0514C268.07 36.5316 234.414 33.5538 201.605 31.6655C193.456 31.1571 185.306 30.7939 177.157 30.4308C169.008 30.0676 161.176 29.7771 152.816 29.5592L140.433 29.1961L137.364 29.1234H134.083L127.627 29.0508C123.288 29.0508 119.054 28.9782 114.503 29.0508L100.85 29.414C96.2995 29.4866 91.6427 29.7771 86.9859 30.0676C82.3291 30.3581 77.6723 30.576 73.2272 31.0118L59.6801 32.2465L47.0856 33.6264L40.8412 34.3527L34.9144 35.079L23.0607 36.5316L0.305911 39.2915L0.0942383 38.6379L22.8491 35.878L34.7027 34.498L40.6296 33.7717L46.8739 33.0454L59.5743 31.6655L73.1213 30.4308C77.5664 29.995 82.3291 29.7771 86.9859 29.4866C91.6427 29.1961 96.2995 28.9056 100.85 28.8329L114.503 28.4698C118.948 28.3972 123.288 28.4698 127.627 28.4698L134.189 28.5424H137.47L140.539 28.615L152.922 28.9782C161.282 29.1961 169.219 29.4866 177.263 29.8497C185.306 30.2129 193.456 30.576 201.711 31.0844C234.52 32.9728 268.282 35.9506 302.256 41.543C319.295 44.3029 336.228 47.7891 353.161 52.1469L359.617 53.8174L362.792 54.6889L365.862 55.6331L378.245 59.4814L384.383 61.4424C386.394 62.0961 388.299 62.8224 390.204 63.5487L401.846 67.7612L401.529 68.1969Z" fill="#25B8C9"/>
<path d="M392.109 81.4156L380.996 77.5662C379.091 76.9126 377.292 76.2589 375.387 75.6779L369.566 73.9348L357.924 70.4486L354.96 69.577L351.997 68.8507L345.964 67.3255C329.984 63.4762 313.897 60.4258 297.704 58.029C265.318 53.2365 232.827 50.8397 200.864 49.4598C192.821 49.0966 184.883 48.8787 176.945 48.6608C169.007 48.443 161.176 48.2251 153.133 48.1524L141.068 48.0072L138.105 47.9345H135.035L128.791 48.0072C124.663 48.0798 120.536 48.0798 116.408 48.1524L103.708 48.6608C99.4745 48.7335 95.1352 49.0966 90.9017 49.4598C86.6683 49.7503 82.2231 50.0408 78.0955 50.4766L65.501 51.7839L53.4357 53.3091L47.403 54.0354L41.582 54.8343L29.94 56.4322L7.29102 59.5542L7.07935 58.9005L29.7283 55.7785L41.3703 54.1807L47.1913 53.3817L53.224 52.6554L65.2893 51.1302L77.8838 49.8229C82.0115 49.3145 86.4566 49.0966 90.69 48.8061C95.0293 48.5156 99.2628 48.1524 103.496 48.0798L116.302 47.5714C120.536 47.4988 124.558 47.4988 128.791 47.4261L135.035 47.3535H138.105L141.174 47.4261L153.239 47.5714C161.387 47.644 169.113 47.8619 177.051 48.0798C184.989 48.2977 192.926 48.5882 200.97 48.8787C232.933 50.2587 265.53 52.6554 297.916 57.5206C314.109 59.9173 330.301 62.9678 346.282 66.8897L352.314 68.415L355.278 69.1413L358.241 70.0128L369.883 73.499L375.704 75.2421C377.609 75.8231 379.409 76.5494 381.314 77.1305L392.426 80.9798L392.109 81.4156Z" fill="#25B8C9"/>
<path d="M382.69 94.6339L372 91.1477C370.201 90.5667 368.508 89.9857 366.708 89.4046L361.205 87.8794L350.198 84.829L347.446 84.0301L344.589 83.3764L338.979 82.0691C323.952 78.7281 308.606 76.0409 293.259 74.0072C262.355 69.8674 231.133 68.0517 199.912 67.2527C184.354 66.8896 168.796 66.6717 153.239 66.7443C145.407 66.7443 137.681 66.7443 129.744 66.9622C125.828 67.1075 121.912 67.1075 117.996 67.2527L106.142 67.9064C90.3726 68.9232 74.603 70.5937 59.3625 72.9178C44.0163 75.0967 28.9875 77.5661 13.9587 79.8902L13.7471 79.2366C28.7758 76.9124 43.8046 74.5157 59.1509 72.3368C74.3913 70.0126 90.2667 68.3422 106.036 67.3254L117.89 66.7443C121.806 66.5991 125.722 66.5264 129.744 66.4538C137.576 66.2359 145.407 66.2359 153.239 66.2359C168.902 66.1633 184.354 66.3812 199.912 66.817C231.028 67.6159 262.461 69.5042 293.365 73.6441C308.817 75.6777 324.164 78.365 339.191 81.7786L344.8 83.0859L347.658 83.7396L350.41 84.5385L361.416 87.5889L366.92 89.1141C368.719 89.6225 370.518 90.2762 372.318 90.8572L383.007 94.3434L382.69 94.7792V94.6339Z" fill="#25B8C9"/>
<path d="M373.27 107.851L363.11 104.728C361.417 104.22 359.723 103.639 358.03 103.203L352.844 101.896L342.578 99.2085L340.038 98.5548L337.392 97.9738L332.207 96.8843C318.131 93.9802 303.631 91.7287 289.026 90.0582C259.709 86.6446 229.546 85.4099 199.277 85.1194C191.657 85.0468 184.036 85.0468 176.416 85.1194C168.796 85.1921 161.071 85.192 153.557 85.4099L142.233 85.6278L139.375 85.7005L136.623 85.8457L131.014 86.0636C127.31 86.2089 123.605 86.3541 119.901 86.572L109 87.3709C105.296 87.5888 101.803 88.0246 98.2046 88.3877C94.6062 88.7509 91.0077 89.0414 87.4093 89.6224L76.614 91.075L65.7129 92.8181L60.2094 93.6897L54.6 94.6338L43.4872 96.5212L20.9441 100.443L20.7324 99.7895L43.2756 95.8675L54.3884 93.9802L59.9977 93.036L65.5012 92.1644L76.5082 90.4213L87.3035 88.9688C90.9019 88.4604 94.5003 88.1698 98.0988 87.7341C101.697 87.3709 105.296 86.9352 109 86.7173L119.901 85.991C123.605 85.7731 127.31 85.7004 131.014 85.4826L136.623 85.2647L139.375 85.1194L142.233 85.0468L153.557 84.8289C161.071 84.6836 168.796 84.611 176.416 84.5384C184.036 84.4658 191.657 84.5384 199.277 84.611C229.652 84.9015 259.709 86.2089 289.132 89.6224C303.843 91.2929 318.343 93.5444 332.419 96.4486L337.709 97.538L340.355 98.119L342.895 98.7727L353.161 101.46L358.347 102.767C360.041 103.203 361.734 103.784 363.428 104.293L373.588 107.416L373.27 107.851Z" fill="#25B8C9"/>
<path d="M363.851 121.07L354.114 118.31C352.526 117.874 350.939 117.366 349.245 116.93L344.377 115.768L334.746 113.517L332.312 112.936L329.879 112.5L325.01 111.556C311.887 109.159 298.234 107.27 284.369 105.963C256.534 103.276 227.641 102.622 198.218 102.84C190.81 102.913 183.401 103.058 175.887 103.203C168.478 103.348 160.754 103.566 153.557 103.857L142.55 104.293L139.798 104.365L137.152 104.511L131.86 104.801C128.368 105.019 124.769 105.164 121.383 105.455L111.328 106.399C107.941 106.617 104.766 107.125 101.485 107.488C98.2045 107.924 95.0294 108.215 91.7485 108.796L81.9057 110.321L71.5338 112.209L66.3478 113.153L60.8443 114.17L49.9432 116.204L27.5059 120.489L27.2942 119.835L49.7315 115.55L60.6326 113.517L66.1361 112.5L71.3221 111.556L81.6941 109.74L91.6427 108.215C95.0294 107.634 98.2045 107.343 101.485 106.907C104.766 106.544 107.941 106.036 111.328 105.818L121.383 104.946C124.769 104.656 128.368 104.511 131.86 104.293L137.152 104.002L139.798 103.857L142.55 103.784L153.557 103.348C160.86 103.058 168.478 102.84 175.887 102.695C183.401 102.55 190.81 102.404 198.218 102.332C227.747 102.114 256.64 102.767 284.475 105.527C298.34 106.835 312.098 108.723 325.222 111.12L330.09 112.064L332.525 112.5L334.957 113.081L344.589 115.405L349.457 116.567C351.045 117.003 352.632 117.511 354.326 117.947L364.062 120.707L363.745 121.143L363.851 121.07Z" fill="#25B8C9"/>
<path d="M-0.0131836 38.5654L4.74945 37.9844L32.4786 119.763L27.8218 120.634L-0.0131836 38.5654Z" fill="#25B8C9"/>
<path d="M708.557 205.681C701.889 204.156 695.433 202.413 689.189 200.525L684.638 199.072C683.156 198.564 681.568 198.128 679.981 197.547L670.561 194.206C657.862 189.558 645.48 184.401 633.097 178.881C608.331 167.842 584.095 155.568 559.223 142.858C546.734 136.539 534.14 130.149 521.016 123.758L511.279 119.037L502.177 114.534L483.657 105.31L464.501 95.868C461.326 94.2711 457.939 92.6733 454.658 91.1481L444.604 86.3545C441.217 84.7567 437.619 83.2315 434.232 81.6336C430.739 80.1084 427.352 78.5106 423.648 76.9854L412.641 72.4824C408.937 70.9572 405.339 69.4319 401.423 68.052L401.74 67.6162C405.656 68.9962 409.254 70.5214 412.959 72.0466L423.966 76.5496C427.564 78.0748 430.951 79.6727 434.549 81.1979C438.042 82.7957 441.535 84.3209 444.921 85.9188L454.976 90.7123C458.257 92.3101 461.643 93.908 464.819 95.5048L483.975 104.947L502.495 114.17L511.597 118.674L521.334 123.394C534.352 129.713 547.052 136.176 559.435 142.495C584.306 155.132 608.543 167.479 633.308 178.518C645.691 184.038 658.074 189.194 670.773 193.843L680.192 197.184C681.78 197.765 683.262 198.2 684.849 198.709L689.4 200.161C695.645 202.05 702.101 203.793 708.768 205.318L708.662 205.609L708.557 205.681Z" fill="#25B8C9"/>
<path d="M705.276 213.887C698.291 212.435 691.411 210.692 684.743 208.877L679.769 207.424C678.076 206.916 676.488 206.48 674.795 205.899L664.848 202.631C651.618 198.128 638.6 192.971 625.794 187.596C600.076 176.847 575.204 164.792 549.909 152.59C537.209 146.489 524.509 140.316 511.385 134.288L501.65 129.786L492.23 125.355L473.285 116.422C447.779 104.365 421.532 91.8742 392.109 81.343L392.427 80.9072C421.849 91.4385 448.202 104.002 473.603 116.059L492.548 124.992L501.967 129.422L511.703 133.925C524.72 139.953 537.527 146.126 550.227 152.227C575.522 164.429 600.499 176.484 626.112 187.306C638.918 192.68 651.936 197.765 665.165 202.34L675.112 205.608C676.806 206.19 678.393 206.625 680.087 207.134L685.061 208.586C691.729 210.401 698.608 212.071 705.593 213.597L705.487 213.887H705.276Z" fill="#25B8C9"/>
<path d="M701.995 222.095C694.692 220.642 687.389 219.044 680.298 217.229L675.006 215.776C673.207 215.268 671.515 214.832 669.716 214.323C666.223 213.234 662.731 212.217 659.238 211.128C645.374 206.698 631.827 201.687 618.597 196.385C592.032 185.854 566.314 174.088 540.596 162.323C527.684 156.44 514.877 150.557 501.755 144.819L491.912 140.534L482.176 136.249C475.72 133.416 469.263 130.512 462.807 127.607C436.983 115.986 410.842 104.221 382.583 94.6345L382.901 94.1987C411.159 103.785 437.301 115.623 463.125 127.171C469.581 130.077 476.037 132.982 482.493 135.813L492.23 140.098L502.073 144.383C515.195 150.121 528.001 156.077 540.913 161.96C566.631 173.725 592.244 185.491 618.809 196.094C632.144 201.396 645.585 206.408 659.45 210.837C662.943 211.927 666.435 213.016 669.928 214.033C671.621 214.614 673.42 215.05 675.22 215.485L680.51 216.938C687.601 218.754 694.904 220.352 702.206 221.804L702.1 222.095H701.995Z" fill="#25B8C9"/>
<path d="M698.714 230.301C690.988 228.921 683.368 227.396 675.853 225.581L670.245 224.201C668.34 223.765 666.435 223.256 664.636 222.748C661.038 221.659 657.333 220.642 653.629 219.552C639.129 215.195 625.159 210.328 611.4 205.173C583.883 194.859 557.53 183.384 531.388 172.054C518.264 166.39 505.352 160.725 492.23 155.278L482.387 151.21L472.439 146.998C465.771 144.238 459.209 141.405 452.647 138.573C426.4 127.389 400.47 116.349 373.482 107.779L373.799 107.343C400.893 115.914 426.823 127.026 453.071 138.21C459.632 141.042 466.194 143.802 472.862 146.635L482.811 150.847L492.653 154.914C505.776 160.362 518.794 166.027 531.811 171.691C557.953 183.021 584.2 194.496 611.718 204.81C625.477 209.965 639.447 214.904 653.947 219.262C657.545 220.351 661.249 221.368 664.848 222.457C666.647 223.038 668.552 223.474 670.456 223.91L676.065 225.29C683.579 227.106 691.199 228.631 698.926 230.011L698.82 230.301H698.714Z" fill="#25B8C9"/>
<path d="M695.433 238.581C687.389 237.274 679.346 235.749 671.409 234.006L665.377 232.626C663.366 232.19 661.355 231.681 659.45 231.173C655.64 230.156 651.83 229.139 648.02 228.05C632.991 223.765 618.385 218.971 604.097 213.96C575.628 203.865 548.639 192.681 522.074 181.786C508.845 176.339 495.723 170.964 482.599 165.809L472.65 161.959L462.384 157.892L442.169 149.758C415.499 139.009 389.78 128.696 363.956 121.143L364.274 120.707C390.204 128.333 415.922 138.645 442.593 149.395L462.808 157.529L473.074 161.596L483.022 165.446C496.146 170.602 509.268 175.976 522.498 181.423C549.063 192.317 576.051 203.502 604.521 213.597C618.703 218.608 633.308 223.474 648.337 227.687C652.147 228.776 655.957 229.793 659.767 230.81C661.672 231.318 663.683 231.827 665.694 232.262L671.727 233.642C679.769 235.385 687.707 236.911 695.75 238.218L695.644 238.509L695.433 238.581Z" fill="#25B8C9"/>
<path d="M401.846 67.834L402.481 68.0519L364.38 121.215L363.851 121.07L401.846 67.834Z" fill="#25B8C9"/>
<path d="M1033.89 167.915C1014.63 183.674 991.244 196.675 965.314 205.826C939.384 214.977 910.914 220.424 882.55 222.022C879.057 222.24 875.459 222.312 871.966 222.385C870.273 222.385 868.474 222.385 866.78 222.385C865.934 222.385 865.087 222.385 864.24 222.312C863.5 222.312 862.547 222.239 862.018 222.239L850.482 221.731L839.051 221.223C823.918 220.496 808.784 219.552 793.967 218.245C764.332 215.703 735.227 211.926 708.557 205.681L708.662 205.391C735.333 211.636 764.332 215.412 794.072 218.027C808.889 219.334 824.024 220.279 839.157 221.005L850.587 221.513L862.124 222.022C862.653 222.094 863.605 222.094 864.346 222.094C865.193 222.094 866.04 222.094 866.78 222.167C868.474 222.167 870.167 222.167 871.966 222.167C875.459 222.094 878.952 222.022 882.444 221.804C910.808 220.206 939.278 214.831 965.208 205.681C991.138 196.602 1014.53 183.602 1033.79 167.842L1033.89 167.915Z" fill="#25B8C9"/>
<path d="M1036.65 169.295C1017.81 185.635 994.419 199.29 968.172 209.094C942.03 218.971 912.925 225.145 883.608 227.323C879.904 227.614 876.306 227.832 872.602 227.904C869.003 228.05 865.299 228.05 862.018 227.977L850.482 227.687L838.947 227.323C823.601 226.815 808.466 226.161 793.332 225.145C763.168 223.111 733.322 219.77 705.276 213.814L705.382 213.524C733.428 219.479 763.168 222.82 793.332 224.854C808.466 225.871 823.707 226.597 838.947 227.105L850.482 227.469L862.018 227.759C865.299 227.832 869.003 227.759 872.602 227.687C876.2 227.541 879.904 227.396 883.503 227.105C912.819 224.927 941.818 218.826 968.066 208.949C994.313 199.144 1017.6 185.49 1036.54 169.149L1036.65 169.222V169.295Z" fill="#25B8C9"/>
<path d="M1039.4 170.675C1020.88 187.524 997.7 201.904 971.135 212.435C944.676 223.038 915.042 229.866 884.773 232.698C877.258 233.424 869.532 233.86 862.018 233.86C854.292 233.788 846.567 233.715 838.841 233.642C823.389 233.424 808.043 232.989 792.697 232.19C762.004 230.664 731.417 227.832 701.995 222.167L702.101 221.876C731.523 227.541 762.004 230.374 792.697 231.972C808.043 232.771 823.389 233.207 838.841 233.424C846.567 233.57 854.292 233.57 862.018 233.642C869.532 233.642 877.153 233.207 884.667 232.553C914.936 229.72 944.464 222.966 970.924 212.362C997.489 201.832 1020.67 187.451 1039.19 170.675L1039.29 170.747L1039.4 170.675Z" fill="#25B8C9"/>
<path d="M1042.04 172.054C1023.95 189.412 1000.77 204.519 973.887 215.775C947.11 227.106 916.947 234.659 885.725 238.073C881.809 238.508 877.893 238.872 873.977 239.089C869.955 239.38 866.04 239.525 861.912 239.598C854.186 239.67 846.46 239.743 838.629 239.743C823.071 239.743 807.513 239.598 791.956 239.089C760.84 238 729.406 235.676 698.608 230.301L698.714 230.011C729.512 235.385 760.84 237.782 791.956 238.872C807.513 239.38 823.071 239.598 838.629 239.598C846.354 239.598 854.186 239.525 861.912 239.453C866.04 239.38 869.955 239.235 873.977 238.944C877.893 238.654 881.809 238.363 885.725 237.927C916.947 234.514 947.004 226.96 973.781 215.703C1000.56 204.446 1023.73 189.412 1041.94 172.054L1042.04 172.126V172.054Z" fill="#25B8C9"/>
<path d="M1044.8 173.433C1027.02 191.373 1003.94 207.133 976.85 219.116C949.756 231.173 919.169 239.38 886.995 243.447C882.973 243.955 878.846 244.391 874.824 244.754C872.813 244.9 870.696 245.045 868.58 245.19C866.463 245.335 864.452 245.408 862.018 245.481L850.376 245.771L838.629 245.989C822.966 246.28 807.196 246.352 791.426 246.062C759.781 245.481 727.713 243.665 695.539 238.508L695.645 238.218C727.819 243.302 759.887 245.19 791.532 245.771C807.408 246.062 823.072 245.989 838.735 245.699L850.482 245.481L862.124 245.19C864.452 245.117 866.569 245.045 868.686 244.9C870.802 244.754 872.813 244.609 874.93 244.464C879.057 244.101 883.079 243.665 887.101 243.229C919.275 239.162 949.862 230.955 976.956 218.971C1004.05 206.988 1027.12 191.3 1044.9 173.361L1045.01 173.433H1044.8Z" fill="#25B8C9"/>
<path d="M708.663 205.463L709.298 205.608L696.068 238.653L695.433 238.581L708.663 205.463Z" fill="#25B8C9"/>
<path d="M1030.72 170.312L1033.89 167.842L1044.8 173.434L1041.94 176.194L1030.72 170.312Z" fill="#25B8C9"/>
</g>
<defs>
<clipPath id="clip0_4:221">
<rect width="1045" height="264" fill="white"/>
</clipPath>
</defs>
</svg>
